<?xml version="1.0" encoding="utf-8"?>
<!-- Generator: Adobe Illustrator 23.0.6, SVG Export Plug-In . SVG Version: 6.00 Build 0)  -->
<svg version="1.1" id="Capa_1" xmlns="http://www.w3.org/2000/svg" xmlns:xlink="http://www.w3.org/1999/xlink" x="0px" y="0px"
	 viewBox="0 0 16 16" style="enable-background:new 0 0 16 16;" xml:space="preserve">
<style type="text/css">
	.st0{opacity:0.3;fill:#FFFFFF;enable-background:new    ;}
	.st1{fill:#FFFFFF;}
</style>
<g>
	<path class="st0" d="M7.3,0.8c-1.4,0-2.9,0.3-4.1,1.3c0.1,0,0.2,0,0.2,0c0.2,0,0.3,0,0.5,0c0.5,0,0.9-0.2,1.4-0.3
		c0.1,0,0.3-0.1,0.4-0.1c0,0,0.1,0,0.1,0c0.3,0.2,0.2,0.4,0,0.5c-0.2,0.1-0.4,0-0.6,0.1C4.9,2.4,4.7,2.5,4.7,2.9
		c0,0.2,0.1,0.3,0.2,0.3C5,3.2,5.1,3.1,5.3,3c0.1-0.1,0.3-0.2,0.4-0.2c0,0,0,0,0,0c0.6,0.1,0.2,0.7,0.1,1C5.8,4.2,5.8,4.2,5.4,4.3
		C5.2,4.4,4.9,4.6,4.8,4.8C4.6,5,4.4,5.2,4.2,5.4C4.1,5.5,4,6,3.9,6.1c0,0-0.1,0-0.1,0c-0.1,0-0.1,0-0.2-0.1S3.4,5.9,3.4,5.9
		S3.2,6,3.2,6.1c-0.2,0.2,0,0.5,0.1,0.8c0.2,0.4,0.3,0.7,0.4,1.1c-0.1,0-0.1,0-0.1,0C3,7.9,3,7.3,2.8,7.1C2.6,6.9,2.5,6.9,2.3,6.6
		C2.3,6.5,2.2,6.3,2.1,6.1C2,5.8,1.9,5.4,2,5.1C2,4.7,2.2,4.3,2.3,3.9c0.2-0.5,0.4-0.8,0.3-1.3C2.2,3,1.8,3.5,1.5,4.1
		C-0.3,7.2,0,11.3,3,13.7c1.3,1,3,1.5,4.7,1.5c2,0,4.1-0.7,5.5-2.1l0,0c0,0-0.1,0-0.1-0.1c-0.1-0.1,0-0.5,0-0.7
		c0.1-0.3,0.4-0.5,0.6-0.7c0.2-0.3,0.3-0.6,0.5-0.9c0.2-0.3,0.3-0.4,0.3-0.7c0-0.1,0-0.4,0.1-0.5c0.1-0.2,0.3-0.2,0.3-0.4L15,9.3
		c0.2,0.6,0,1.1-0.4,1.7c-0.3,0.5-0.6,1.1-0.9,1.6c0,0,0,0.1-0.1,0.1c0.1-0.1,0.2-0.3,0.3-0.4c1.5-2,3.1-5.4-0.5-9.1
		c0.4,0.6,0.8,1.3,1.1,1.9c0.3,0.6,0.5,0.9,0.3,1.6c-0.1,0.3-0.2,0.5-0.2,0.8c0,0.2-0.1,0.3-0.2,0.3c-0.1,0-0.2-0.2-0.2-0.4
		c0-0.3-0.3-1.5-0.8-1.5c0,0-0.1,0-0.2,0c0,0.2,0.3,0.3,0.3,0.5c0,0.2-0.2,0.3-0.2,0.5c-0.1,0.1-0.1,0.3-0.1,0.5
		c0.1,0.2,0.2,0.2,0.1,0.4c-0.1,0.3-0.3,0.6-0.4,1c0,0.2,0,0.5,0,0.8c-0.1,0.5-0.3,1.2-0.7,1.5c-0.3,0.3-0.5,0.5-0.8,0.8
		c-0.1,0.2-0.2,0.2-0.3,0.2c-0.1,0-0.2-0.1-0.2-0.4c-0.1-0.6,0.3-1,0.3-1.5c0-0.3-0.1-0.5-0.2-0.8C11,9.2,11,8.9,11,8.6
		c0-0.4-0.1-0.5-0.5-0.5c-0.1,0-0.2,0-0.3,0c-0.2,0-0.3,0-0.5,0c-0.2,0-0.3,0-0.5-0.2C8.8,7.6,9,6.9,9.1,6.4c0-0.4,0.1-0.5,0.5-0.7
		c0.3-0.1,0.5-0.4,0.8-0.4c0,0,0,0,0.1,0c0.3,0,0.2,0.2,0.4,0.3c0.1,0,0.1,0,0.2,0c0,0,0.1,0,0.1,0s0.1,0,0.1,0c0,0,0,0,0.1,0
		c0.2,0,0.4,0.1,0.6,0.1c0.1,0,0.2,0,0.3-0.1c-0.1-0.3-0.5-0.3-0.3-0.6c0.1-0.2,0.3-0.2,0.3-0.5c0-0.1-0.2-0.3-0.3-0.3c0,0,0,0,0,0
		c-0.2,0-0.1,0.1-0.2,0.2c-0.1,0.2,0,0.3-0.3,0.3c0,0,0,0,0,0c-0.2,0-0.3-0.1-0.4-0.1c-0.1-0.1-0.2-0.1-0.3-0.1
		c-0.1,0-0.2,0-0.4,0.2c-0.1,0.1-0.4,0.6-0.7,0.6c-0.1,0-0.1,0-0.2-0.1C9.2,4.7,9.6,4.5,9.6,4.3c0-0.1,0-0.3,0-0.4
		c0.1-0.4,0.6-0.2,0.9-0.5c0.1-0.1,0.3-0.3,0.2-0.5c-0.1-0.1-0.1-0.2-0.2-0.2c-0.1,0-0.2,0.3-0.3,0.3c-0.1,0-0.1,0.1-0.2,0.1
		c-0.2,0-0.2-0.4-0.2-0.6C9.8,2.2,9.8,2,10,2c0.1,0,0.1,0,0.3,0.1c0.2,0.1,0.2,0.1,0.3,0.1c0.1,0,0.1,0,0.2-0.1
		C11,2,11.2,1.9,11.1,1.6l0.1-0.1C10.1,1.1,8.7,0.8,7.3,0.8 M6.2,1.4L6.1,1.2C6.1,1.1,6.5,1,6.9,1c0.8,0,1.7,0.3,0.7,1.1
		C7.5,2.2,7.4,2.3,7.3,2.4C7.2,2.5,7.2,2.8,7.1,2.9C7,2.9,6.9,2.9,6.9,2.9c-0.1,0-0.2-0.2-0.3-0.4C6.6,2.3,6.8,1.3,6.2,1.4
		C6.2,1.3,6.2,1.3,6.2,1.4 M5.6,14.1c-0.3,0-0.7-1.1-0.7-1.4c0-0.4-0.1-0.8-0.1-1.2c0-0.2,0-0.4-0.1-0.6c-0.1-0.4-0.4-0.3-0.6-0.5
		c-0.2-0.2-0.3-0.9-0.3-1.2C3.8,8.9,4,8.6,4,8.4c0.1-0.2,0.1-0.5,0.1-0.7l0.2-0.1c0.1,0,0.2,0,0.3,0c0.2,0,0.4,0,0.6,0.2
		C5.3,7.9,5.4,8,5.6,8.1c0.1,0.1,0.2,0,0.3,0.2C6.1,8.5,6,8.7,6.2,8.9C6.3,9,6.5,9,6.6,9.1c0.3,0.1,0.7,0.3,0.6,0.7
		c-0.1,0.3-0.5,0.3-0.4,0.7c0.1,0.4,0.3,0.5-0.2,0.7c-0.4,0.2-0.4,0.2-0.5,0.6C6,12,5.8,12.4,5.6,12.6c-0.2,0.3-0.3,0.5-0.2,0.8
		C5.5,13.7,5.6,13.9,5.6,14.1C5.6,14.1,5.6,14.1,5.6,14.1 M12.7,11.4c-0.1-0.3,0.4-0.8,0.5-1.1l0.1-0.2
		C13.3,10.6,13.3,11.3,12.7,11.4 M11.5,1.7c0.4,0.3,0.9,0.5,1.3,0.8C12.5,2.3,12,2,11.5,1.7"/>
	<path class="st1" d="M5.7,1.6c-0.1,0-0.3,0.1-0.4,0.1C4.9,1.9,4.5,2.1,4,2.1c-0.1,0-0.3,0-0.5,0c-0.1,0-0.2,0-0.2,0
		C3.1,2.2,2.9,2.4,2.7,2.6c0.1,0.5-0.1,0.9-0.3,1.3C2.2,4.3,2.1,4.7,2,5.1c0,0.3,0.1,0.7,0.2,1c0,0.2,0.1,0.3,0.2,0.5
		c0.1,0.2,0.3,0.3,0.4,0.4C3,7.3,3.1,7.9,3.5,7.9c0,0,0.1,0,0.1,0C3.6,7.5,3.5,7.2,3.3,6.8C3.2,6.6,3,6.3,3.2,6
		C3.3,6,3.4,5.9,3.4,5.9c0.1,0,0.1,0,0.2,0.1c0.1,0,0.1,0.1,0.2,0.1c0,0,0.1,0,0.1,0C4.1,6,4.2,5.5,4.3,5.4C4.5,5.2,4.6,5,4.8,4.8
		C5,4.6,5.2,4.4,5.5,4.3c0.3-0.2,0.3-0.1,0.4-0.5c0.1-0.4,0.5-0.9-0.1-1c0,0,0,0,0,0C5.6,2.8,5.5,2.9,5.3,3C5.2,3.1,5.1,3.2,5,3.2
		c-0.1,0-0.2-0.1-0.2-0.3c0-0.3,0.2-0.5,0.4-0.6c0.2-0.1,0.4-0.1,0.6-0.1c0.2-0.1,0.3-0.3,0-0.5C5.8,1.6,5.8,1.6,5.7,1.6"/>
	<path class="st1" d="M4.6,7.6c-0.1,0-0.2,0-0.3,0L4.1,7.7c0,0.3,0,0.5-0.1,0.7C4,8.6,3.8,8.9,3.8,9.1c0,0.3,0,1,0.3,1.2
		c0.2,0.2,0.5,0.1,0.6,0.5c0.1,0.2,0,0.4,0.1,0.6c0.1,0.4,0.1,0.8,0.1,1.2c0,0.3,0.4,1.4,0.7,1.4h0c0.1-0.3,0-0.5-0.1-0.7
		c-0.1-0.3,0-0.5,0.2-0.8C5.8,12.3,6,12,6.1,11.7c0.1-0.3,0.1-0.4,0.5-0.6c0.5-0.2,0.3-0.3,0.2-0.7C6.7,10,7.1,10,7.2,9.7
		C7.3,9.4,6.9,9.2,6.6,9C6.5,9,6.3,9,6.2,8.9C6.1,8.7,6.1,8.5,6,8.3C5.9,8.2,5.8,8.2,5.6,8.1C5.4,8,5.3,7.9,5.1,7.8
		C4.9,7.7,4.8,7.6,4.6,7.6"/>
	<path class="st1" d="M7,1C6.5,1,6.1,1.1,6.1,1.2l0.1,0.1c0,0,0.1,0,0.1,0c0.5,0,0.3,0.9,0.4,1.2c0,0.2,0.1,0.4,0.3,0.4
		c0,0,0.1,0,0.2-0.1c0.1-0.1,0.1-0.3,0.2-0.4c0.1-0.1,0.3-0.2,0.4-0.3C8.7,1.3,7.7,1,7,1"/>
	<path class="st1" d="M11.2,1.6L11.2,1.6c0,0.3-0.2,0.5-0.4,0.5c-0.1,0.1-0.2,0.1-0.2,0.1c-0.1,0-0.1,0-0.3-0.1C10.1,2.1,10,2,10,2
		C9.7,2,9.7,2.3,9.7,2.6c0,0.2,0,0.6,0.2,0.6c0.1,0,0.1,0,0.2-0.1c0.1-0.1,0.2-0.3,0.3-0.3c0,0,0.1,0,0.2,0.2c0.1,0.2,0,0.4-0.2,0.5
		C10.2,3.7,9.7,3.5,9.6,4c0,0.1,0,0.3,0,0.4C9.5,4.5,9.2,4.8,9.3,5c0.1,0.1,0.1,0.1,0.2,0.1c0.3,0,0.6-0.4,0.7-0.6
		c0.2-0.1,0.3-0.2,0.4-0.2c0.1,0,0.2,0.1,0.3,0.1c0.1,0.1,0.2,0.1,0.4,0.1c0,0,0,0,0,0c0.3,0,0.2-0.1,0.3-0.3c0.1-0.1,0-0.2,0.2-0.2
		c0,0,0,0,0,0c0.1,0,0.3,0.2,0.3,0.3c0.1,0.3-0.2,0.3-0.3,0.5c-0.2,0.3,0.2,0.3,0.3,0.6c-0.1,0.1-0.2,0.1-0.3,0.1
		c-0.2,0-0.4-0.1-0.6-0.1c0,0,0,0-0.1,0c0,0-0.1,0-0.1,0c0,0-0.1,0-0.1,0c-0.1,0-0.1,0-0.2,0c-0.2-0.1-0.1-0.2-0.4-0.3
		c0,0,0,0-0.1,0c-0.3,0-0.6,0.3-0.8,0.4C9.2,5.9,9.1,6,9,6.4C9,6.9,8.8,7.7,9.2,8.1c0.1,0.1,0.3,0.2,0.5,0.2c0.2,0,0.3,0,0.5,0
		c0.1,0,0.2,0,0.3,0c0.3,0,0.5,0.1,0.5,0.5c0,0.3,0,0.5,0.1,0.8c0.1,0.3,0.2,0.5,0.2,0.8c0,0.5-0.4,0.9-0.3,1.5
		c0,0.3,0.1,0.4,0.2,0.4c0.1,0,0.2-0.1,0.3-0.2c0.3-0.3,0.5-0.5,0.8-0.8c0.3-0.3,0.6-1.1,0.7-1.5c0-0.3,0-0.5,0-0.8
		c0.1-0.4,0.4-0.6,0.4-1c0-0.3-0.1-0.2-0.1-0.4c0-0.2,0-0.4,0.1-0.5c0.1-0.2,0.3-0.3,0.2-0.5c0-0.2-0.3-0.3-0.3-0.5
		c0.1,0,0.1,0,0.2,0c0.5,0,0.8,1.1,0.8,1.5c0,0.3,0.1,0.4,0.2,0.4c0.1,0,0.1-0.1,0.2-0.3c0.1-0.3,0.1-0.5,0.2-0.8
		c0.2-0.7,0-1-0.3-1.6c-0.3-0.6-0.7-1.3-1.1-1.9C13.2,3,13,2.8,12.8,2.6c0,0,0,0,0,0c-0.4-0.3-0.9-0.6-1.3-0.8
		C11.4,1.7,11.3,1.6,11.2,1.6"/>
	<path class="st1" d="M14.9,9.2c-0.1,0.2-0.3,0.2-0.3,0.4c-0.1,0.1,0,0.4-0.1,0.5c-0.1,0.3-0.2,0.4-0.3,0.7
		c-0.2,0.3-0.2,0.6-0.5,0.9c-0.2,0.2-0.6,0.4-0.6,0.7c0,0.1-0.1,0.5,0,0.7c0,0.1,0.1,0.1,0.1,0.1l0,0c0.1-0.1,0.3-0.3,0.4-0.4
		c0,0,0-0.1,0.1-0.1c0.4-0.5,0.6-1.1,0.9-1.6s0.6-1.1,0.4-1.7L14.9,9.2z"/>
	<path class="st1" d="M13.3,10.2l-0.1,0.2c-0.1,0.3-0.6,0.8-0.5,1.1C13.3,11.3,13.3,10.6,13.3,10.2"/>
</g>
</svg>
