<?xml version="1.0" encoding="utf-8"?>
<!-- Generator: Adobe Illustrator 28.1.0, SVG Export Plug-In . SVG Version: 6.00 Build 0)  -->
<svg version="1.1" id="Capa_1" xmlns="http://www.w3.org/2000/svg" xmlns:xlink="http://www.w3.org/1999/xlink" x="0px" y="0px"
	 viewBox="0 0 896.3 392.9" style="enable-background:new 0 0 896.3 392.9;" xml:space="preserve">
<style type="text/css">
	.st0{fill:#FFFFFF;}
</style>
<g>
	<g>
		<g>
			<g>
				<path class="st0" d="M133,173c-3.7,3.4-9.1,4.5-12.4,4.9c-6.8,0.9-13.9-1.4-18.4-6.9c-3.7-4.4-5.6-10.2-9.2-14.8
					c-5.7-7.3-14.9-12-24.3-10.4c-18.6,3.4-27,25.1-16.5,40.1c15,21.5,48.8,17.8,66.2,2.9C123.7,184.3,128.8,179.1,133,173"/>
				<path class="st0" d="M763.3,173c3.7,3.4,9.1,4.5,12.4,4.9c6.8,0.9,13.9-1.4,18.4-6.8c3.7-4.4,5.6-10.2,9.2-14.8
					c5.7-7.3,14.9-12.1,24.3-10.4c18.6,3.4,27,25.1,16.5,40.1c-15,21.5-48.8,17.8-66.2,2.9C772.5,184.3,767.5,179.1,763.3,173"/>
				<g>
					<path class="st0" d="M701.3,58.4c-0.5,0-44.9,0-45.3,0c-4.9,0.1-8.9,4.7-9.1,9.3c-0.2,4.9,4,9.8,9.1,10.1c0.5,0,44.9,0,45.3,0
						c4.9-0.1,8.9-4.7,9.1-9.3C710.7,63.5,706.4,58.6,701.3,58.4"/>
					<path class="st0" d="M418.6,154.8c-0.6-2.6-1-5.1-1.1-7.6c0-3.7,0-8.8,0-13.6c0.5-16.4,3.5-45.3-18.7-45.3
						c-15,0-24,12.7-26.5,16.8c-0.4-11.5-9.5-19.9-23.4-19.9c-8.9,0-14.1,7.1-14.1,7.1s8.7,3,8.7,14.6c0.1,8.3,0,48.9,0,49
						c0.3,7.2,5.4,13.9,14.3,13.9c9,0,14.6-6.9,14.6-13.9v-36c1.3-5.9,4.6-11.9,9.5-11.9c6.5,0,6.8,7.2,6.9,7.2l0,34.8
						c0,1.1,0.2,2.2,0.4,3.3c0.3,1.8,0.9,3.5,1.7,5.1c3.5,7,11.1,11.6,21.3,11.6c8.9,0,14.1-7.1,14.1-7.1S420.9,161.1,418.6,154.8"
						/>
					<path class="st0" d="M632.7,154.8c-0.6-2.6-1-5.1-1.1-7.6l0-86.2c0-8.4-6.8-15.2-15.2-15.2c-8.4,0-15.2,6.8-15.2,15.2l0,76.3
						c0.1,6.9-0.6,13.9,2.6,20.2c3.4,7,11.9,12.4,22.2,12.4c8.9,0,14.2-7.1,14.2-7.1S635.1,161.1,632.7,154.8"/>
					<path class="st0" d="M294,152.5L294,152.5C293.9,152.5,293.9,152.5,294,152.5c-0.1,0-0.1,0-0.2,0v0
						c-7.8-0.1-11.7-9.1-11.7-23.7c0-14.6,4.9-23.6,11.7-23.7v0c0,0,0.1,0,0.1,0c0,0,0.1,0,0.1,0v0c6.7,0.2,11.7,9.1,11.7,23.7
						C305.6,143.4,301.8,152.3,294,152.5 M293.7,87.5c-22.8,0-41.2,18.5-41.2,41.2c0,22.8,18.5,41.2,41.2,41.2
						c22.8,0,41.2-18.5,41.2-41.2C334.9,106,316.4,87.5,293.7,87.5"/>
					<path class="st0" d="M466.1,149.8L466.1,149.8C466.1,149.8,466,149.8,466.1,149.8c-0.1,0-0.1,0-0.2,0v0
						c-7.8-0.1-11.7-7.9-11.7-20.7c0-12.7,4.9-20.5,11.7-20.7v0c0,0,0.1,0,0.1,0c0,0,0.1,0,0.1,0v0c6.7,0.1,11.7,7.9,11.7,20.7
						C477.8,141.9,473.9,149.7,466.1,149.8 M511.3,154.8c-0.6-2.6-1-5.1-1.1-7.6l0-86.2c0-8.4-6.8-15.2-15.2-15.2
						s-15.2,6.8-15.2,15.2l-0.1,40.8c-3.6-5.1-11.7-13.7-24.4-13.7c-34.8,0-37,62.1-13.2,77.4c6.7,4.3,16.9,5.4,24.6,3.4
						c5.3-1.4,13.7-6.6,15-12.8c0.2,0.5,0.4,0.9,0.6,1.4c3.4,7,11.9,12.4,22.2,12.4c8.9,0,14.2-7.1,14.2-7.1
						S513.7,161.1,511.3,154.8"/>
					<path class="st0" d="M545.9,124.1c0.9-6.5,2.4-14.7,8.3-18.5c4.9-3.2,11.7,0.4,11.8,6.5c0.1,6.4-4,10.8-9.8,12
						C555.6,124.2,545.9,124.7,545.9,124.1 M590.3,144.5c0,0-4.4,6.1-21.7,6.1c-17.3,0-21-13.4-21-13.4c25.2,0,46.3-1.7,46.3-22.1
						c0-20.4-23-27.1-36.7-27.1c-22.5,0-39,18-39,41.7c0,26.7,21.4,40.3,39.2,40.3C588.8,170,590.3,144.5,590.3,144.5z"/>
					<path class="st0" d="M667.3,124.1c0.9-6.5,2.4-14.7,8.3-18.5c4.9-3.2,11.7,0.4,11.8,6.5c0.1,6.4-4,10.8-9.8,12
						C677,124.2,667.2,124.7,667.3,124.1 M711.6,144.5c0,0-4.4,6.1-21.7,6.1c-17.3,0-21-13.4-21-13.4c25.2,0,46.3-1.7,46.3-22.1
						c0-20.4-23-27.1-36.7-27.1c-22.5,0-39,18-39,41.7c0,26.7,21.4,40.3,39.2,40.3C710.1,170,711.6,144.5,711.6,144.5z"/>
					<path class="st0" d="M768.6,146.7h-17.3c1.3,0,14.1-10.8,18.3-14.4c11.1-9.4,31.1-23,25.3-40.6l0,0.1c-1.1-4.2-4.3-6.6-4.3-6.6
						s-1.2,3.4-5.3,5c-1.7,0.4-3.4,0.7-5,0.8c-1.4,0-48.3,0-48.3,0c-6.3,0-11.7,5.1-11.8,11.1c-0.1,6.1,4.9,10.9,11.4,11l27.4,0.2
						c-12.7,7.1-27.9,15.5-35.6,28.3c-4.4,7.3-9.1,18.7-7.3,27.4c6.1-5.4,22.1-10.6,34.2-8.1c4.6,1,9.4,3.3,13.3,5.7
						c22.8,14.3,36.5-13.6,25.6-25.9C789.2,140.6,783,146.7,768.6,146.7"/>
					<path class="st0" d="M254.7,164c-14-15.3-18.4-40.8-19.2-57.8c-0.7-14.6,0.1-40,11.6-47.4c-3.9-4.9-11.5-6.8-17.3-6.8
						c-13,0-19.3,8.7-23.7,14.9c-1.5,2.1-23.3,32.2-23.3,32.2S164.3,70.7,162,67.3c-3.1-4.7-9-13.4-19.3-14.9
						c-4.4-0.6-15.9-1.2-22.2,7.3c10.8,8.6,10.5,30.6,8.2,45.6c-7,45-26.2,49.2-26.2,49.2c9.8,26.5,35.1,16,42.2-5.1
						c4.6-13.7,7.6-31.1,8.3-45.5l27.7,42.5c0,0,31.4-42.4,31.4-42.4c-5.2,75,20.6,96.2,43.1,96.2c22.5,0,30.2-20.6,30.2-20.6
						C273.3,178.9,262.7,172.8,254.7,164"/>
				</g>
				<g>
					<path class="st0" d="M325,188.4c0.3,1.1,0.4,2.2,0.5,3.3c0,0.3,0,39.2,0,39.7c0.1,3.3,3.1,6,6.2,6.1c3.3,0.2,6.6-2.7,6.7-6.1
						c0-0.4,0-35.5,0-35.5c0-2.9,0.3-5.9-1.1-8.6c-1.5-3-5.1-5.3-9.5-5.3c-3.8,0-6.1,3-6.1,3S324,185.7,325,188.4"/>
					<path class="st0" d="M736.1,231c-0.3-1.1-0.4-2.2-0.5-3.3c0-0.3,0-39.2,0-39.7c-0.1-3.3-3.1-6-6.2-6.1
						c-3.3-0.2-6.6,2.7-6.7,6.1c0,0.4,0,35.5,0,35.5c0,2.9-0.3,5.9,1.1,8.7c1.5,3,5.1,5.3,9.5,5.3c3.8,0,6.1-3,6.1-3
						S737.2,233.7,736.1,231"/>
					<path class="st0" d="M501.5,202c-6.7,0-10.7,5.7-11.9,7.5l0,0c0-1.9,0-3.4,0-3.4c-0.1-3.3-3.1-5.7-6.2-5.9
						c-3.3-0.2-6.6,2.5-6.7,5.9c0,0.4,0,24.8,0,25.2c0.1,3.3,3.1,6,6.2,6.1c3.3,0.2,6.6-2.7,6.7-6.1c0-0.3,0-8.2,0-15.1l0.1,0
						c0.6-2.6,2-5.3,4.3-5.3c2.9,0,3.1,3.2,3.1,3.2l0,17.2c0.1,3.3,3.1,6,6.2,6.1c3.3,0.2,6.6-2.7,6.7-6.1l0-9
						C509.9,213.1,510.9,202,501.5,202"/>
					<path class="st0" d="M667.2,202c-6.7,0-10.7,5.7-11.9,7.5l0,0c0-1.9,0-3.4,0-3.4c-0.1-3.3-3.1-5.7-6.2-5.9
						c-3.3-0.2-6.6,2.5-6.7,5.9c0,0.4,0,24.8,0,25.2c0.1,3.3,3.1,6,6.2,6.1c3.3,0.2,6.6-2.7,6.7-6.1c0-0.3,0-8.2,0-15.1l0.1,0
						c0.6-2.6,2-5.3,4.3-5.3c2.9,0,3.1,3.2,3.1,3.2l0,17.2c0.1,3.3,3.1,6,6.2,6.1c3.3,0.2,6.6-2.7,6.7-6.1l0-9
						C675.7,213.1,676.6,202,667.2,202"/>
					<path class="st0" d="M369.8,202c-6.7,0-10.7,5.7-11.9,7.5l0,0c0-1.9,0-3.4,0-3.4c-0.1-3.3-3.1-5.7-6.2-5.9
						c-3.3-0.2-6.6,2.5-6.7,5.9c0,0.4,0,24.8,0,25.2c0.1,3.3,3.1,6,6.2,6.1c3.3,0.2,6.6-2.7,6.7-6.1c0-0.3,0-8.2,0-15.1l0.1,0
						c0.6-2.6,2-5.3,4.3-5.3c2.9,0,3.1,3.2,3.1,3.2l0,17.2c0.1,3.3,3.1,6,6.2,6.1c3.3,0.2,6.6-2.7,6.7-6.1l0-9
						C378.2,213.1,379.2,202,369.8,202"/>
					<path class="st0" d="M620.4,229.5L620.4,229.5C620.3,229.5,620.3,229.5,620.4,229.5C620.3,229.5,620.3,229.5,620.4,229.5
						L620.4,229.5c-3.6-0.1-5.3-4.1-5.3-10.6c0-6.5,2.2-10.6,5.2-10.6v0c0,0,0,0,0,0c0,0,0,0,0,0v0c3,0.1,5.2,4.1,5.2,10.6
						C625.6,225.4,623.9,229.4,620.4,229.5 M620.2,200.4c-10.2,0-18.5,8.3-18.5,18.5c0,10.2,8.3,18.5,18.5,18.5
						c10.2,0,18.5-8.3,18.5-18.5C638.7,208.7,630.4,200.4,620.2,200.4"/>
					<path class="st0" d="M531.4,228.1L531.4,228.1C531.4,228.1,531.4,228.1,531.4,228.1C531.4,228.1,531.4,228.1,531.4,228.1
						L531.4,228.1c-3.6-0.1-5.3-3.6-5.3-9.3c0-5.7,2.2-9.2,5.2-9.3v0c0,0,0,0,0,0c0,0,0,0,0,0v0c3,0.1,5.2,3.6,5.2,9.3
						C536.7,224.5,534.9,228,531.4,228.1 M551.3,205.7c-0.1-3.4-3.3-6.2-6.6-6.4c-3.5-0.2-6.9,2.8-7.1,6.4c0,0.2,0,0.8,0,0.9
						c-1.6-2.3-5.2-6.1-10.9-6.1c-15.6,0-16.6,27.8-5.9,34.7c3,1.9,7.6,2.4,11,1.5c1.9-0.5,4.8-2.2,6.1-4.3c0.8,2.7,3.5,4.8,6.3,4.9
						c3.5,0.2,6.9-2.8,7.1-6.4C551.3,230.5,551.3,206,551.3,205.7"/>
					<path class="st0" d="M697.1,228.1L697.1,228.1C697.1,228.1,697.1,228.1,697.1,228.1C697,228.1,697,228.1,697.1,228.1
						L697.1,228.1c-3.6-0.1-5.3-3.6-5.3-9.3c0-5.7,2.2-9.2,5.2-9.3v0c0,0,0,0,0,0c0,0,0,0,0,0v0c3,0.1,5.2,3.6,5.2,9.3
						C702.3,224.5,700.6,228,697.1,228.1 M716.9,205.7c-0.1-3.4-3.3-6.2-6.6-6.4c-3.5-0.2-6.9,2.8-7.1,6.4c0,0.2,0,0.8,0,0.9
						c-1.6-2.3-5.2-6.1-10.9-6.1c-15.6,0-16.6,27.8-5.9,34.7c3,1.9,7.6,2.4,11,1.5c1.9-0.5,4.8-2.2,6.1-4.3c0.8,2.7,3.5,4.8,6.3,4.9
						c3.5,0.2,6.9-2.8,7.1-6.4C716.9,230.5,716.9,206,716.9,205.7"/>
					<path class="st0" d="M597.7,209.2c-0.2-3.2-2.7-5.7-5.9-6c-0.2,0-0.4-0.1-0.6-0.1c-2.9,0-6.5,2.5-6.5,5.7l0,12h0
						c0,3.7,0,10.5,0,10.5c0.2,3.2,2.7,5.7,5.9,6c0.2,0,0.4,0.1,0.6,0.1c2.9,0,6.5-2.5,6.5-5.7l0-10h0
						C597.6,218,597.7,209.3,597.7,209.2"/>
					<path class="st0" d="M597.6,193c0,3.5-2.9,6.4-6.4,6.4c-3.6,0-6.4-2.9-6.4-6.4c0-3.6,2.9-6.4,6.4-6.4
						C594.8,186.6,597.6,189.5,597.6,193"/>
					<path class="st0" d="M466.3,201.6c-3.9,0.2-5.8,3-8.4,6.6c0,0,0-1.7,0-1.7c-0.1-3.3-3.1-6-6.2-6.1c-3.3-0.2-6.6,2.7-6.7,6.1
						v9.3v15.6h0c0.1,3.3,3.1,6,6.2,6.1c3.3,0.2,6.5-2.7,6.7-6h0l0-15.8c0.2-2.3,1.2-5.2,3.1-5.2c2.6,0-0.1,6.4,5.9,6.4
						C475.6,216.9,476.5,201.2,466.3,201.6"/>
					<path class="st0" d="M419.9,216.8c0.4-2.9,1.1-6.6,3.7-8.3c2.2-1.4,5.2,0.2,5.3,2.9c0,2.9-1.8,4.8-4.4,5.4
						C424.3,216.8,419.9,217.1,419.9,216.8 M439.8,225.9c0,0-2,2.7-9.7,2.7c-7.7,0-9.4-6-9.4-6c11.3,0,20.8-0.8,20.8-9.9
						c0-9.1-10.3-12.1-16.5-12.1c-10.1,0-17.5,8.1-17.5,18.7c0,12,9.6,18.1,17.6,18.1C439.1,237.4,439.8,225.9,439.8,225.9z"/>
					<path class="st0" d="M406.7,230.5c0,0-3.4,6.8-9.6,6.8c-5.1,0-11.4-4.5-11.7-11.1c0-0.1,0-9.5-0.1-17.4h-1.7
						c-0.9,0-2.5-0.5-2.5-2.9c0-2.4,1.8-2.9,2.7-2.9h1.5c0-2.8,0-4.7,0-4.8c0.2-3.4,3.4-6.3,6.7-6.1c3.1,0.2,6.2,2.8,6.3,6.1v0v4.7
						h5.5c0.8,0,2.5,0.5,2.5,2.9s-1.8,2.9-2.7,2.9h-5.3v14.5C398.3,228.1,402.4,230.5,406.7,230.5"/>
					<path class="st0" d="M580.2,230.5c0,0-3.4,6.8-9.6,6.8c-5.1,0-11.4-4.5-11.7-11.1c0-0.1,0-9.5-0.1-17.4h-1.7
						c-0.9,0-2.5-0.5-2.5-2.9c0-2.4,1.8-2.9,2.7-2.9h1.5c0-2.8,0-4.7,0-4.8c0.2-3.4,3.4-6.3,6.7-6.1c3.1,0.2,6.2,2.8,6.3,6.1v0v4.7
						h5.5c0.8,0,2.5,0.5,2.5,2.9s-1.8,2.9-2.7,2.9h-5.3v14.5C571.8,228.1,575.9,230.5,580.2,230.5"/>
				</g>
			</g>
		</g>
		<g>
			<path class="st0" d="M82.6,330.6c0,0.5,0.3,0.8,0.3,1.3c0,0.5-0.2,0.9-0.5,1.3c-0.4,0.5-0.9,1-1.2,1.5c-0.9,1.9-2.1,3.5-3.7,5
				c-0.8,0.8-1.7,1.2-2.7,1.8c-1.2,0.7-2.4,1.5-3.6,2.2c-1.2,0.7-2.6,1.1-4.1,1.1c-1.1,0-2.1-0.1-3.1-0.1c-1,0-2,0.1-3,0.1
				c-2,0-2-0.1-3.9-0.8c-1.8-0.7-3.6-2.3-4.9-3.9c0,0.3,0,0.6,0,1.4c0,0.5,0,1.4-0.2,2.2c-0.2,1-0.6,1.9-1.6,1.9
				c-0.8,0-1.1-0.2-1.7-0.7c-0.5-0.4-0.7-1.1-0.9-1.6c-0.2-0.7-0.2-1.3-0.2-1.7c0-0.8,0.2-1.4,0.2-2.7c0-0.9,0-3.2,0-5.7
				c0-3.2,0-6.7,0.2-7.9c0.1-0.8,0.1-1.8,0.5-2.5c0.2-0.4,0.3-0.6,0.7-1c0.2-0.2,0.6-0.5,1-0.5c0.3,0,0.7,0.4,0.8,0.5
				c0.4,0.6,0.7,1.4,0.8,2c0.1,0.8,0.2,2.5,0.2,4.4c0,1.4,0.1,2.8,0.1,4c0.1,1.1,0.3,2.1,0.8,2.9c0.6,1,1.3,1.6,1.9,2.6
				c0.7,1.1,1.2,1.7,2.5,1.9c0.8,0.1,3.2,0.7,4.3,0.7c1.1,0,1.4-0.5,2.4-1c1-0.5,2.4-0.3,3.4-0.9c0.8-0.5,1.9-1.5,2.3-2.2
				c0.4-0.7,0.7-1.5,0.7-2.2c0-0.4-0.1-0.9-0.3-1.4c-0.4-1.1-1.1-2-1.6-3c-0.6-1.2-0.9-2.4-1.6-3.5c-1.4-2.2-3.4-3.9-5.1-5.9
				c-1.6-2-3.4-3.8-5.1-5.7c-1.8-2-3.6-4-5.2-6.2c-1.6-2.1-2.2-4.9-2.8-7.4c-0.5-2.1-1.1-4.3-1.1-6.5c0-3,1.1-5.1,2.5-7.4
				c1.3-2.3,3.3-4.1,5.5-5.5c2.1-1.2,3.5-1.7,6.1-1.9c1.5-0.1,2-0.8,3.7-0.8c1.1,0,2,0.3,3,0.5c1,0.2,2.1,0.7,3.2,1.1
				c1.3,0.5,2.5,1,3.4,1.9c0.1-1.4,0.1-2.4,0.5-3.1c0.2-0.4,0.3-0.6,0.7-1c0.2-0.2,0.8-0.5,1.2-0.5c0.3,0,0.7,0.4,0.8,0.5
				c0.4,0.6,0.7,1.4,0.8,2c0.1,0.9,0.2,4,0.2,6c0,1.7-0.1,3.5-0.1,4.6c0,2.6,0.3,3.6,0.2,5.9c0,1.1,0,4.1-1.8,4.1
				c-0.8,0-1.1-0.2-1.7-0.7c-0.5-0.4-0.7-1-0.9-1.6c-0.2-0.7-0.2-1.3-0.2-1.7c0-0.8,0.2-1.4,0.2-2.7c0-0.7,0-2,0-3.4
				c0-0.9-0.2-1.7-0.4-2.5c-0.4-1.1-0.9-2.2-1.7-3c-0.7-0.8-1.6-1.3-2.7-1.6c-0.9-0.3-2.1-0.5-3.3-0.5c-1.3,0-2.6,0.3-3.6,1
				c-0.8,0.6-1,1.5-1.5,2.4c-0.6,1.1-1,2-1.4,3.2c-0.3,1-0.7,1.9-0.7,3.1c0,0.5,0.4,1.2,0.5,1.7c0.2,0.7-0.1,1.5,0.1,2.2
				c0.2,1,1.4,1.7,2.1,2.3c0.8,0.8,1.1,1.9,1.8,2.8c0.8,1.2,1.9,2.2,3,3.2c0.9,0.8,1.8,1.5,2.6,2.4c1.7,1.7,3.5,3.2,5.1,5
				c0.7,0.8,1.2,2,2,2.8c0.3,0.3,0.7,0.3,0.9,0.6c0.4,0.4,0.5,0.9,0.9,1.3c0.7,0.9,1.7,1.7,2.4,2.7c0.6,0.9,0.8,2.2,1.2,3.2
				c0.4,1,0.6,2.1,1,3.1c0.1,0.4,0.2,0.7,0.2,1.1c0,0.7-0.2,1.4-0.4,2.2C82.8,329.7,82.6,330.2,82.6,330.6L82.6,330.6z"/>
			<path class="st0" d="M131.5,281.3c1,0,2.8,0.1,2.8,1.5c0,0.8-0.1,1.1-0.5,1.7c-0.3,0.5-0.8,0.7-1.3,0.9c-0.7,0.2-1.2,0.3-1.6,0.3
				c-0.2,0-1.5,0-3,0c0.1,0.7,0.2,1.4,0.2,2.2c0,1.2-0.2,2.3-0.2,3.5c0,1.8,0.3,3.5,0.5,5.3c0.2,1.8,0.3,3.5,0.3,5.3
				c0,1.5,0.1,2.9,0.1,4.4c0.1,1.5,0.3,3.1,0.3,4.6c0,1.6-0.4,3.1-0.4,4.6c0,1.5,0,3,0,4.5c0,1.8,0,3.6-0.2,5.4
				c-0.1,1.4-0.1,2.9-0.1,4.3c-0.1,1.5-0.2,2.9-0.2,4.4c0,1.4,0.5,3.1,0.5,4.7c0,1.1-0.2,2.1-1.1,2.9c-1.3,1.2-2.9,1.6-4.6,1.6
				c-1.3,0-2.7-0.4-4-0.9c-1.4-0.5-2.7-1.1-3.7-1.9c-2.2-1.8-3.5-4.3-4.6-6.9c-1.3-2.9-2.5-5.8-3.7-8.7c-0.7-1.7-1.3-3.3-1.9-5
				c-1-2.7-1.9-5.4-2.8-8c-0.6-1.8-1.2-3.5-1.7-5.3c-0.5-1.5-1-2.9-1.7-4.3c-0.2-0.5-0.5-0.9-0.7-0.9c-0.3,0-0.4,0.9-0.4,1.3
				c0,0.5,0.1,1,0.1,1.4c0,1.7,0.2,3.2,0.3,4.9c0.1,3.2,0.3,6.4,0.6,9.6c0.1,1,0.1,1.9,0.1,2.9c0,2.1-0.1,4.3-0.1,6.4
				c0,2.5-0.2,5-0.2,7.5c0,0.8,0,1.5,0.1,2.3c0,0.9-0.2,1.8-0.3,2.8c1.8-0.1,3.4-0.1,4.3-0.1c1,0,2.8,0.1,2.8,1.5
				c0,0.8-0.1,1.1-0.5,1.7c-0.3,0.5-0.8,0.7-1.3,0.9c-0.7,0.2-1.2,0.3-1.6,0.3c-0.2,0-2,0-3.7,0c-1.6,0-3.1,0-3.4,0
				c-1.1,0-3.2,0.1-4.3,0.1c-0.6,0-1.2,0-1.8-0.1c-0.6-0.1-1.4-0.1-2-0.4c-0.6-0.3-1.2-1.2-1.2-1.6c0-0.2,0-0.5,0.3-0.8
				c0.4-0.4,1.2-0.7,1.6-0.8c1.4-0.3,3.8-0.5,4.4-0.5c0.3,0,0.6,0,1,0c0.1-4.2,0.3-8.2,0.3-12.5c0-1.2,0-2.4-0.1-3.7
				c-0.2-4.4-0.3-8.7-0.3-13c0-2.5,0-5,0.1-7.5c0.1-2.8,0.1-5.5,0.2-8.3c0.1-3.3,0.2-6.6,0.3-9.9c-1,0-2.1,0-3,0
				c-0.6,0-1.2,0-1.8-0.1c-0.6-0.1-1.4-0.1-2-0.4c-0.6-0.3-1.2-1.2-1.2-1.6c0-0.2,0-0.5,0.3-0.8c0.4-0.4,1.2-0.7,1.6-0.8
				c1.4-0.3,4.9-0.5,5.4-0.5c0.6,0,1.8-0.1,3-0.1c0.6-0.5,1.1-0.9,1.7-1.4c0.7-0.5,1.6-0.8,2.5-0.8c1.3,0,2.6,0.6,3.3,1.8
				c0.6,1,1.3,1.9,1.7,3c0.6,1.4,0.9,2.9,1.6,4.2c0.5,1.2,0.9,2.4,1.4,3.6c0.5,1.3,1.2,2.6,1.5,4c0.4,1.4,0.8,2.7,1.2,4.1
				c0.4,1.3,0.3,2.5,1.1,3.7c1.5,2.4,2.7,5.2,3.4,7.9c0.3,1.4,0.7,2.6,1.3,3.8c0.7,1.4,0.9,2.8,1.2,4.2c0.3,1.4,0.9,2.6,1.6,3.8
				c0.3,0.6,0.7,1.1,1,1.7c0.3,0.6,0.3,1.3,0.6,1.9c0.3,0.8,0.5,1.9,0.9,2.7c0.2,0.4,0.4,0.6,0.6,0.6c0.2,0,0.4-0.2,0.5-0.7
				c0.1-0.3,0.1-0.6,0.1-0.9c0-1.6-0.1-3.3-0.1-4.9c0-3.4,0.2-6.7,0-10c-0.1-3.1-0.7-6.1-0.7-9.2c0-2.2,0-4.3,0-6.5
				c0-1.3,0-2.5,0-3.8c0-1.9-0.1-3.9-0.1-5.8c0-1,0-2,0.2-3c-0.9,0-2,0.1-2.9,0.1c-0.6,0-1.2,0-1.8-0.1c-0.6-0.1-1.4-0.1-2-0.4
				c-0.6-0.3-1.2-1.2-1.2-1.6c0-0.2,0-0.5,0.3-0.8c0.4-0.4,1.2-0.7,1.6-0.8c1.4-0.3,4.9-0.5,5.4-0.5c0.5,0,1.2,0,2.2,0
				c0.5-0.5,1.1-0.8,1.9-0.8c0.8,0,1.3,0.3,1.5,0.7C129.2,281.3,130.7,281.3,131.5,281.3L131.5,281.3z"/>
			<path class="st0" d="M183.4,343.2c0,0.6-0.4,0.8-0.8,1.3c-0.4,0.5-1,0.7-1.6,0.9c-1,0.2-1.7,0.3-2.4,0.3c-0.7,0-1.3-0.1-2.2-0.1
				c-0.2,0-0.4,0-0.8,0c-0.4,0.2-0.9,0.3-1.4,0.4c-0.5,0.1-1.1,0.2-1.6,0.2c-1.2,0-2.4-0.2-3.5-0.6c-0.8,0-1.5,0-2.2,0
				c-2.2,0-4.1,0-4.9-0.1c-0.8-0.1-1.8-0.1-2.5-0.4c-0.5-0.2-1.6-0.9-1.6-1.6c0-1.2,1.6-1.4,2.5-1.6c0.4-0.1,1.4-0.1,2.7-0.2
				c-0.1-0.7-0.1-1.4-0.2-1.9c-0.1-0.9-0.1-1.8-0.3-2.6c-0.1-0.4-0.2-0.8-0.2-1.3c0-0.4,0.2-1.1,0.2-1.5c0-0.5-0.3-0.9-0.5-1.6
				c-0.1-1.1-0.5-2.1-0.6-3.2c-0.1-1-0.1-1.8-0.3-2.8c-0.2-1.1-0.2-2.1-0.4-3.2c-0.1-0.6-0.2-0.9-0.7-0.9c-0.2,0-0.5,0.1-1,0.1
				c-1.1,0-2.1,0.1-3.1,0.2c-1,0.1-2,0.2-3.1,0.2c-0.9,0-1.7,0.1-2.6,0.1c-0.4,0-1.5-0.2-2.3-0.2c-0.9,0-0.9,0.7-0.9,1.3
				c0,1-0.4,2.3-0.6,3.4c-0.4,1.8-0.7,3.6-1.1,5.5c-0.4,2-1.2,5.4-1.7,7.3c0.9,0,1.8-0.1,3.1-0.1c1.3,0,3.5,0.1,3.7,1.7
				c-0.1,0.7-0.2,1-0.6,1.5c-0.4,0.5-1,0.7-1.6,0.9c-0.9,0.2-1.5,0.3-2.1,0.3c-0.6,0-1.2-0.1-2.2-0.1c-1.4,0-2.8,0.1-4.3,0.1
				c-0.8,0-1.6,0-2.3-0.1c-0.8-0.1-1.8-0.1-2.5-0.4c-0.8-0.3-1.6-1.2-1.6-1.6c0-0.2,0-0.5,0.4-0.8c0.4-0.4,1.5-0.7,2.1-0.8
				c1.3-0.2,2.6-0.3,3.9-0.4c0-0.1,0-0.2,0-0.2c0-1.1,0.3-2.4,0.4-2.9c0.4-2.3,0.8-4.4,1.2-6.6c0.3-1.7,0.6-3.5,1-5.4
				c0.1-0.4,0.5-1.8,0.5-2.6c0-0.9-1.9-0.9-2.7-1.3c-0.7-0.3-1-0.6-1-1.1c0-0.9,0.8-1.1,1.8-1.3c0.6-0.1,2-0.2,2.7-0.8
				c0.5-0.4,0.5-2.1,0.7-2.9c0.6-2.1,1.2-4.3,1.7-6.3c0.6-2.3,1.2-4.4,1.7-6.5c0.5-2.1,1-4.3,1.4-6.4c0.4-2,0.7-4.1,1.4-6
				c0.7-2,1.4-4.3,2.4-6.2l0.9-1.9c0.4-0.9,0.7-1.8,1.6-2.5c1.5-1.1,3.7-1.4,5.7-1.4c1.3,0,2,0.2,3,0.6c1,0.4,1,1.1,1.6,2
				c0.4,0.6,1.1,1.2,1.4,1.8c0.3,0.8,0.4,1.5,0.6,2.3c0.5,1.5,0.4,3.2,0.7,4.8c0.4,1.7,1.1,3.2,1.3,4.9c0.3,2,0.4,3.9,0.9,5.8
				c0.5,1.8,0.8,3.6,1,5.6c0.1,0.9,0.2,1.8,0.4,2.7c0.3,1.2,0.6,2.4,0.7,3.6c0.1,0.5,0.2,1.6,0.5,2.7c0.2,0.9,0.5,1.7,0.9,2
				c0.2,0.2,0.7,0.2,1.2,0.2c0.4,0,0.8,0,1.1,0c1,0,2.1,0.3,2.7,1.2c0.2,0.3,0.3,0.5,0.3,0.8c0,0.3-0.2,0.6-0.6,1
				c-0.6,0.5-1.2,1.2-1.9,1.5c-0.2,0.1-0.7,0.1-1.1,0.2c-0.3,0-0.6,0.1-0.8,0.2c-0.1,0.1-0.1,0.2-0.1,0.4c0,0.3,0.1,0.7,0.2,1.2
				c0.1,0.5,0.2,1,0.2,1.4l0,1.2c0,0.4,0,0.7,0.1,1.2c0.2,1,0.6,1.9,0.7,2.9c0.1,0.9,0.4,1.9,0.6,2.9c0.2,1,0.5,2,0.5,3
				c0,1.4,0.1,2.1,0.5,3.4c0.1,0.4,0.2,0.8,0.3,1.2c0.8,0,1.6,0,2.5,0C181.9,341.3,183.4,342,183.4,343.2L183.4,343.2z M159.8,317.2
				c0-0.4-0.2-1.4-0.2-1.8c-0.2-1.4-0.5-2.4-0.5-3.6c-0.1-2.9-0.1-5.9-0.3-8.8c-0.1-1.4-0.3-2.7-0.5-4.1c-0.2-1.5-0.5-3.1-0.5-4.7
				c0-0.5-0.1-2.4-0.2-3.8c-0.1-1.3-0.4-2.2-0.8-2.2c-0.8,0-1.7,1.7-1.8,2.1c-0.3,1.1-0.5,2.3-0.8,3.4c-0.1,0.6-0.2,1.1-0.2,1.6
				c-0.1,0.6-0.1,1.1-0.3,1.7c-0.4,1.2-0.5,2.5-0.7,3.6c-0.4,2.5-1.2,4.8-1.9,7.2c-0.3,1.1-0.5,2.2-0.7,3.4c-0.2,1.3-0.5,2.6-1,3.9
				c-0.2,0.5-0.6,2.2-0.6,2.9c0,0.3,0.2,0.3,0.7,0.3c0.6,0,1.8-0.1,2.1-0.1c0.8,0,1.5-0.1,2.3-0.2c0.6-0.1,1.2-0.1,1.8-0.1
				c0.6,0,1.5,0.1,2.4,0.1c0.5,0,1.1,0,1.5-0.2C159.6,317.7,159.8,317.4,159.8,317.2z"/>
			<path class="st0" d="M220,341.2c0,1.1,0,4.1-1.7,4.1c-0.7,0-1.1-0.2-1.6-0.7c-0.5-0.4-0.7-1-0.8-1.6c-0.4-1.7-0.2-3.3-0.1-4.7
				c-0.7,1-1.9,2.8-2.7,3.6c-2.3,2.1-4.8,3.5-8.3,3.5c-0.7,0-1.4-0.1-2.2-0.2c-2.3-0.4-4.8-1.2-7-2.3c-1.8-0.9-3.4-2.1-4.7-3.5
				c-1.4-1.5-2.4-3.4-3.2-5.2c-0.8-2.1-1.3-4.2-1.6-6.5c-0.3-2.4-0.5-4.8-0.5-7.2c0-2.4,0.1-4.7,0.3-7.1c0.2-2.2,0.1-4.5,0.5-6.7
				c0.4-2.3,1.2-4.6,2-6.9c0.8-2.4,1.5-4.7,2.4-6.9c0.9-2.1,2.2-3.8,3.7-5.5c1.4-1.6,2.7-3.5,4.3-4.9c1.6-1.4,3.5-2,5.5-2.5
				c1.4-0.4,3-0.8,4.5-0.8c0.6,0,1.2,0.1,1.8,0.2c0.8,0.2,1.4,0.9,2,1.4c0.9,0.7,0.9,1.4,1.7,2.2c0.5,0.5,0.9,1.6,1.2,2.3
				c0-0.9,0.1-2.1,0.1-2.6c0.1-0.8,0.1-1.8,0.5-2.5c0.2-0.4,0.3-0.6,0.7-1c0.2-0.2,0.6-0.5,0.9-0.5c0.3,0,0.7,0.4,0.8,0.5
				c0.4,0.6,0.7,1.4,0.8,2c0.1,0.8,0.2,2.5,0.2,4.4c0.1,2.5,0.1,5.2,0.2,6.2c0.2,2.1,0.2,3.1,0.2,5.2c0,0.2,0,0.5,0,0.7
				c0,0.4,0,0.9-0.1,1.3c-0.2,1.1-0.6,2.1-1.6,2.1c-0.7,0-1.1-0.2-1.6-0.7c-0.5-0.4-0.7-1-0.8-1.6c-0.5-2-0.1-2.4-0.1-4.5
				c0-0.2,0-0.6,0-0.9c-0.4-1.9-1-3.7-1.7-5.6c-0.5-1.6-2.7-4.1-4.7-4.1c-1.1,0-2.2,0.7-3.1,1.4c-0.4,0.3-0.7,0.7-1,1
				c-0.3,0.3-0.8,0.6-1,1c-0.4,0.7-0.1,1.8-0.4,2.5c-0.4,1.1-0.7,2.1-1,3.3c-0.4,2.1-0.9,4.2-1.3,6.4c-0.4,2.1-0.7,4.3-0.6,6.5
				c0,0.4,0.1,0.8,0.1,1.1c0,0.6-0.3,0.9-0.3,1.5c0,0.6,0.2,1.2,0.2,1.9c0,0.3,0,0.6-0.1,1c-0.2,0.6-0.3,0.8-0.3,1.2
				c0,0.2,0,0.5,0.1,0.9c0.1,0.4,0.1,0.7,0.1,1.1c0,0.6-0.1,1.2-0.1,1.8c0,2.4,0.9,4.6,0.9,7c0.1,2.4,0.2,4.7,0.7,7
				c0.2,1,0.2,2.1,0.5,3c0.3,1,1.1,1.7,1.5,2.7c0.8,1.9,2.1,3.3,4.3,3.3c2,0.1,4.6-2.2,5.5-3.8c0.7-1.2,1.3-2.2,1.7-3.6
				c0-2.8,0.1-6,0.2-7c0.1-0.8,0.1-1.8,0.5-2.5c0.2-0.4,0.3-0.6,0.7-1c0.2-0.2,0.6-0.5,0.9-0.5c0.3,0,0.7,0.4,0.8,0.5
				c0.4,0.6,0.7,1.4,0.8,2c0.1,0.8,0.2,4.7,0.2,6.6c0.1,2.5,0.1,5.2,0.2,6.2C220,338.1,220.1,339.1,220,341.2z"/>
			<path class="st0" d="M255,307.6c-0.7,1.2-2,2.6-2,3.9c0,0.9,1.8,1,3.6,1.8c1.9,0.8,4.2,2.7,5.1,4.5c0.5,1,1,2,1.5,3.1
				c0.5,1.2,0.9,2.3,1.1,3.6c0.2,1.3,0.4,2,0.9,3.2c0.5,1.1,0.6,2.5,0.9,3.7c0.2,0.9,0.2,2.1,0.5,3c0.2,0.5,0.6,0.8,0.9,1.3
				c0.3,0.5,0.7,1,0.9,1.6c0.3,1,0.9,1.8,1.3,2.8c0.5,1.1,1,1.3,2.1,1.9c0.6,0.3,1.1,1,1.1,1.7c0,0.2-0.1,0.5-0.2,0.7
				c-0.4,0.8-1.9,1.2-3.2,1.2c-1.3,0-3.2-0.2-5-0.7c-1.9-0.5-4-2.5-4.9-3.4c-0.9-0.8-1.5-1.7-2-2.6c-0.6-1-1-2-1.5-3.2
				c-1-2.2-1.2-3.7-1.9-6c-0.5-1.6-0.8-3.2-1.2-4.8c-0.2-1-0.5-1.9-0.8-2.9c-0.1-0.4-0.5-1.4-0.9-2.2c-0.5-1.1-1-2-1.8-2
				c-0.3,0-0.6,0.2-1,0.5c-0.6,0.6-1.2,1.4-1.7,2.1c-0.7,1-1.1,2.2-1.3,3.4c-0.1,0.7-0.2,1.6-0.2,2.3c0,0.2,0,0.3,0,0.5
				c0.1,0.6,0.1,2.2,0.1,3.2c0,2.9,0.2,4.7,0,7.6c-0.1,1-0.1,2-0.3,2.9c1,0,1.9,0,2.4,0c1.3,0,3.8,0.1,3.8,1.5
				c0,0.8-0.2,1.1-0.7,1.7c-0.4,0.5-1.1,0.7-1.7,0.9c-1,0.2-1.6,0.3-2.1,0.3c-0.3,0-1.8,0-3.7,0c-0.6,0.5-1.3,0.7-2.1,0.7
				c-0.9,0-1.8-0.3-2.7-0.7c-0.8,0-1.3,0-1.5,0c-1.5,0-3.8,0-5.3,0c-0.8,0-1.6,0-2.4-0.1c-0.8-0.1-1.9-0.1-2.6-0.4
				c-0.8-0.3-1.6-1.2-1.6-1.6c0-0.2,0.1-0.5,0.4-0.8c0.5-0.4,1.5-0.7,2.2-0.8c1.8-0.3,3.8-0.5,4.5-0.5c0.5,0,1.2,0,2,0
				c-0.1-0.2-0.2-0.4-0.3-0.6c-1.2-2.2-1.4-4.5-1.4-7c0-2.9,0.1-5.8,0.1-8.7c0.1-3.1,0.2-6.3,0.2-9.4c0-2.6-0.2-5.2-0.2-7.9
				c0-2.5,0.3-4.9,0.3-7.5c0-1.5,0.2-3,0.2-4.6c0-1.2-0.2-2.4-0.2-3.6c-0.1-2.1,0-4.1,0-6.1c-0.3,0-0.1,0.1-1.1,0.1
				c-0.8,0-1.6,0-2.4-0.1c-0.8-0.1-1.9-0.1-2.6-0.4c-0.8-0.3-1.6-1.2-1.6-1.6c0-0.2,0.1-0.5,0.4-0.8c0.5-0.4,1.6-0.7,2.2-0.8
				c1.8-0.3,4.4-0.4,5.2-0.4c0.1,0,0.4,0,0.7,0c0.5-0.7,1.4-1.1,2.4-1.1c0.3,0,0.5,0,0.8,0.1c0.8,0.1,1.9,0.5,2.8,0.9
				c3.3-0.1,6.9-0.1,8.1-0.1c1.3,0,3.8,0.1,3.8,1.5c0,0.8-0.2,1.1-0.7,1.7c-0.4,0.5-1.1,0.7-1.7,0.9c-1,0.2-1.6,0.3-2.2,0.3
				c-0.5,0-2.4,0-4.6,0c0.4,0.8,0.8,1.6,0.8,2.5c0,0.5-0.1,0.9-0.1,1.5c0,0.4,0.1,0.5,0.2,0.9c0.2,1,0.2,2.1,0.4,3.1
				c0.1,0.3,0.1,0.7,0.1,1c0,0.7-0.1,1.4-0.1,2.1c0,1.4,0.3,2.9,0.5,4.3c0.1,1.1,0.6,2.2,0.8,3.3c0.2,0.9,0.3,1.7,0.3,2.6
				c0,0.3,0,0.6,0,0.9c-0.1,0.7-0.1,1.3-0.1,2c0,0.6-0.1,1.4-0.1,2c0,0.4,0.1,1.3,0.6,1.3c0.4,0,0.9-0.8,1.2-1.3
				c0.6-1.2,1.2-2.5,1.8-3.7c0.4-0.9,0.9-1.8,1.4-2.7c0.9-1.5,1.8-3,2.6-4.6c0.7-1.2,1.3-2.5,2-3.7c0.9-1.7,1.8-3.4,2.6-5.1
				c1-1.9,1.9-3.8,2.8-5.6c0.1-0.2,0.1-0.3,0.2-0.4c-0.5,0-1,0-1.5-0.1c-0.6-0.1-1.3-0.1-1.9-0.4c-0.6-0.3-1.2-1.2-1.2-1.6
				c0-0.2,0-0.5,0.3-0.8c0.3-0.4,1.1-0.7,1.6-0.8c1.3-0.3,2.8-0.5,3.7-0.5c0.4,0,0.8,0,1.4,0c0.1-0.1,0.2-0.2,0.4-0.2
				c0.5-0.3,0.9-0.4,1.4-0.4c0.5,0,0.9,0.1,1.5,0.2c0.3,0.1,0.5,0.1,0.6,0.3c1.8-0.1,3.5-0.1,4.4-0.1c0.9,0,2.7,0.1,2.7,1.5
				c0,0.8-0.1,1.1-0.5,1.7c-0.3,0.5-0.8,0.7-1.2,0.9c-0.7,0.2-1.1,0.3-1.5,0.3c-0.2,0-2.2,0-4.2,0c-0.4,0.8-0.7,1.4-1.2,2.2
				c-1,1.9-1.8,3.9-2.8,5.8c-1.1,2.2-1.9,4.7-2.9,6.9C257.8,303,256.4,305.3,255,307.6z"/>
			<path class="st0" d="M298.5,340.5c1.3,0,3.9,0.1,3.8,1.7c-0.1,0.7-0.2,1-0.7,1.5c-0.4,0.5-1.1,0.7-1.7,0.9
				c-1,0.2-1.6,0.3-2.1,0.3c-0.3,0-2.2-0.1-4.2,0c-2.5,0-5.1,0.2-5.7,0.2c-1.5,0-3.9-0.1-5.4-0.1c-0.8,0-1.6,0-2.4-0.1
				c-0.8-0.1-1.9-0.1-2.6-0.4c-0.8-0.3-1.6-1.2-1.6-1.6c0-0.2,0.1-0.5,0.4-0.8c0.5-0.4,1.6-0.7,2.2-0.8c1.8-0.3,4-0.5,4.7-0.5
				c0.2,0,0.6,0,1,0c-0.7-0.6-1.2-1.4-1.2-2.3c0-0.5-0.1-1-0.2-1.5c-0.1-0.3-0.1-0.7-0.1-1c0-0.3,0-0.6,0-0.9c0-0.9,0.1-1.8,0.1-2.7
				c0-0.4,0-0.7,0-1.1c-0.1-5,0.2-9.9,0-14.9c-0.1-2.6,0-5.2,0.1-7.9c0.1-2.3,0.2-4.5,0.2-6.8c0-1.2,0-2.5,0-3.7c0-1.6,0-3.1,0-4.7
				c0-2.2-0.1-4.4,0-6.6c0-0.3,0-0.6,0.1-1c-0.2,0-0.4,0-0.7,0c-0.8,0-1.6,0-2.4-0.1c-0.8-0.1-1.9-0.1-2.6-0.4
				c-0.8-0.3-1.6-1.2-1.6-1.6c0-0.2-0.1-0.5,0.2-0.9c0.4-0.4,1.7-0.6,2.3-0.7c1.7-0.2,4.1-0.4,4.9-0.5c0-0.2,0-0.4,0-0.6
				c0-0.5,0.1-0.9,0.3-1.2c0.3-0.3,1-0.6,1.4-0.8c0.5-0.2,1.1-0.4,1.6-0.5c0.5-0.1,1-0.1,1.5-0.1c0.7,0,1.3,0.1,2,0.2
				c1.6,0.4,2.9,1.4,3.6,2.8c2.1,0,3.9-0.1,4.8-0.1c1.3,0,3.9,0.1,3.8,1.7c-0.1,0.7-0.2,1-0.7,1.5c-0.4,0.5-1.1,0.7-1.7,0.9
				c-1,0.2-1.6,0.3-2.1,0.3c-0.2,0-1.4,0-3,0l0,0.2c0.2,1.2,0.4,2.4,0.5,3.6c0.2,1.2,0.3,2.4,0.3,3.6c0,1.2-0.1,2.3-0.1,3.5
				c0,0.6-0.1,1.2-0.1,1.8c0,0.5,0.1,1,0.2,1.5c0.4,2.4,0.3,5,0.4,7.4c0.1,2.7,0.2,5.5,0.2,8.2c0,2.2,0.1,4.5,0.2,6.7
				c0.1,2.5,0.5,5,0.5,7.5c0,1.2,0.1,2.4,0.1,3.6c0,1.3,0,2.5,0,3.8c-0.1,1.1-0.1,2.4-0.5,3.4C297.4,340.5,298.1,340.5,298.5,340.5
				L298.5,340.5z"/>
			<path class="st0" d="M350.9,281.3c1,0,2.8,0.1,2.8,1.5c0,0.8-0.1,1.1-0.5,1.7c-0.3,0.5-0.8,0.7-1.3,0.9c-0.7,0.2-1.2,0.3-1.6,0.3
				c-0.2,0-1.5,0-3,0c0.1,0.7,0.2,1.4,0.2,2.2c0,1.2-0.2,2.3-0.2,3.5c0,1.8,0.3,3.5,0.5,5.3c0.2,1.8,0.3,3.5,0.3,5.3
				c0,1.5,0.1,2.9,0.1,4.4c0.1,1.5,0.3,3.1,0.3,4.6c0,1.6-0.4,3.1-0.4,4.6c0,1.5,0,3,0,4.5c0,1.8,0,3.6-0.2,5.4
				c-0.1,1.4-0.1,2.9-0.1,4.3c-0.1,1.5-0.2,2.9-0.2,4.4c0,1.4,0.5,3.1,0.5,4.7c0,1.1-0.2,2.1-1.1,2.9c-1.3,1.2-2.9,1.6-4.6,1.6
				c-1.3,0-2.7-0.4-4-0.9c-1.4-0.5-2.7-1.1-3.7-1.9c-2.2-1.8-3.5-4.3-4.6-6.9c-1.3-2.9-2.5-5.8-3.7-8.7c-0.7-1.7-1.3-3.3-1.9-5
				c-1-2.7-1.9-5.4-2.8-8c-0.6-1.8-1.2-3.5-1.7-5.3c-0.5-1.5-1-2.9-1.7-4.3c-0.2-0.5-0.5-0.9-0.7-0.9c-0.3,0-0.4,0.9-0.4,1.3
				c0,0.5,0.1,1,0.1,1.4c0,1.7,0.2,3.2,0.3,4.9c0.1,3.2,0.3,6.4,0.6,9.6c0.1,1,0.1,1.9,0.1,2.9c0,2.1-0.1,4.3-0.1,6.4
				c0,2.5-0.2,5-0.2,7.5c0,0.8,0,1.5,0.1,2.3c0,0.9-0.2,1.8-0.3,2.8c1.8-0.1,3.4-0.1,4.3-0.1c1,0,2.8,0.1,2.8,1.5
				c0,0.8-0.1,1.1-0.5,1.7c-0.3,0.5-0.8,0.7-1.3,0.9c-0.7,0.2-1.2,0.3-1.6,0.3c-0.2,0-2,0-3.7,0c-1.6,0-3.1,0-3.4,0
				c-1.1,0-3.2,0.1-4.3,0.1c-0.6,0-1.2,0-1.8-0.1c-0.6-0.1-1.4-0.1-2-0.4c-0.6-0.3-1.2-1.2-1.2-1.6c0-0.2,0-0.5,0.3-0.8
				c0.4-0.4,1.2-0.7,1.6-0.8c1.4-0.3,3.8-0.5,4.4-0.5c0.3,0,0.6,0,1,0c0.1-4.2,0.3-8.2,0.3-12.5c0-1.2,0-2.4-0.1-3.7
				c-0.2-4.4-0.3-8.7-0.3-13c0-2.5,0-5,0.1-7.5c0.1-2.8,0.1-5.5,0.2-8.3c0.1-3.3,0.2-6.6,0.3-9.9c-1,0-2.1,0-3,0
				c-0.6,0-1.2,0-1.8-0.1c-0.6-0.1-1.4-0.1-2-0.4c-0.6-0.3-1.2-1.2-1.2-1.6c0-0.2,0-0.5,0.3-0.8c0.4-0.4,1.2-0.7,1.6-0.8
				c1.4-0.3,4.9-0.5,5.4-0.5c0.6,0,1.8-0.1,3-0.1c0.6-0.5,1.1-0.9,1.7-1.4c0.7-0.5,1.6-0.8,2.5-0.8c1.3,0,2.6,0.6,3.3,1.8
				c0.6,1,1.3,1.9,1.7,3c0.6,1.4,0.9,2.9,1.6,4.2c0.5,1.2,0.9,2.4,1.4,3.6c0.5,1.3,1.2,2.6,1.5,4c0.4,1.4,0.8,2.7,1.2,4.1
				c0.4,1.3,0.3,2.5,1.1,3.7c1.5,2.4,2.7,5.2,3.4,7.9c0.3,1.4,0.7,2.6,1.3,3.8c0.7,1.4,0.9,2.8,1.2,4.2c0.3,1.4,0.9,2.6,1.6,3.8
				c0.3,0.6,0.7,1.1,1,1.7c0.3,0.6,0.3,1.3,0.6,1.9c0.3,0.8,0.5,1.9,0.9,2.7c0.2,0.4,0.4,0.6,0.6,0.6c0.2,0,0.4-0.2,0.5-0.7
				c0.1-0.3,0.1-0.6,0.1-0.9c0-1.6-0.1-3.3-0.1-4.9c0-3.4,0.2-6.7,0-10c-0.1-3.1-0.7-6.1-0.7-9.2c0-2.2,0-4.3,0-6.5
				c0-1.3,0-2.5,0-3.8c0-1.9-0.1-3.9-0.1-5.8c0-1,0-2,0.2-3c-0.9,0-2,0.1-2.9,0.1c-0.6,0-1.2,0-1.8-0.1c-0.6-0.1-1.4-0.1-2-0.4
				c-0.6-0.3-1.2-1.2-1.2-1.6c0-0.2,0-0.5,0.3-0.8c0.4-0.4,1.2-0.7,1.6-0.8c1.4-0.3,4.9-0.5,5.4-0.5c0.5,0,1.2,0,2.2,0
				c0.5-0.5,1.1-0.8,1.9-0.8c0.8,0,1.3,0.3,1.5,0.7C348.6,281.4,350.1,281.3,350.9,281.3L350.9,281.3z"/>
			<path class="st0" d="M398.1,317.3c0,1-1.1,1.7-1.9,2.1c-1.2,0.5-2.9,0.8-4.1,1c-1.1,0.1-1.8,0.2-1.8,1.3c0,0.8,0.2,2.6,0.2,3.3
				c0,0.4,0,2.9,0,3.2c0,0.7,0,1.4,0.1,2.2c0.1,2.5,0.1,5.5,0.2,6.5c0.2,2.1,0.2,3.1,0.2,5.2c0,1.1,0,4.1-1.7,4.1
				c-0.7,0-1.1-0.2-1.6-0.7c-0.5-0.4-0.7-1-0.8-1.6c-0.2-0.7-0.2-1.3-0.2-1.7c0-0.8,0.2-1.4,0.1-2.7l0-0.3c-0.6,2-1.9,3.7-3.7,5.1
				c-2.5,1.9-4.4,2.8-7.6,2.8c-1.9,0-3.8-0.3-5.6-0.9c-2.1-0.7-3.8-1.9-5.3-3.3c-2.1-2.1-3.6-4.7-5-7.5c-1.1-2.1-1.7-4.3-2.1-6.5
				c-0.3-1.5-0.5-3.1-0.7-4.6c-0.2-1.5-0.1-2.6-0.1-4c0-5.4,1.4-10.8,2.8-16.8c0.6-2.7,1.2-5.4,2.1-8.1c0.9-2.8,2.1-5.6,3.8-8
				c1.5-2.1,3.2-4.4,5.1-6.1c0.9-0.8,1.9-1.3,3-1.6c1.4-0.4,2.7-1.2,4.2-1.2c0.3,0,0.5,0,0.7,0c0.7,0,1.1,0.1,2.1,0.2
				c1.3,0.2,2.5,0.5,3.4,1.1c0.9,0.5,1.5,1.3,2,2.1c0.1-0.6,0.1-1.3,0.4-1.8c0.2-0.4,0.3-0.6,0.7-1c0.2-0.2,0.6-0.5,0.9-0.5
				c0.3,0,0.7,0.4,0.8,0.5c0.4,0.6,0.7,1.4,0.8,2c0.1,0.8,0.2,2.5,0.2,4.4c0.1,2.5,0.1,5.2,0.2,6.2c0.2,2.1,0.2,3.1,0.2,5.2
				c0,1.1,0,4.1-1.7,4.1c-0.7,0-1.1-0.2-1.6-0.7c-0.5-0.4-0.7-1-0.8-1.6c-0.1-0.6-0.1-1.1-0.1-1.7c0-0.8,0.1-1.6,0.1-2.7
				c-0.1-0.7-0.1-1.3-0.2-2c-0.2-1.5-0.4-2.9-0.6-4.4c-0.2-1.3-0.8-2.6-1.6-3.9c-0.5-0.9-1.9-1.2-2.9-1.2c-1.4,0-2.3,0.7-3,1.8
				c-0.7,1.1-1.6,2-2.1,3.2c-0.4,1.3-0.7,2.7-0.8,4c-0.1,1.4-0.4,2.5-0.8,3.9c-0.4,1.5-0.5,3-0.8,4.5c-0.3,1.3-0.4,2.7-0.5,4
				c-0.1,1.3-0.5,2.5-0.6,3.7c-0.2,1.4-0.3,2.9-0.5,4.3c-0.2,1.4-0.3,2.7-0.5,4.1c-0.1,1.2-0.3,2.4-0.3,3.7c0,1.7,0.2,3.5,0.3,5.2
				c0.1,2.3,0.8,4.7,1.3,7c0.2,0.9,0.4,1.8,0.6,2.7c0.3,1.2,0.8,2.3,1.4,3.3c0.9,1.5,2.6,3.2,4.5,3.2c1.6,0,2.8-1.3,3.6-2.5
				c1.3-1.9,2-4,2.4-6.2c0.4-1.9,0.5-3.9,0.7-5.9c0.1-1.4,0.1-3.2,0.1-4.6c0-0.2,0-0.5,0-0.8c0-1,0-1.4-1.5-1.4
				c-1.2,0-2.5,0.2-3.7,0.2c-1.1,0-2.2-0.1-3.1-0.6c-0.4-0.2-0.6-0.4-0.7-0.7c0-0.2,0.1-0.5,0.4-0.7c0.6-0.6,1.2-0.7,1.9-1.1
				c1.3-0.7,2.8-0.8,4.4-1.1c1.4-0.2,2.8-0.3,4.1-0.4c1.1-0.1,2.2-0.1,3.2-0.1c1.6,0,4.2-0.2,5.2-0.2
				C396.7,315.7,398.1,316.1,398.1,317.3z"/>
			<path class="st0" d="M469.1,340.5c1.3,0,3.8,0.1,3.8,1.5c0,0.8-0.2,1.1-0.7,1.7c-0.4,0.5-1.1,0.7-1.7,0.9c-1,0.2-1.6,0.3-2.2,0.3
				c-0.2,0-1.4,0-3,0c-1.4,0.8-3,1.2-4.6,1.2c-1,0-1.9-0.2-2.7-0.6c-0.4-0.2-0.8-0.4-1.2-0.7c-1.3,0-2.4,0.1-3.8,0.1
				c-0.8,0-1.6,0-2.4-0.1c-0.8-0.1-1.9-0.1-2.6-0.4c-0.8-0.3-1.6-1.2-1.6-1.6c0-0.2,0.1-0.5,0.4-0.8c0.5-0.4,1.6-0.7,2.2-0.8
				c1.8-0.3,4.4-0.5,5.1-0.5c0.1,0,0.2,0,0.4,0c-0.1-0.4-0.2-0.9-0.3-1.3c-0.4-2.6-0.6-5.3-0.9-8.6c-0.2-3.4-0.1-6.8-0.3-10.1
				c-0.1-3-0.2-6-0.3-9c-0.1-2.9-0.1-5.9-0.3-8.8c-0.1-2.7-0.3-6.4-0.3-7.4c0-0.5-0.1-0.7-0.3-0.7c-0.1,0-0.2,0.1-0.3,0.4
				c-0.3,1.2-0.4,2.4-0.7,3.7c-0.6,2.7-1.1,5.4-1.7,8c-0.6,2.6-1.3,5.2-1.6,7.8c-0.2,1.3-0.5,2.6-0.8,3.9c-0.3,1.3-0.7,2.6-1,3.9
				c-0.3,1.4-0.5,2.9-1.2,3.9c-0.6,0.9-1.7,1.6-3.5,1.6c-2,0-4.2-0.8-5.6-2.1c-1.9-1.8-2.5-4.7-3.1-7.1c-0.7-2.7-1.2-5.4-1.7-8.1
				c-0.1-0.5-0.6-2.9-1.1-5.7c-0.5-2.6-1.1-5.6-1.7-8.1c-0.4-1.8-0.8-3.4-1.1-4.2c-0.2-0.5-0.2-0.6-0.3-0.6c-0.2,0-0.3,0.6-0.4,1.7
				c-0.1,0.9-0.1,2.2-0.1,2.5c-0.1,1.2-0.2,2.4-0.2,3.6c0,1-0.1,2.6-0.2,4.4c-0.1,1.6-0.2,3.4-0.3,4.8c-0.1,1.3-0.2,2.6-0.2,3.9
				c0,1.1-0.2,2.2-0.2,3.3c0,0.9,0,1.7,0,2.6c0,0.8,0,1.6-0.1,2.3c-0.2,1.5-0.4,3-0.7,4.5c-0.5,3-0.8,6-1,9c-0.1,1.3,0,2.9-0.2,4.5
				c0,0.5-0.1,0.9-0.2,1.4c2.2-0.1,4.2-0.1,5.1-0.1c1,0,3.2,0.3,3.2,1.8c0,0.9-0.6,0.8-1,1.4c-0.3,0.5-0.9,0.7-1.4,0.9
				c-0.8,0.2-1.3,0.3-1.7,0.3c-0.5,0-5.7-0.1-6.5-0.1c-1.2,0-4.6,0.1-5.8,0.1c-0.7,0-1.3,0-2-0.1c-0.6-0.1-1.5-0.1-2.1-0.4
				c-0.7-0.3-1.1-1.2-1.1-1.6c0-0.2,0-0.5,0.4-0.8c0.4-0.4,1-0.7,1.6-0.8c1.5-0.3,4.4-0.5,5-0.5c0.3,0,0.9,0,1.6,0
				c0.1-2.6,0.4-5.2,0.6-7.8c0.3-3.2,0.4-6.5,0.6-9.8c0.1-2.7,0.3-5.4,0.4-8.2c0.2-3.9,0.4-7.7,0.6-11.6c0.1-1.9,0.3-3.9,0.5-5.8
				c0.3-3.1,0.7-5,1.1-8c0.2-1.4,0.3-3.1,0.5-4.5c0-0.1,0-0.2,0.1-0.4c-0.6,0-1.1,0.1-2.1,0.1c-0.8,0-1.6,0-2.4-0.1
				c-0.8-0.1-1.9-0.1-2.6-0.4c-0.8-0.3-1.6-1.2-1.6-1.6c0-0.2,0.1-0.5,0.4-0.8c0.5-0.4,1.6-0.7,2.2-0.8c1.8-0.3,4.4-0.5,5.1-0.5
				c2.1,0,3.8-0.2,6.3-0.2c0.3,0,0.6,0,0.9,0c0.9,0,2,0.1,2.8,0.4c1.4,0.7,3,2.2,3.7,4.9c0.7,2.6,1.9,5.2,2.6,8
				c0.3,1.2,0.2,2.5,0.5,3.7c0.5,1.4,0.8,2.9,1,4.3c0.2,1.2,0.2,2.4,0.8,3.6c0.5,1.2,0.6,2.2,0.9,3.4c0.1,0.4,0.7,2.3,1.2,3.8
				c0.4,1.4,0.7,2.4,1.1,2.4c0.7,0,0.9-3.3,1-3.8c0.3-1.5,0.5-3,0.8-4.5c0.6-3.1,1.2-6.1,1.8-9.2c0.6-3.2,1.2-6.3,1.9-9.5
				c0.6-2.6,1.6-5.1,3.4-7c1.2-1.3,2.9-2.2,4.6-2.2c0.7,0,1.6,0.1,2.3,0.6l6.9,0c1.3,0,3.8,0.1,3.8,1.7c0,0.7-0.2,1-0.7,1.5
				c-0.4,0.5-1.1,0.7-1.7,0.9c-1,0.2-1.6,0.3-2.1,0.3c-0.4,0-1.5,0-2.7,0c0.1,0.2,0.2,0.4,0.2,0.7c0.2,1.3,0.4,2.7,0.5,4
				c0.2,1.4,0.3,2.8,0.5,4.2c0.1,1,0.4,2,0.4,2.9c0,0.2,0,0.3,0,0.5c0,0.3,0,0.6,0,1c0,1,0.1,1.9,0.2,2.9c0.1,1.3,0.4,2.6,0.5,3.9
				c0,0.4-0.1,0.8-0.1,1.2c0,0.6,0.4,1.2,0.5,1.8c0.1,0.4,0.1,0.8,0.1,1.2c0,0.8,0,1.6,0,2.4c0,0.8,0,1.6,0.1,2.5
				c0.1,0.9,0.2,1.8,0.4,2.7c0.1,0.7,0.2,1.4,0.2,2c0,0.4-0.1,0.8-0.1,1.3c0,0.5,0,0.4,0.2,0.8c0.2,0.7,0.4,1.2,0.5,2
				c0.1,1.2,0.3,2.4,0.4,3.5c0.2,1.5,0.3,3,0.4,4.5c0,0.2,0,0.4,0,0.6c0,0.6-0.1,1.1-0.1,1.6c0,1.3,0.2,1.8,0.3,2.4
				c0.1,0.4,0.1,0.8,0.2,1.2c0,0.5,0,1,0,1.5c0,0.3,0,0.6,0.1,0.9c0.1,0.7,0.2,1.3,0.2,2c0,0.2,0,0.4,0,0.5
				C468.5,340.5,468.9,340.5,469.1,340.5L469.1,340.5z"/>
			<path class="st0" d="M524.7,343.2c0,0.6-0.4,0.8-0.8,1.3c-0.4,0.5-1,0.7-1.6,0.9c-1,0.2-1.7,0.3-2.4,0.3c-0.7,0-1.3-0.1-2.2-0.1
				c-0.2,0-0.4,0-0.8,0c-0.4,0.2-0.9,0.3-1.4,0.4c-0.5,0.1-1.1,0.2-1.6,0.2c-1.2,0-2.4-0.2-3.5-0.6c-0.8,0-1.5,0-2.2,0
				c-2.2,0-4.1,0-4.9-0.1c-0.8-0.1-1.8-0.1-2.5-0.4c-0.5-0.2-1.6-0.9-1.6-1.6c0-1.2,1.6-1.4,2.5-1.6c0.4-0.1,1.4-0.1,2.7-0.2
				c-0.1-0.7-0.1-1.4-0.2-1.9c-0.1-0.9-0.1-1.8-0.3-2.6c-0.1-0.4-0.2-0.8-0.2-1.3c0-0.4,0.2-1.1,0.2-1.5c0-0.5-0.3-0.9-0.5-1.6
				c-0.1-1.1-0.5-2.1-0.6-3.2c-0.1-1-0.1-1.8-0.3-2.8c-0.2-1.1-0.2-2.1-0.4-3.2c-0.1-0.6-0.2-0.9-0.7-0.9c-0.2,0-0.5,0.1-1,0.1
				c-1.1,0-2.1,0.1-3.1,0.2c-1,0.1-2,0.2-3.1,0.2c-0.9,0-1.7,0.1-2.6,0.1c-0.4,0-1.5-0.2-2.3-0.2c-0.9,0-0.9,0.7-0.9,1.3
				c0,1-0.4,2.3-0.6,3.4c-0.4,1.8-0.7,3.6-1.1,5.5c-0.4,2-1.2,5.4-1.7,7.3c0.9,0,1.8-0.1,3.1-0.1c1.3,0,3.5,0.1,3.7,1.7
				c-0.1,0.7-0.2,1-0.6,1.5c-0.4,0.5-1,0.7-1.6,0.9c-0.9,0.2-1.5,0.3-2.1,0.3c-0.6,0-1.2-0.1-2.2-0.1c-1.4,0-2.8,0.1-4.3,0.1
				c-0.8,0-1.6,0-2.3-0.1c-0.8-0.1-1.8-0.1-2.5-0.4c-0.8-0.3-1.6-1.2-1.6-1.6c0-0.2,0-0.5,0.4-0.8c0.4-0.4,1.5-0.7,2.1-0.8
				c1.3-0.2,2.6-0.3,3.9-0.4c0-0.1,0-0.2,0-0.2c0-1.1,0.3-2.4,0.4-2.9c0.4-2.3,0.8-4.4,1.2-6.6c0.3-1.7,0.6-3.5,1-5.4
				c0.1-0.4,0.5-1.8,0.5-2.6c0-0.9-1.9-0.9-2.7-1.3c-0.7-0.3-1-0.6-1-1.1c0-0.9,0.8-1.1,1.8-1.3c0.6-0.1,2-0.2,2.7-0.8
				c0.5-0.4,0.5-2.1,0.7-2.9c0.6-2.1,1.2-4.3,1.7-6.3c0.6-2.3,1.2-4.4,1.7-6.5c0.5-2.1,1-4.3,1.4-6.4c0.4-2,0.7-4.1,1.4-6
				c0.7-2,1.4-4.3,2.4-6.2l0.9-1.9c0.4-0.9,0.7-1.8,1.6-2.5c1.5-1.1,3.7-1.4,5.7-1.4c1.3,0,2,0.2,3,0.6c1,0.4,1,1.1,1.6,2
				c0.4,0.6,1.1,1.2,1.4,1.8c0.3,0.8,0.3,1.5,0.6,2.3c0.5,1.5,0.4,3.2,0.7,4.8c0.4,1.7,1.1,3.2,1.3,4.9c0.3,2,0.4,3.9,0.9,5.8
				c0.5,1.8,0.8,3.6,1,5.6c0.1,0.9,0.2,1.8,0.4,2.7c0.3,1.2,0.6,2.4,0.7,3.6c0.1,0.5,0.2,1.6,0.5,2.7c0.2,0.9,0.5,1.7,0.9,2
				c0.2,0.2,0.7,0.2,1.2,0.2c0.4,0,0.8,0,1.1,0c1,0,2.1,0.3,2.7,1.2c0.2,0.3,0.3,0.5,0.3,0.8c0,0.3-0.2,0.6-0.6,1
				c-0.6,0.5-1.2,1.2-1.9,1.5c-0.2,0.1-0.7,0.1-1.1,0.2c-0.3,0-0.6,0.1-0.8,0.2c-0.1,0.1-0.1,0.2-0.1,0.4c0,0.3,0.1,0.7,0.2,1.2
				c0.1,0.5,0.2,1,0.2,1.4l0,1.2c0,0.4,0,0.7,0.1,1.2c0.2,1,0.6,1.9,0.7,2.9c0.1,0.9,0.4,1.9,0.6,2.9c0.2,1,0.5,2,0.5,3
				c0,1.4,0.1,2.1,0.5,3.4c0.1,0.4,0.2,0.8,0.3,1.2c0.8,0,1.6,0,2.5,0C523.2,341.3,524.7,342.1,524.7,343.2L524.7,343.2z
				 M501.1,317.2c0-0.4-0.2-1.4-0.2-1.8c-0.2-1.4-0.5-2.4-0.5-3.6c-0.1-2.9-0.1-5.9-0.3-8.8c-0.1-1.4-0.3-2.7-0.5-4.1
				c-0.2-1.5-0.5-3.1-0.5-4.7c0-0.5-0.1-2.4-0.2-3.8c-0.1-1.3-0.4-2.2-0.8-2.2c-0.8,0-1.7,1.7-1.8,2.1c-0.3,1.1-0.5,2.3-0.8,3.4
				c-0.1,0.6-0.2,1.1-0.2,1.6c-0.1,0.6-0.1,1.1-0.3,1.7c-0.4,1.2-0.5,2.5-0.7,3.6c-0.4,2.5-1.2,4.8-1.9,7.2
				c-0.3,1.1-0.5,2.2-0.7,3.4c-0.2,1.3-0.5,2.6-1,3.9c-0.2,0.5-0.6,2.2-0.6,2.9c0,0.3,0.2,0.3,0.7,0.3c0.6,0,1.8-0.1,2.1-0.1
				c0.8,0,1.5-0.1,2.3-0.2c0.6-0.1,1.2-0.1,1.8-0.1c0.6,0,1.5,0.1,2.4,0.1c0.5,0,1.1,0,1.5-0.2C500.9,317.7,501.1,317.5,501.1,317.2
				z"/>
			<path class="st0" d="M573.4,313.7c0,0.4,0.2,1.4,0.2,2c0,0.9-0.5,1.6-0.6,2.4c-0.1,0.9,0,1.8-0.1,2.7c0,0.4-0.3,1.1-0.5,1.8
				c-0.2,0.6-0.3,1.3-0.5,1.8c-0.4,0.9-0.5,1.9-0.7,2.8c-0.2,0.9-0.4,1.8-0.8,2.7c-0.4,0.8-0.9,1.4-1.4,2.2
				c-0.4,0.6-0.4,1.2-0.8,1.8c-0.5,0.7-1.4,2.4-2,3.1c-2.1,2.9-4.1,4.2-5.5,5.3c-1,0.8-2.3,1.2-3.7,1.6c-1.2,0.3-2.5,0.6-3.8,0.6
				c-1.1,0-2-0.4-3-0.4c-2.8,0-1.7,0.2-4.6,0.3c-0.4,0.8-0.8,1.3-1.6,1.6c-0.5,0.2-1,0.2-1.6,0.3c-0.5,0.1-1.1,0.2-1.6,0.3
				c-0.3,0.1-1,0.1-1.3,0.1c-0.7,0-1.7-0.4-1.9-0.6c-0.6-0.4-1.1-0.8-1.9-1.4c-0.2-0.2-0.4-0.3-0.6-0.5c-0.8,0-0.1,0.1-1.4,0.1
				c-0.8,0-1.6,0-2.4-0.1c-0.8-0.1-1.9-0.1-2.6-0.4c-0.8-0.3-1.6-1.2-1.6-1.5c0-0.7,0.1-0.9,0.4-1.2c0.5-0.4,1.6-0.7,2.2-0.8
				c1.1-0.2,2.6-0.3,3.8-0.4c-0.1-0.8-0.1-1.7-0.1-2.6c0-4.4-0.2-8.6-0.2-12.9c0-1.7,0.2-5.9,0.4-12.2c0.1-4.5,0.2-9,0.2-13.5
				c0-2.5,0-5.5,0.2-8.5c0.1-1.7,0.3-3.5,0.3-5.2c-0.1,0-0.3,0-0.5,0c-0.8,0-1.6,0-2.4-0.1c-0.8-0.1-1.9-0.1-2.6-0.4
				c-0.8-0.3-1.6-1.2-1.6-1.5c0-0.2,0.1-0.9,0.4-1.2c0.5-0.4,1.5-0.7,2.2-0.8c1.8-0.2,3.7-0.4,5-0.5c0.1-0.3,0.4-0.6,0.6-0.8
				c0.3-0.3,1.1-0.7,1.6-0.9c0.5-0.2,1.1-0.4,1.6-0.5c0.5-0.1,1-0.1,1.5-0.1c0.7,0,1.3,0.1,2,0.2c1.2,0.3,2,1,2.7,1.9
				c0.6,0,1.3-0.1,1.9-0.1c1.9,0,3.7,0.5,6.8,0.5c1.8,0,3.3,0.9,5,0.9c0.8,0,1.9,0.1,2.6,0.5c0.8,0.4,1.4,1.3,2.1,1.8
				c0.6,0.5,1.3,0.9,1.7,1.6c0.4,0.6,0.4,1.3,0.9,1.9c0.5,0.7,1.1,1.2,2.5,2c0.9,0.6,0.5,1.9,1,2.8c1.1,1.9,3,4,3.5,6
				c0.5,1.9,0.7,3.5,0.7,5.4c0,1.3-0.1,2.5-0.1,3.8c0,0.9,0.1,1.8,0.3,2.6c0.1,0.3,0.1,0.5,0.1,0.8
				C573.7,311.9,573.4,312.6,573.4,313.7z M561.2,313.8c0-1.1-0.1-3.2-0.3-5.5c-0.2-2.7-0.5-4.8-0.6-5.3c-0.4-3.9-1-7.2-2.1-11
				c-0.3-1-0.2-2.8-3.6-5.8c-0.7-0.6-3.7-1.3-5.7-1.3c-1.2,0-1.8,0.2-2,0.9c-0.2,0.5-0.2,2.7-0.2,5.3c-0.1,5.8-0.1,14.4-0.2,15.6
				c-0.1,0.7-0.1,1.5-0.1,2.2c0,1.4,0.1,2.8,0.1,4.1c0.1,1.8,0.1,3.7,0.1,5.5c0,1.6,0,3.1,0,4.7c0,2.1,0.2,6.7,0.1,8.8
				c0,0.8-0.2,1.6-0.2,2.4c0,0.5-0.3,3.5-0.3,5c0,0.5,0.1,0.8,0.7,0.8c0.7,0,1.2,0,1.5,0c0.9,0,0.6,0.1,2.1,0.1
				c0.5,0,2.2-1.1,2.7-1.3c0.3-0.1,1.2-0.5,1.5-0.7c0.7-0.4,1.1-1.3,1.5-2c0.6-1,1.1-2,1.6-3.1c0.9-1.9,1.5-1.9,1.9-6.3
				c0.3-2.5,0.9-4.7,1.1-7C561.1,317.9,561.2,315.8,561.2,313.8z"/>
			<path class="st0" d="M614.9,339.5c0.3,0.2,0.5,0.5,0.5,1c0,0.9-0.7,1.7-1.4,2.2c-0.7,0.5-1.7,0.6-2.5,0.8
				c-1.9,0.3-3.9,0.4-5.8,0.7c-1,0.2-1.9,0.3-2.9,0.5c-0.7,0.1-2.7,0.1-4,0.1c-0.5,0.1-0.8,0.2-1.2,0.2c-0.1,0-0.5,0-1.1,0
				c-0.4,0.5-0.8,0.9-1.5,1.1c-0.5,0.2-1.1,0.2-1.7,0.3s-1.2,0.2-1.8,0.3c-0.4,0.1-1.1,0.1-1.4,0.1c-0.8,0-1.9-0.4-2.1-0.6
				c-0.6-0.4-1.2-0.8-2-1.4c-0.6,0-1,0-1.2,0c-1.4,0-0.4,0.1-1.8,0.1c-0.8,0-1.6,0-2.3-0.1c-0.8-0.1-1.8-0.1-2.5-0.4
				c-0.8-0.3-1.6-1.5-1.6-1.9c0-0.2,0.1-0.5,0.4-0.8c0.5-0.4,1.5-0.7,2.1-0.8c1.4-0.2,3-0.4,4.4-0.4c-0.1-1.6,0-3.8,0-6.1
				c0-3.5-0.1-7.1-0.2-8.1c0-0.5,0-3.6-0.1-5.6c-0.1-2-0.1-4-0.2-6c0-0.8-0.1-1.6-0.1-2.4c0-1.2,0.2-2.4,0.2-3.6
				c0-0.9-0.1-1.7-0.1-2.6c0-1.1,0.1-2.2,0.3-3.3c0.3-1.9,0.6-3.8,0.6-5.8c0.1-2.1,0-4.3,0-6.4c0-1.7,0-3.4,0.2-5.1
				c-0.7,0-0.1,0.1-1.3,0.1c-0.8,0-1.6,0-2.3-0.1c-0.8-0.1-1.8-0.1-2.5-0.4c-0.8-0.3-1.6-1.5-1.6-1.9c0-0.2,0.1-0.5,0.4-0.8
				c0.5-0.4,1.5-0.7,2.1-0.8c1.7-0.2,4.5-0.5,5.8-0.5c0,0,0-0.1,0-0.1c0.1-0.4,0.5-0.6,0.8-0.8c0.7-0.5,1.6-0.7,2.5-0.9
				c0.6-0.2,1.4-0.3,2-0.3c0.3,0,0.5,0,0.7,0.1c0.4,0.1,0.7,0.3,1.1,0.5c0.4,0.2,0.9,0.3,1.3,0.5c0.9,0.2,1.7,0.7,2.6,0.9
				c0.3,0.1,0.6,0.1,0.9,0.1c0.6,0,1.2-0.1,1.8-0.1c1,0,4.1,0,5.1,0c0.9,0,1.8,0.1,2.7,0.1c1,0.1,2.1,0.2,3.1,0.4
				c0.6,0.1,1.3,0.2,1.9,0.4c0.4-0.4,0.8-0.7,1-0.7c0.2,0,0.5,0.1,0.8,0.4c0.4,0.5,0.9,1.4,0.9,2c0.3,2.8,0.2,1.6,0.3,3.3
				c0.2,2.2,0.2,2.2,0.2,4.6c0,1.2-0.1,3.6-1.5,3.6c-0.8,0-1.1-0.1-1.7-0.7c-0.5-0.4-0.7-1-0.9-1.6c-0.2-0.9-0.3-1.5-0.3-2.1
				c0-0.6,0.1-1.2,0.1-2.2c0-0.9,0.1-1.9,0-2.8c-0.8,0.2-1.7,0.3-2.5,0.3c-1.1,0-2.2,0-3.3,0.2c-1,0.1-2,0.3-5.1,0.4
				c-0.5,0-0.9,0.1-1.4,0.2c-0.4,0.1-0.8,0.1-1,0.5c-0.2,0.3-0.2,0.8-0.2,1.1c0,0.5,0.1,1,0.1,1.5c0.1,1,0.1,1.9,0.1,2.9
				c0,0.7,0,1.4,0,2.1c0,1.2,0,2.5-0.1,3.7c0,0.9-0.2,1.9-0.2,2.8c0,1,0,2,0,2.9c0,0.5,0,1,0,1.5c0,0.3-0.1,0.8,0,1.2
				c0.2,0.3,0.6,0.3,0.9,0.3c0.5,0,1,0.1,1.4,0.1c3,0.1,3.9,0.1,4.8,0.2c0.8,0.1,1.7,0.2,2.5,0.3c0-0.2,0-0.4,0-0.5
				c0-0.8,0-1.6,0.1-2.3c0.1-0.8,0.1-1.8,0.4-2.5c0.3-0.8,1.2-1.6,1.6-1.6c0.2,0,0.5,0.1,0.8,0.4c0.4,0.5,0.7,1.5,0.8,2.1
				c0.3,1.8,0.3,3.6,0.5,5.3c0.2,2.2,0.2,3.3,0.2,5.7c0,1.2-0.1,3.6-1.5,3.6c-0.8,0-1.1-0.2-1.7-0.7c-0.5-0.4-0.7-1-0.9-1.6
				c-0.2-0.9-0.3-1.5-0.3-2.1c0-0.5,0.1-1.1,0.1-1.8c-2,0.1-4.8,0.2-8.5,0.1c-0.9,0-1.3,0.5-1.3,1.3c-0.1,1-0.1,1.9-0.1,2.9
				c0,0.4-0.1,0.7-0.1,1.1c0,0.6,0,1.1,0.1,1.7c0.1,0.8,0.2,1.6,0.2,2.4c0,0.8-0.1,1.5-0.1,2.3c0,1.3,0.3,2.5,0.3,3.8
				c0,1.9,0,3.9,0.1,5.8c0.1,1,0.2,1.9,0.4,2.8c0.2,0.7-0.1,2.5,0.6,3c0.2,0.2,1,0.2,2.3,0.2c1.3,0,2.9-0.1,3.6-0.1
				c1.2,0,2.4,0.3,3.6,0.3c1.3,0,2.1-0.4,3.2-0.5c0-1,0.1-1.9,0.1-2.9c0-1-0.1-1.5-0.1-2.2c0-0.6,0.1-1.2,0.3-2.1
				c0.1-0.6,0.4-1.2,0.9-1.6c0.6-0.5,0.8-0.7,1.7-0.7c1.5,0,1.5,2.4,1.5,3.6c0,2.4,0,3.4-0.2,5.7
				C614.9,339.2,614.9,339.3,614.9,339.5L614.9,339.5z"/>
			<path class="st0" d="M677.6,342.5c0.6,0.4,1.5,0.9,1.4,1.6c0,0.2-0.1,0.4-0.2,0.6c-0.5,0.7-1.5,0.9-2.4,0.9c-2.5,0-6-1.8-7.8-3.5
				c-1.7-1.8-2.8-3.8-4-5.9c-0.6-1.1-1.2-2.3-1.7-3.5c-0.5-1.1-0.9-2.1-1.2-3.3c-0.3-1.2-0.7-2.4-1-3.6c-0.4-1.3-0.9-2.5-1.4-3.7
				c-0.4-0.9-0.8-2.2-1.2-3.3c-0.5-1.2-1-1.8-1.9-2.4c-0.6-0.4-1.4-0.5-1.9-0.6c-0.4-0.1-1.1,0-1.7,0c-0.2,0-0.3,0.2-0.3,0.5
				c0,0.7,0.2,2,0.2,2.3c0,1.3-0.3,2.6-0.3,3.9c0,2,0.5,3.1,0.5,5.1c0,2.5-0.4,5-0.6,7.4c-0.1,0.8-0.2,1.7-0.2,2.5
				c0,0.5,0.1,1,0.1,1.5c1.5,0,2.7-0.1,3.5-0.1c1.3,0,3.8,0.1,3.8,1.9c0,0.9-0.1,1.1-0.7,1.7c-0.4,0.5-1.1,0.7-1.7,0.9
				c-1,0.2-1.6,0.3-2.2,0.3c-0.5,0-2.1,0-4,0c-1,0.7-2.4,1.2-3.5,1.3c-0.7,0.1-1.2,0.2-1.8,0.2c-0.4,0-0.8,0-1.2-0.2
				c-0.9-0.3-1.8-0.7-2.6-1.4c-1,0-2,0.1-2.8,0.1c-0.8,0-1.6,0-2.4-0.1c-0.8-0.1-1.9-0.6-2.6-0.9c-0.8-0.3-1.6-1.2-1.6-1.6
				c0-0.2,0.1-0.5,0.4-0.8c0.5-0.4,1.6-0.7,2.2-0.8c1.4-0.2,3.3-0.4,4.6-0.4c-0.1-0.6-0.2-1.2-0.2-1.8c-0.1-0.7-0.3-5.8-0.3-7.5
				c0-2.1,0.2-4.3,0.2-6.3c0-2.3-0.2-4.6-0.2-6.9c0-2.6,0.1-5.2,0.1-7.8c0.1-2.7,0.2-5.5,0.3-8.2c0.1-2.6,0.2-3.2,0.2-5.8
				c0-1.2-0.1-2.4-0.1-3.5c0-1.2,0.3-2.4,0.3-3.7c0-0.6-0.1-1.5-0.2-2.3c-0.1,0-0.3,0-0.7,0c-0.8,0-1.6,0-2.4-0.1
				c-0.8-0.1-1.9-0.1-2.6-0.4c-0.8-0.3-1.6-1.3-1.6-1.7c0-0.2,0.1-0.5,0.4-0.8c0.5-0.4,1.6-0.7,2.2-0.8c1.8-0.3,3.6-0.5,5-0.5
				c0.1-0.2,0.2-0.4,0.4-0.5c0.4-0.3,1-0.5,1.7-0.8c0.5-0.2,1.1-0.5,1.6-0.7c0.3-0.1,1-0.1,1.6-0.1c0.8,0,2,0.2,3,0.6
				c1,0.4,1.9,0.6,2.2,1.1c1.3,0,2.1-0.1,3.1-0.1c1.2,0,2.3,0.1,3.9,0.1c0.4,0,1.2-0.1,1.9-0.1c1.1,0,2.6,0.6,4.6,1.1
				c0.9,0.2,1.7,0.7,2.4,1.2c0.5,0.3,1.6,1,2.6,1.7c1.1,0.7,2.1,1.5,2.3,2c0.4,1,1.7,2,2.1,3c0.6,1.2,0.7,2.6,0.8,4
				c0.1,1,0.4,1.8,0.4,2.2c0,0.3,0,0.5,0,0.8c0,0.4,0.3,1,0.3,1.6c0,0.6-0.2,1.3-0.2,1.9c-0.1,1-0.1,1.5-0.4,2.8
				c-0.2,1.2-0.6,2.3-1.2,3.1c-0.3,0.4-0.8,0.6-1,1.1c-0.2,0.4-0.2,0.8-0.4,1.1c-0.4,0.6-1.2,1.7-1.8,2c-0.4,0.3-0.8,0.2-1.2,0.6
				c-0.4,0.4-0.7,0.8-1.1,1.2c-0.7,0.6-1.3,1.5-2.1,1.9c-0.7,0.4-1.3,0.4-1.3,1.4c0,0.8,2.1,2,2.5,2.8c0.7,1.5,1.7,2.7,2.2,4.2
				c0.5,1.3,0.9,2.6,1.3,3.9c0.6,1.8,1.1,3.6,1.5,5.5c0.4,1.9,1.6,3.6,2.2,5.5c0.4,1.1,0.8,2.1,1.4,3
				C675.9,341,676.6,341.9,677.6,342.5L677.6,342.5z M663.4,292.7c0-0.3,0-0.9,0-1.5c-0.1-1.2-1-2.6-2-3.9c-0.4-0.5-0.9-0.9-1.3-1.2
				c-0.7-0.5-1.4-0.8-2.2-1c-1.5-0.4-3-0.4-4.1-0.4l-2.6,0.1c0,1.3-0.1,3.1,0,5.4c0.1,3,0.4,6.5,0.5,9.5c0.1,4,0.2,6.9,0.2,7.5
				c0,1.1,0.3,2.1,0.1,3.2c0,0.2,0,0.4,0,0.5c0,0.7,0.3,0.8,0.8,0.8c0.3,0,0.7-0.1,1.2-0.1c0.6,0,1,0,1.6,0c1.3,0,3.3-0.5,4.2-1.5
				c0.7-0.9,1.2-1.4,1.6-2.5c0.3-1,0.6-2,0.8-3c0.4-1.3,0.6-2,0.8-3.3c0.2-1.3,0.2-1.7,0.2-3c0-1.8,0.1-1.2,0.1-2.8
				C663.4,294.4,663.4,294.1,663.4,292.7z"/>
			<path class="st0" d="M704.5,340.5c1.3,0,3.9,0.1,3.8,1.7c-0.1,0.7-0.2,1-0.7,1.5c-0.4,0.5-1.1,0.7-1.7,0.9
				c-1,0.2-1.6,0.3-2.1,0.3c-0.3,0-2.2-0.1-4.2,0c-2.5,0-5.1,0.2-5.7,0.2c-1.5,0-3.9-0.1-5.4-0.1c-0.8,0-1.6,0-2.4-0.1
				c-0.8-0.1-1.9-0.1-2.6-0.4c-0.8-0.3-1.6-1.2-1.6-1.6c0-0.2,0.1-0.5,0.4-0.8c0.5-0.4,1.6-0.7,2.2-0.8c1.8-0.3,4-0.5,4.7-0.5
				c0.2,0,0.6,0,1,0c-0.7-0.6-1.2-1.4-1.2-2.3c0-0.5-0.1-1-0.2-1.5c-0.1-0.3-0.1-0.7-0.1-1c0-0.3,0-0.6,0-0.9c0-0.9,0.1-1.8,0.1-2.7
				c0-0.4,0-0.7,0-1.1c-0.1-5,0.2-9.9,0-14.9c-0.1-2.6,0-5.2,0.1-7.9c0.1-2.3,0.2-4.5,0.2-6.8c0-1.2,0-2.5,0-3.7c0-1.6,0-3.1,0-4.7
				c0-2.2-0.1-4.4,0-6.6c0-0.3,0-0.6,0.1-1c-0.2,0-0.4,0-0.7,0c-0.8,0-1.6,0-2.4-0.1c-0.8-0.1-1.9-0.1-2.6-0.4
				c-0.8-0.3-1.6-1.2-1.6-1.6c0-0.2-0.1-0.5,0.2-0.9c0.4-0.4,1.7-0.6,2.3-0.7c1.7-0.2,4.1-0.4,4.9-0.5c0-0.2,0-0.4,0-0.6
				c0-0.5,0.1-0.9,0.3-1.2c0.3-0.3,1-0.6,1.4-0.8c0.5-0.2,1.1-0.4,1.6-0.5c0.5-0.1,1-0.1,1.5-0.1c0.7,0,1.3,0.1,2,0.2
				c1.6,0.4,2.9,1.4,3.6,2.8c2.1,0,3.9-0.1,4.8-0.1c1.3,0,3.9,0.1,3.8,1.7c-0.1,0.7-0.2,1-0.7,1.5c-0.4,0.5-1.1,0.7-1.7,0.9
				c-1,0.2-1.6,0.3-2.1,0.3c-0.2,0-1.4,0-3,0l0,0.2c0.2,1.2,0.4,2.4,0.5,3.6c0.2,1.2,0.3,2.4,0.3,3.6c0,1.2-0.1,2.3-0.1,3.5
				c0,0.6-0.1,1.2-0.1,1.8c0,0.5,0.1,1,0.2,1.5c0.4,2.4,0.3,5,0.4,7.4c0.1,2.7,0.2,5.5,0.2,8.2c0,2.2,0.1,4.5,0.2,6.7
				c0.1,2.5,0.5,5,0.5,7.5c0,1.2,0.1,2.4,0.1,3.6c0,1.3,0,2.5,0,3.8c-0.1,1.1-0.1,2.4-0.5,3.4C703.3,340.5,704,340.5,704.5,340.5
				L704.5,340.5z"/>
			<path class="st0" d="M753.7,317.3c0,1-1.1,1.7-1.9,2.1c-1.2,0.5-2.9,0.8-4.1,1c-1.1,0.1-1.8,0.2-1.8,1.3c0,0.8,0.2,2.6,0.2,3.3
				c0,0.4,0,2.9,0,3.2c0,0.7,0,1.4,0.1,2.2c0.1,2.5,0.1,5.5,0.2,6.5c0.2,2.1,0.2,3.1,0.2,5.2c0,1.1,0,4.1-1.7,4.1
				c-0.7,0-1.1-0.2-1.6-0.7c-0.5-0.4-0.7-1-0.8-1.6c-0.2-0.7-0.2-1.3-0.2-1.7c0-0.8,0.2-1.4,0.1-2.7v-0.3c-0.6,2-1.9,3.7-3.7,5.1
				c-2.5,1.9-4.4,2.8-7.6,2.8c-1.9,0-3.8-0.3-5.6-0.9c-2.1-0.7-3.8-1.9-5.3-3.3c-2.1-2.1-3.6-4.7-5-7.5c-1.1-2.1-1.7-4.3-2.1-6.5
				c-0.3-1.5-0.5-3.1-0.7-4.6c-0.2-1.5-0.1-2.6-0.1-4c0-5.4,1.4-10.8,2.8-16.8c0.6-2.7,1.2-5.4,2.1-8.1c0.9-2.8,2.1-5.6,3.8-8
				c1.5-2.1,3.2-4.4,5.1-6.1c0.9-0.8,1.9-1.3,3-1.6c1.4-0.4,2.7-1.2,4.2-1.2c0.3,0,0.5,0,0.7,0c0.7,0,1.1,0.1,2.1,0.2
				c1.3,0.2,2.5,0.5,3.4,1.1c0.9,0.5,1.5,1.3,2,2.1c0.1-0.6,0.1-1.3,0.4-1.8c0.2-0.4,0.3-0.6,0.7-1c0.2-0.2,0.6-0.5,0.9-0.5
				c0.3,0,0.7,0.4,0.8,0.5c0.4,0.6,0.7,1.4,0.8,2c0.1,0.8,0.2,2.5,0.2,4.4c0.1,2.5,0.1,5.2,0.2,6.2c0.2,2.1,0.2,3.1,0.2,5.2
				c0,1.1,0,4.1-1.7,4.1c-0.7,0-1.1-0.2-1.6-0.7c-0.5-0.4-0.7-1-0.8-1.6c-0.1-0.6-0.1-1.1-0.1-1.7c0-0.8,0.1-1.6,0.1-2.7
				c-0.1-0.7-0.1-1.3-0.2-2c-0.2-1.5-0.4-2.9-0.6-4.4c-0.2-1.3-0.8-2.6-1.6-3.9c-0.5-0.9-1.9-1.2-2.9-1.2c-1.4,0-2.3,0.7-3,1.8
				c-0.7,1.1-1.6,2-2.1,3.2c-0.4,1.3-0.7,2.7-0.8,4c-0.1,1.4-0.4,2.5-0.8,3.9c-0.4,1.5-0.5,3-0.8,4.5c-0.3,1.3-0.4,2.7-0.5,4
				c-0.1,1.3-0.5,2.5-0.6,3.7c-0.2,1.4-0.3,2.9-0.5,4.3c-0.2,1.4-0.3,2.7-0.5,4.1c-0.1,1.2-0.3,2.4-0.3,3.7c0,1.7,0.2,3.5,0.3,5.2
				c0.1,2.3,0.8,4.7,1.3,7c0.2,0.9,0.4,1.8,0.6,2.7c0.3,1.2,0.8,2.3,1.4,3.3c0.9,1.5,2.6,3.2,4.5,3.2c1.6,0,2.8-1.3,3.6-2.5
				c1.3-1.9,2-4,2.4-6.2c0.4-1.9,0.5-3.9,0.7-5.9c0.1-1.4,0.1-3.2,0.1-4.6c0-0.2,0-0.5,0-0.8c0-1,0-1.4-1.5-1.4
				c-1.2,0-2.5,0.2-3.7,0.2c-1.1,0-2.2-0.1-3.1-0.6c-0.4-0.2-0.6-0.4-0.7-0.7c0-0.2,0.1-0.5,0.4-0.7c0.6-0.6,1.2-0.7,1.9-1.1
				c1.3-0.7,2.8-0.8,4.4-1.1c1.4-0.2,2.8-0.3,4.1-0.4c1.1-0.1,2.2-0.1,3.2-0.1c1.6,0,4.2-0.2,5.2-0.2
				C752.4,315.7,753.7,316.1,753.7,317.3z"/>
			<path class="st0" d="M801.6,340.5c1.3,0,3.8,0.1,3.8,1.5c0,0.8-0.2,1.1-0.7,1.7c-0.4,0.5-1.1,0.7-1.7,0.9c-1,0.2-1.6,0.3-2.2,0.3
				c-1.2,0-10.2-0.1-11.2-0.1c-1.5,0-0.4,0.1-1.9,0.1c-0.8,0-1.6,0-2.4-0.1c-0.8-0.1-1.9-0.1-2.6-0.4c-0.8-0.3-1.6-1.2-1.6-1.6
				c0-0.2,0.1-0.5,0.4-0.8c0.5-0.4,1.6-0.7,2.2-0.8c1.7-0.2,3.2-0.4,4-0.5c-0.8-0.6-1.2-1.1-1.3-2.4c-0.2-2.4-0.3-4.7-0.3-7.1
				c0-2.3,0-4.5,0-6.8c0-1.5,0-2.9-0.1-4.4c-0.1-1.5-0.2-3-0.1-4.5c0-0.5,0.2-1.3,0.2-2c0-0.5-0.1-0.9-0.3-1.1
				c-0.2-0.1-0.5-0.2-0.9-0.2c-1.1,0-2.8,0.4-3.4,0.4c-0.9,0.1-1.8,0.2-4.9,0.2c-1.5,0-2.2-0.3-2.6-0.3c-0.3,0-0.4,0-0.4,0.5
				c0,0.7,0,1.3,0,1.9c0,0.8,0,1.6-0.1,2.4c-0.1,0.7-0.1,1.4-0.1,2.1c0,1.1,0.1,2.3,0.1,3.4c0,0.2,0,0.3,0,0.5
				c0,1.1-0.2,2.1-0.2,3.2c0,1.2-0.1,2.4-0.1,3.6c-0.1,1.1-0.1,2.3-0.1,3.4c0,1.6-0.3,2.9-0.3,4.5c0,0.8,0.2,1.5,0.3,2.3
				c1.3,0,3.1,0.3,3.1,1.5c0,0.8-0.2,1.1-0.7,1.7c-0.4,0.5-1.1,0.7-1.7,0.9c-0.9,0.2-1.5,0.3-2.1,0.3c0,0-0.1,0-0.1,0.1
				c-0.5,0.3-0.7,0.2-1.1,0.5c-0.4,0.3-0.2,0.7-0.8,0.9c-0.3,0.2-0.7,0.2-1.1,0.2c-1.5,0-2.4-0.4-3.1-1c-0.3-0.2-0.6-0.5-0.9-0.8
				c-1.4,0-2.6,0-2.9,0c-1.5,0-0.4,0.1-1.9,0.1c-0.8,0-1.6,0-2.4-0.1c-0.8-0.1-1.9-0.1-2.6-0.4c-0.8-0.3-1.6-1.2-1.6-1.6
				c0-0.2,0.1-0.5,0.4-0.8c0.5-0.4,1.5-0.7,2.2-0.8c1.3-0.2,3.3-0.4,4.6-0.4c-0.1-0.3-0.1-0.5-0.1-0.8c0-0.5,0.1-1.1,0.1-1.7
				c0-1.1,0.1-2.3,0.1-3.4c0-1.3,0-2.5,0-3.8c0-1.6,0-3.2,0-4.8c0-2.2,0-4.4,0-6.5c0-1.5,0-2.9,0-4.4c0-0.4,0-0.8,0-1.2
				c0-0.4-0.1-1.2-0.1-1.5c0-0.5-0.1-0.6-0.6-0.7c-0.3-0.1-1.6-0.2-2.5-0.3c-1.2-0.2-2.4-0.6-2.4-1.2c0-0.2,0.2-0.5,0.6-0.8
				c0.5-0.4,1.1-0.6,1.6-0.7c0.6-0.1,1.2-0.2,1.9-0.3c1-0.2,1-0.1,1.3-0.7c0.1-0.2,0.1-0.5,0.1-0.8c0-2.4,0-4.9,0-7.4
				c0-4.3,0.1-8.6,0.6-12.8c0.1-0.6,0.1-1.4,0.2-2.1c-0.7,0-0.4,0-1.6,0c-0.2,0-0.4,0-0.6,0c-0.5,0-1,0-1.6-0.1
				c-0.8-0.1-1.9-0.1-2.6-0.4c-0.8-0.3-1.6-1.2-1.6-1.6c0-0.2,0.1-0.5,0.4-0.9c0.4-0.4,1.4-0.7,2.1-0.8c1.8-0.3,4.5-0.4,5.2-0.4
				c0.3,0,0.6,0,1,0c0.6-1.4,1.7-2.4,3.8-2.4c1.6,0,3,0.8,4,2.2c1.1,0,2.1-0.1,2.8-0.1c1.3,0,4.2,0.1,4.2,1.6c0,0.8-0.6,1-1.1,1.6
				c-0.4,0.5-1.1,0.7-1.7,0.9c-1,0.2-1.6,0.3-2.1,0.3c-0.1,0-0.4,0-0.7,0c0,0.2,0.1,0.3,0.1,0.5c0.6,1.7,0.8,3.3,1,5.1
				c0.2,1.6,0.3,3.3,0.4,4.9c0.2,1.5,0.4,3,0.6,4.5c0.1,0.5,0.1,1,0.1,1.5l0,0.5c0,0.8,0,1.7,0.2,2.5c0.1,0.5,0.4,0.9,0.5,1.3
				c0,0.1,0,0.1,0,0.2c0,0.2,0,0.5,0,0.7c0,0.6,0.2,0.7,0.9,0.7c1.2,0,5.6-0.4,6.1-0.4c0.9-0.1,1.9,0,2.8,0c0.6,0,1.2-0.1,1.7-0.1
				c0.7,0,1.1-0.2,1.1-1c0-0.8-0.2-2.1-0.2-2.5c0-1.8,0.1-3.6,0.2-5.3c0-0.3,0.2-2,0.3-3.9c0.1-1.7,0.2-3.5,0.2-4.7
				c0-0.8-0.1-1.8-0.1-2.4c0-0.8,0-1.1,0-1.7c-0.5,0-1,0-1.6-0.1c-0.8-0.1-1.9-0.1-2.6-0.4c-0.8-0.3-1.4-1.2-1.4-1.6
				c0-0.2,0.1-0.5,0.4-0.8c0.5-0.4,1.3-0.7,2-0.8c1.2-0.2,2.5-0.3,3.4-0.3c0.2-0.3,0.5-0.5,0.9-0.5c0.7,0,1.8-0.3,1.9-0.3
				c0.2,0,0.3,0,0.5,0c0.7,0,1.4,0.1,2,0.3c0.4,0.1,0.7,0.2,0.9,0.4c2.7-0.1,5.6-0.2,7-0.2c1.3,0,3.7,0.1,3.7,1.5
				c0,0.9,0,1.1-0.6,1.7c-0.4,0.5-1.1,0.7-1.7,0.9c-1,0.2-1.6,0.3-2.1,0.3c-0.3,0-2.1,0-4,0c0.3,0.9,0.8,1.6,0.9,2.5
				c0.3,1.6,0.8,3.3,1.2,4.9c0.3,1.4,0.2,2.7,0.6,4c0.4,1.4,0.5,2.6,0.6,4c0.1,1.2-0.1,1.9-0.1,3.1c0,0.5,0.2,1.5,0.2,1.9
				c0,0.2,0,0.3,0,0.4c0,0.4,0.4,0.4,0.9,0.4c0.3,0,0.6,0,1,0c0.8,0,1.8,0.1,2.1,0.8c0.1,0.2,0.1,0.4,0.1,0.6c0,0.9-1,1.8-1.7,2.1
				c-0.4,0.2-1,0.3-1.5,0.4c-0.4,0.1-0.7,0.1-0.9,0.5c0,0.1,0,0.2,0,0.3c0,0.3,0.1,0.8,0.1,1.1c0,0.2,0,0.3,0,0.5
				c0,0.9-0.1,1.7-0.1,2.6c0,2.2,0,4.4,0.2,6.6c0.2,2.3,0.5,4.6,0.5,6.9c0,1.1-0.1,2.2-0.2,3.3c-0.3,1.9-0.4,3.8-0.5,5.7
				c0,0.3-0.3,0.5-0.4,0.8c0,0.4,0.2,0.8,0.2,1.2c0,0.2-0.1,0.4-0.1,0.7C799.9,340.6,800.9,340.5,801.6,340.5L801.6,340.5z"/>
			<path class="st0" d="M848.7,292.7c0,1.1-0.1,3.4-1.5,3.4c-0.8,0-1.1-0.1-1.7-0.6c-0.5-0.4-0.7-1-0.9-1.5
				c-0.2-0.8-0.3-1.4-0.3-1.9c0-0.6,0.1-4.1,0.1-5c0-0.6,0-1.2,0-1.8c-0.8,0-1.7,0.1-2.5,0.1c-0.8,0-1.7,0-2.5,0.1
				c-0.9,0.1-1.7,0.2-2.6,0.2c-0.3,0-0.7,0.1-1,0.1c0,0-0.1,0-0.1,0c-0.8,0-1,0.2-1,0.7c0,0.3,0.1,0.7,0.2,1
				c0.2,0.9,0.3,2.6,0.3,3.6c0.1,0.9,0.1,1.7,0.1,2.6c0,0.8-0.2,1.6-0.2,2.4c0,0.8,0.4,2,0.3,2.8c0,0.9-0.1,1.7-0.2,2.6
				c-0.1,1.8,0,3.6,0.1,5.4c0,0.8,0.1,1.7,0.1,2.5c0,0.4-0.1,0.8-0.1,1.2c0,0.4,0.2,1.5,0.2,2c0,1.8,0,2.8,0,4.6
				c0,1.8,0.2,3.6,0.1,5.4c0,0.8-0.2,1.7-0.2,2.5c0,1,0.1,1.9,0.1,2.9c0.1,1.8,0.1,3.7,0.1,5.5c0,1.7,0,3.8,0,5.5
				c0,0.3,0,0.6-0.1,0.9c1.1,0,1.9,0,2.5,0c1.3,0,3.8,0.4,3.8,1.8c0,0.9-0.2,1.1-0.7,1.7c-0.4,0.5-1.1,0.7-1.7,0.9
				c-1,0.2-1.6,0.3-2.1,0.3c-0.2,0-1.5,0-3.2,0c-0.3,0.2-0.6,0.3-0.9,0.5c-0.8,0.5-1.4,0.6-2.2,0.6c-0.6,0-1.2,0.1-1.9,0.1
				c-1.1,0-1.8-0.4-2.6-0.8c-0.2-0.1-0.4-0.2-0.6-0.4c-1.3,0-2.5,0.1-3.9,0.1c-0.8,0-1.6,0-2.4-0.1c-0.8-0.1-1.9-0.1-2.6-0.4
				c-0.8-0.3-1.6-1.5-1.6-1.9c0-0.2,0.1-0.5,0.4-0.8c0.5-0.4,1.6-0.7,2.2-0.8c1.7-0.2,3.3-0.3,4.2-0.4c0,0,0-0.1,0-0.1
				c0-1-0.3-1.9-0.3-2.9c0-1.7,0.1-3.7,0.2-5.4c0-1.8,0.1-3.6,0.2-5.3c0.1-2.1,0.2-4.3,0.2-6.4c0-1.5-0.1-3,0-4.5
				c0-0.9,0.2-1.7,0.3-2.6c0.1-0.8,0.3-1.6,0.3-2.4c0.1-1.8-0.1-3.6-0.1-5.4c0-1.9,0.1-3.7,0.1-5.6c0-1.6-0.1-3.2-0.1-4.8
				c0-2,0-4.9,0.1-6.9c0-0.4,0.2-1,0.2-1.5c0-0.7-0.5-0.7-0.8-0.7c-0.6,0-3.9,0.1-4.3,0.1c-1.7,0-3.3,0-5-0.2
				c-0.3,0-0.6-0.1-0.8-0.1c0.1,2,0.2,5.5,0.2,7.4c0,1.1-0.1,3.4-1.5,3.4c-0.8,0-1.1-0.1-1.7-0.6c-0.5-0.4-0.7-1-0.9-1.5
				c-0.2-0.8-0.3-1.4-0.3-1.9c0-0.6,0.1-3.3,0.1-4.1c0-1.2-0.1-2.4-0.1-3.6c-0.3-0.4-0.5-0.9-0.5-1.4c0-0.4,0.2-0.8,0.7-1
				c0.8-0.4,1.2-0.9,2.6-0.9c0.7,0,1.5,0,2.2,0c1.8,0,3.6,0,5.4-0.2c0.9-0.1,1.7-0.2,2.6-0.2c0.1,0,0.1,0,0.2,0c0.4,0,0.8,0,1.3,0
				c0.3,0,0.7,0,0.9-0.1c0.6-0.2,1.2-0.7,1.8-1c0.6-0.2,1.1-0.2,1.7-0.2c1,0,2.1,0,3.1,0.3c0.4,0.1,0.7,0.2,1,0.4
				c0.4,0.2,0.7,0.6,1.1,0.7c0.2,0.1,0.5,0.1,0.8,0.1c0.4,0,0.9-0.1,1.3-0.1c0.9,0,1.9,0,2.8,0c2.3,0,4.5,0,6.8,0
				c1.1,0,2.3,0.1,3.2,0.6c0.6,0.4,1,1.1,1,1.8c0,0.4-0.1,0.7-0.3,1c0,0.2,0,0.2,0.1,1.1C848.6,287.4,848.7,290.5,848.7,292.7z"/>
		</g>
	</g>
</g>
<g>
</g>
<g>
</g>
<g>
</g>
<g>
</g>
<g>
</g>
<g>
</g>
<g>
</g>
<g>
</g>
<g>
</g>
<g>
</g>
<g>
</g>
</svg>
