<?xml version="1.0" encoding="utf-8"?>
<!-- Generator: Adobe Illustrator 28.1.0, SVG Export Plug-In . SVG Version: 6.00 Build 0)  -->
<svg version="1.1" id="Capa_1" xmlns="http://www.w3.org/2000/svg" xmlns:xlink="http://www.w3.org/1999/xlink" x="0px" y="0px"
	 viewBox="0 0 249.1 249.1" style="enable-background:new 0 0 249.1 249.1;" xml:space="preserve">
<style type="text/css">
	.st0{fill:#6C4588;}
	.st1{clip-path:url(#SVGID_00000011024501030984376090000006318121657929030793_);}
	.st2{clip-path:url(#SVGID_00000159463071481661397540000008502954303883036592_);}
	.st3{fill:#C67A00;}
	.st4{clip-path:url(#SVGID_00000170994455296397152330000000075906491022456209_);}
	.st5{clip-path:url(#SVGID_00000108294116106206680260000014052582255906939269_);}
	.st6{clip-path:url(#SVGID_00000160868869905225782560000016348258273824874655_);}
	.st7{clip-path:url(#SVGID_00000108287507822188155350000015318397740820167854_);}
	.st8{fill:#3F2A51;}
	.st9{fill:#724D8D;}
</style>
<g>
	<g>
		<path class="st0" d="M125.5,170.8c-2.7-5.9-17.7-3.4-18.2,0.7c-0.4,3.8-1.6,7.1-2.8,10.1c1.5,0.6,1.8,0.9,2.8,2.3
			c0.5-1.2,1-2.4,1.5-3.7l0.5,7.1c1,2,2.7,6.8,1.5,8.8c-0.1,0.2-0.4,0.5-0.5,0.6l-1,15.9c-0.1,1.6,1.2,3.1,2.8,3.1s2.9-1.2,2.9-2.7
			l1.1-17h0.9l1,16.9c0.1,1.6,1.5,2.7,3.1,2.7c1.6-0.1,2.9-1.5,2.8-3.1l-1-16.6c0.2-0.1,0.4-0.2,0.4-0.5c0.9-11.7,1.3-17.6,1.3-17.5
			c0-0.1,0.5-0.6,2.2-3.9C126.1,172.2,125.6,170.9,125.5,170.8L125.5,170.8z"/>
		<path class="st0" d="M129,182.7c-0.9,1.3-2,2.7-3.2,3.2c0.1,1.3,0.1,2.7,0,4c-0.1,0.9,0.5,1.7,1.5,1.8l1.7-8.8
			C129,182.9,129,182.7,129,182.7L129,182.7z"/>
		<path class="st0" d="M129.6,212.4c-0.2,1.6,1,3.1,2.6,3.3c1.7,0.1,3.1-1,3.3-2.6l1.5-12.7c-2-0.1-3.9-0.5-5.7-1.1L129.6,212.4z"/>
		<path class="st0" d="M144.7,199.2c-1.8,0.6-3.8,1-5.7,1.1l1.6,12.8c0.2,1.6,1.7,2.7,3.2,2.6c1.6-0.2,2.8-1.6,2.6-3.3L144.7,199.2z
			"/>
		<path class="st0" d="M146,185.7l-1.2-6.4v-4.5c1.7,2.8,3.2,6.6,3.4,9.9c0.1,2.3,3.7,2.2,3.5-0.1c-0.2-5.9-3.9-11.7-5.6-14.3
			c-2.8-4.2-13.7-5-16.2,0.5c-1.2,2.7-2.8,5.9-4.2,8.3c0,0.1-0.5,6.1-0.5,5.7c1.8-0.4,5-6.7,5.9-8.4v3.1c-0.2,1.2-2.6,12.8-3.4,17
			c6.7,4,14.2,3.8,20.4,0l-0.9-4.3C141.4,190.4,143.2,185.7,146,185.7L146,185.7z"/>
		<path class="st0" d="M138,165.8c2.8,0,5.1-2.3,5.1-5.1s-2.3-5.1-5.1-5.1c-2.8,0-5.1,2.3-5.1,5.1S135.1,165.8,138,165.8z"/>
		<path class="st0" d="M94.4,212.7c-0.1,1.3,1,2.4,2.2,2.4s2.3-1,2.4-2.2l0.5-8.2c-1.6-0.1-3.2-0.5-4.6-1.1L94.4,212.7z"/>
		<path class="st0" d="M101.2,204.7l0.5,8.2c0.1,1.2,1.1,2.2,2.3,2.2h0.1c1.3-0.1,2.3-1.2,2.2-2.4l-0.5-9
			C104.2,204.2,102.7,204.6,101.2,204.7z"/>
		<path class="st0" d="M100.3,181.4c1.8,0,3.2-1.5,3.2-3.2s-1.5-3.2-3.2-3.2c-1.7,0-3.2,1.5-3.2,3.2S98.5,181.4,100.3,181.4z"/>
		<circle class="st0" cx="116.6" cy="160.6" r="5.1"/>
		<circle class="st0" cx="156.5" cy="180.2" r="3.2"/>
		<path class="st0" d="M110.2,194.5c-0.5-7.3-5-14.5-12.5-12.2c-2.9,0.1-3.9-1.7-3.8-4.6c0-1-0.7-1.8-1.6-1.8c-1,0-1.8,0.7-1.8,1.7
			c-0.2,4.9,2.1,7.4,5.3,8.1v4.6l-2.2,11.5c4.3,2.6,9.3,2.6,13.7,0l-2.3-11.5v-1.6c0.9,1.5,1.6,3.5,1.7,6.1
			C106.8,197,110.4,196.8,110.2,194.5L110.2,194.5z"/>
		<path class="st0" d="M168.2,187.4c-0.5-0.9-1.6-1-2.4-0.5c-0.9,0.6-1.7,0.9-2.3,0.7c-0.7-0.1-5.6-6.1-11.6-1.8
			c-1.3,0.4-1.6,3.2-4.8,1.2c-2.6-1.6-5.3,3.7,2,4.3c0.9,0,1.7-0.2,2.4-0.6l0.7,10.3c-0.2,0.6,0,0-1.3,11.7
			c-0.1,1.2,0.9,2.4,2.1,2.6c1.2,0.1,2.4-0.7,2.6-2.1l0.9-8.7l0.9,8.7c0.1,1.2,1.1,2.1,2.3,2.1c1.3,0,2.4-1.2,2.3-2.6l-1.2-11.1
			c0-0.2-0.1-0.4-0.1-0.6l0.7-10.3C164.6,192.2,170,190,168.2,187.4L168.2,187.4z"/>
	</g>
</g>
<g>
	<g>
		<defs>
			<path id="SVGID_1_" d="M168.3,154.9l29.6-3.9l-11.6,11.6c0,0-5.7,4.5-9.2,1C173.5,160.1,168.3,154.9,168.3,154.9"/>
		</defs>
		<use xlink:href="#SVGID_1_"  style="overflow:visible;fill:#C67A00;"/>
		<clipPath id="SVGID_00000003072816803946102950000003407423273926436227_">
			<use xlink:href="#SVGID_1_"  style="overflow:visible;"/>
		</clipPath>
		<g style="clip-path:url(#SVGID_00000003072816803946102950000003407423273926436227_);">
			<defs>
				
					<rect id="SVGID_00000147904876281570613660000013995268094886372244_" x="171.2" y="143.9" transform="matrix(0.7071 -0.7071 0.7071 0.7071 -54.5333 174.2533)" width="23.7" height="18.2"/>
			</defs>
			<use xlink:href="#SVGID_00000147904876281570613660000013995268094886372244_"  style="overflow:visible;fill:#C67A00;"/>
			<clipPath id="SVGID_00000070108549816060500130000013050681472337275819_">
				<use xlink:href="#SVGID_00000147904876281570613660000013995268094886372244_"  style="overflow:visible;"/>
			</clipPath>
		</g>
	</g>
	<g>
		<defs>
			<path id="SVGID_00000163045826989935814230000014749540337228952505_" d="M177.2,163.8c0,0,1.2,2.3,11.8,2.2
				c11.5-0.1,20.4,1.2,22.7,1.2c2.3,0,4.6-1.4,7.3-4.1c2.7-2.7,8.8-8.8,8.8-8.8s1.3,1.3,2.6,2.6c1.3,1.3,3.4,0.9,3.2-2
				c-0.2-2.9,0.1-17.4,0.1-19.7c0-2.3-0.4-3.6-3.6-3.6c-3.1,0-18,0.3-20.4,0.3c-2.4,0-2,2.1-0.9,3.2c1.1,1.1,2.2,2.2,2.2,2.2
				l-13.4,13.4c0,0-8.3,8.3-11.1,11.1C184,164.6,178.7,164.9,177.2,163.8L177.2,163.8z"/>
		</defs>
		<use xlink:href="#SVGID_00000163045826989935814230000014749540337228952505_"  style="overflow:visible;fill:#FFC000;"/>
		<clipPath id="SVGID_00000016785315544620688790000002482830118608088968_">
			<use xlink:href="#SVGID_00000163045826989935814230000014749540337228952505_"  style="overflow:visible;"/>
		</clipPath>
		<g style="clip-path:url(#SVGID_00000016785315544620688790000002482830118608088968_);">
			<defs>
				
					<rect id="SVGID_00000129909725785215780260000018192363392564984250_" x="179.7" y="135.8" transform="matrix(0.7071 -0.7071 0.7071 0.7071 -47.2044 194.5923)" width="63.2" height="37"/>
			</defs>
			<clipPath id="SVGID_00000151538763007316751840000012564316302416183952_">
				<use xlink:href="#SVGID_00000129909725785215780260000018192363392564984250_"  style="overflow:visible;"/>
			</clipPath>
		</g>
	</g>
	<path class="st3" d="M233.7,154c-0.2-3.6-0.3-7.2-0.3-10.8c0-2.1,0-4.2,0-6.3c0-1.5,0.4-3.8-1.3-4.5c-1.1-0.5-2.6-0.3-3.7-0.2
		c-2.1,0-4.2,0-6.3,0c-3.5,0-7,0-10.4-0.1c3.5-0.2,7-0.4,10.4-0.5c2.2-0.1,4.5-0.1,6.7-0.2c1.3,0,2.9-0.2,4.1,0.5
		c1.6,1,1.3,3.3,1.3,5c0,2.2-0.1,4.4-0.2,6.5C233.9,146.9,233.8,150.5,233.7,154L233.7,154z"/>
</g>
<g>
	<g>
		<defs>
			<path id="SVGID_00000071562103509311007470000000529235245327288980_" d="M90.2,155.2c0,0-5.2,5.2-8.7,8.7c-3.5,3.5-9.2-1-9.2-1
				l-11.6-11.6L90.2,155.2"/>
		</defs>
		<use xlink:href="#SVGID_00000071562103509311007470000000529235245327288980_"  style="overflow:visible;fill:#C67A00;"/>
		<clipPath id="SVGID_00000059993511598393675050000001200380136448874375_">
			<use xlink:href="#SVGID_00000071562103509311007470000000529235245327288980_"  style="overflow:visible;"/>
		</clipPath>
		<g style="clip-path:url(#SVGID_00000059993511598393675050000001200380136448874375_);">
			<defs>
				
					<rect id="SVGID_00000111170801172590978540000005516605265344758689_" x="66.3" y="141.4" transform="matrix(0.7071 -0.7071 0.7071 0.7071 -86.2607 98.1905)" width="18.2" height="23.7"/>
			</defs>
			<use xlink:href="#SVGID_00000111170801172590978540000005516605265344758689_"  style="overflow:visible;fill:#C67A00;"/>
			<clipPath id="SVGID_00000133490097829346940160000016604040675573116556_">
				<use xlink:href="#SVGID_00000111170801172590978540000005516605265344758689_"  style="overflow:visible;"/>
			</clipPath>
		</g>
	</g>
	<g>
		<defs>
			<path id="SVGID_00000083081542850853688540000010727064310837586612_" d="M81.2,164.1c0,0-1.2,2.3-11.8,2.2
				c-11.5-0.1-20.4,1.2-22.7,1.2c-2.3,0-4.6-1.4-7.3-4.1c-2.7-2.7-8.8-8.8-8.8-8.8s-1.3,1.3-2.6,2.6c-1.3,1.3-3.4,0.9-3.2-2
				c0.2-2.9-0.1-17.4-0.1-19.7c0-2.3,0.4-3.6,3.6-3.6c3.1,0,18,0.3,20.4,0.3c2.4,0,2,2.1,0.9,3.2c-1.1,1.1-2.2,2.2-2.2,2.2
				l13.4,13.4c0,0,8.3,8.3,11.1,11.1C74.5,164.8,79.8,165.2,81.2,164.1L81.2,164.1z"/>
		</defs>
		<use xlink:href="#SVGID_00000083081542850853688540000010727064310837586612_"  style="overflow:visible;fill:#FFC000;"/>
		<clipPath id="SVGID_00000136394344757727584620000010926022742434347455_">
			<use xlink:href="#SVGID_00000083081542850853688540000010727064310837586612_"  style="overflow:visible;"/>
		</clipPath>
		<g style="clip-path:url(#SVGID_00000136394344757727584620000010926022742434347455_);">
			<defs>
				
					<rect id="SVGID_00000084527077005775746720000003131021145684951481_" x="28.7" y="122.9" transform="matrix(0.7071 -0.7071 0.7071 0.7071 -95.4603 78.6263)" width="37" height="63.2"/>
			</defs>
			<clipPath id="SVGID_00000144302271427319709140000000701170031494514100_">
				<use xlink:href="#SVGID_00000084527077005775746720000003131021145684951481_"  style="overflow:visible;"/>
			</clipPath>
		</g>
	</g>
	<path class="st3" d="M24.8,154.3c0.2-3.6,0.3-7.2,0.3-10.8c0-2.1,0-4.2,0-6.3c0-1.5-0.4-3.8,1.3-4.5c1.1-0.5,2.6-0.3,3.7-0.2
		c2.1,0,4.2,0,6.3,0c3.5,0,7,0,10.4-0.1c-3.5-0.2-7-0.4-10.4-0.5c-2.2-0.1-4.5-0.1-6.7-0.2c-1.3,0-2.9-0.2-4.1,0.5
		c-1.6,1-1.3,3.3-1.3,5c0,2.2,0.1,4.4,0.2,6.5C24.6,147.2,24.7,150.7,24.8,154.3L24.8,154.3z"/>
</g>
<g>
	<g>
		<defs>
			<path id="SVGID_00000147203592878899129190000009160494874621009319_" d="M96.6,20c0,0,5.2-5.2,8.7-8.7c3.5-3.5,9.2,1,9.2,1
				l11.6,11.6L96.6,20"/>
		</defs>
		<use xlink:href="#SVGID_00000147203592878899129190000009160494874621009319_"  style="overflow:visible;fill:#C67A00;"/>
		<clipPath id="SVGID_00000152983730901113119940000005591644902208298652_">
			<use xlink:href="#SVGID_00000147203592878899129190000009160494874621009319_"  style="overflow:visible;"/>
		</clipPath>
		<g style="clip-path:url(#SVGID_00000152983730901113119940000005591644902208298652_);">
			<defs>
				
					<rect id="SVGID_00000086655699438686150530000012696552061775822265_" x="102.3" y="10.1" transform="matrix(0.7071 -0.7071 0.7071 0.7071 17.0811 85.1903)" width="18.2" height="23.7"/>
			</defs>
			<use xlink:href="#SVGID_00000086655699438686150530000012696552061775822265_"  style="overflow:visible;fill:#C67A00;"/>
			<clipPath id="SVGID_00000090987355266460973390000003318365085999929228_">
				<use xlink:href="#SVGID_00000086655699438686150530000012696552061775822265_"  style="overflow:visible;"/>
			</clipPath>
		</g>
	</g>
	<g>
		<defs>
			<path id="SVGID_00000088094518730481801590000013898991159505905816_" d="M105.5,11.1c0,0,1.2-2.3,11.8-2.2
				c11.5,0.1,20.4-1.2,22.7-1.2c2.3,0,4.6,1.4,7.3,4.1c2.7,2.7,8.8,8.8,8.8,8.8s1.3-1.3,2.6-2.6c1.3-1.3,3.4-0.9,3.2,2
				c-0.2,2.9,0.1,17.4,0.1,19.7c0,2.3-0.4,3.6-3.6,3.6c-3.1,0-18-0.3-20.4-0.3c-2.4,0-2-2.1-0.9-3.2c1.1-1.1,2.2-2.2,2.2-2.2
				L126,24.1c0,0-8.3-8.3-11.1-11.1C112.3,10.4,107,10,105.5,11.1L105.5,11.1z"/>
		</defs>
		<use xlink:href="#SVGID_00000088094518730481801590000013898991159505905816_"  style="overflow:visible;fill:#FFC000;"/>
		<clipPath id="SVGID_00000032623772091818652370000014520621297207393945_">
			<use xlink:href="#SVGID_00000088094518730481801590000013898991159505905816_"  style="overflow:visible;"/>
		</clipPath>
		<g style="clip-path:url(#SVGID_00000032623772091818652370000014520621297207393945_);">
			<defs>
				
					<rect id="SVGID_00000074416892876253577460000003256531769555067053_" x="121.1" y="-10.9" transform="matrix(0.7071 -0.7071 0.7071 0.7071 26.2807 104.7545)" width="37" height="63.2"/>
			</defs>
			<clipPath id="SVGID_00000093864826554613371950000001668832433232701868_">
				<use xlink:href="#SVGID_00000074416892876253577460000003256531769555067053_"  style="overflow:visible;"/>
			</clipPath>
		</g>
	</g>
	<path class="st3" d="M162,20.9c-0.2,3.6-0.3,7.2-0.3,10.8c0,2.1,0,4.2,0,6.3c0,1.5,0.4,3.8-1.3,4.5c-1.1,0.5-2.6,0.3-3.7,0.2
		c-2.1,0-4.2,0-6.3,0c-3.5,0-7,0-10.4,0.1c3.5,0.2,7,0.4,10.4,0.5c2.2,0.1,4.5,0.1,6.7,0.2c1.3,0,2.9,0.2,4.1-0.5
		c1.6-1,1.3-3.3,1.3-5c0-2.2-0.1-4.4-0.2-6.5C162.2,28,162.1,24.5,162,20.9L162,20.9z"/>
</g>
<g>
	<path class="st8" d="M109.8,229c-0.1,0.6-0.3,1.2-0.5,1.4c-0.4,0.3-0.8,0.5-1.3,0.5c-0.6,0-1.1-0.2-1.5-0.7
		c-0.2-0.2-0.3-0.5-0.4-0.8c-0.1-0.5-0.2-1.2-0.1-2.1c0-0.7,0-0.9,0.1-1.4c0-0.5,0.2-1.3,0.4-1.6c0.3-0.4,0.8-0.6,1.5-0.6
		c0.6,0,0.8,0.2,1.2,0.5c0.3,0.2,0.4,0.4,0.5,0.7c0.1,0.2,0.1,0.4,0.2,0.8v0.1c0,0.1,0,0.1-0.1,0.2c0,0-0.1,0.1-0.2,0.1l-0.7,0
		c-0.2,0-0.4-0.1-0.4-0.2l0,0c0-0.1,0-0.2-0.1-0.3l0,0c-0.1-0.1-0.2-0.2-0.4-0.2c-0.2,0-0.4,0.2-0.4,0.8l-0.1,0.3
		c-0.1,0.3-0.1,0.6-0.1,1.2v0.1c0,0.6,0,1,0.1,1.3c0,0.2,0.1,0.3,0.1,0.4c0.1,0.2,0.2,0.2,0.4,0.2c0.2,0,0.3-0.1,0.4-0.2
		c0-0.1,0-0.1,0-0.2c0,0,0-0.1,0-0.1c0-0.1,0.1-0.2,0.3-0.2c0,0,0.2,0,0.5,0c0.3,0,0.5,0,0.6,0.1C109.8,228.8,109.8,228.9,109.8,229
		z"/>
	<path class="st8" d="M114.6,227.5c0,0.6,0,1-0.1,1.4v0c-0.1,0.6-0.3,1.2-0.6,1.4c-0.4,0.3-0.8,0.5-1.3,0.5c-0.6,0-1.1-0.2-1.5-0.7
		c-0.2-0.2-0.3-0.5-0.4-0.8c-0.1-0.5-0.2-1.2-0.1-2.2c0-0.7,0-0.9,0-1.4c0-0.5,0.2-1.3,0.5-1.6c0.3-0.4,0.8-0.6,1.5-0.6
		c0.5,0,0.9,0.1,1.3,0.4c0.4,0.3,0.7,1.4,0.7,2.1c0,0.3,0,0.8,0,1.2V227.5z M113.2,226.7c0-0.2,0-0.5,0-0.6c0-0.4,0-0.6-0.1-0.7
		c-0.1-0.2-0.3-0.2-0.5-0.2h0c-0.2,0-0.3,0.1-0.4,0.3c0,0.1-0.1,0.3-0.1,0.5c0,0.2,0,0.5,0,0.8c0,0.2,0,0.5,0,0.7c0,0.7,0,1,0.1,1.4
		c0,0.2,0.1,0.3,0.1,0.4c0.1,0.2,0.2,0.2,0.4,0.2c0.2,0,0.5-0.1,0.6-0.7c0-0.1,0-0.2,0-0.3c0,0,0-0.1,0-0.1c0-0.3,0-1,0-1.4V226.7z"
		/>
	<path class="st8" d="M120.7,225.4c0,1,0,2.4,0,2.7c0,0.2,0,2.3,0,2.4c0,0.1,0,0.2-0.1,0.3s-0.2,0.1-0.4,0.1h0c-0.2,0-0.7,0-0.7,0
		c-0.1,0-0.3-0.1-0.3-0.3c0,0,0-0.9,0-1.3l0-1.2l0-0.6l-0.4,0.7l0,0.1c0,0.1-0.1,0.3-0.3,0.8c-0.1,0.2-0.3,0.4-0.6,0.4
		c-0.2,0-0.3-0.1-0.4-0.2l-0.6-1.7v0.5l0,1.8l0,0.6c0,0.2-0.2,0.3-0.5,0.3h-0.7c-0.2,0-0.3-0.2-0.3-0.3c0,0,0-0.7,0-1.9l0-1.4
		c0-0.5,0-0.9,0-1.1l0-2.3c0,0,0,0,0,0c0,0,0.2-0.1,0.5-0.1h0.5c0.2,0,0.3,0,0.5,0.4c0,0,0.3,0.7,0.5,1.3c0.1,0.5,0.5,1.4,0.6,1.7
		l0.5-1.2c0.2-0.6,0.6-1.7,0.6-1.7c0.1-0.3,0.3-0.4,0.6-0.4c0.3,0,0.6,0,0.6,0c0,0,0,0,0,0C120.6,223.8,120.7,225.1,120.7,225.4z"/>
	<path class="st8" d="M125.5,225c0.1,0.3,0.1,0.6,0.1,1c0,0.6-0.1,0.9-0.2,1.2c-0.3,0.5-0.6,0.8-1.6,1l-0.6,0.1c0,0-0.1,0-0.1,0
		c0,0,0,0.1,0,0.2v0.2v1.4l0,0.7c0,0,0,0,0,0c0,0-0.2,0.1-0.4,0.1c-0.3,0-0.6,0-0.6,0c0,0-0.3,0-0.3-0.3c0,0,0-0.6,0-1.1
		c0-0.6,0-1.7,0-2.4l0-1c0-0.6,0-1.7,0-1.7v0c0-0.2,0-0.3,0.1-0.4c0.1-0.1,0.2-0.1,0.5-0.1c0,0,0.5,0,0.6,0h0l0.8,0
		C124.6,223.7,125.2,224.2,125.5,225z M124.2,225.5c0-0.2-0.2-0.4-0.4-0.4c-0.2,0-0.3,0-0.5,0c-0.2,0-0.3,0-0.3,0.1v1.6v0.1
		c0,0.1,0,0.2,0,0.2c0.1,0,0.7,0,0.9-0.2c0.1-0.1,0.2-0.4,0.2-0.8v0C124.2,225.8,124.2,225.6,124.2,225.5z"/>
	<path class="st8" d="M126.7,230.8L126.7,230.8c-0.3,0-0.4-0.2-0.4-0.3c0,0,0-0.6,0-1.1c0-0.6,0-1.7,0-2.4l0-1c0-0.6,0-2.1,0-2.1
		c0,0,0,0,0,0s0.1-0.1,0.6-0.1l1,0c0,0,0.1,0,0.2,0h0.1h0.1c1,0,1.6,0.4,1.8,1.3c0.1,0.3,0.1,0.5,0.1,0.9c0,0.5,0,0.7-0.2,1.1
		c-0.1,0.3-0.3,0.5-0.6,0.7c0.1,0.1,0.3,0.7,0.5,1.4c0.2,0.9,0.6,1.5,0.6,1.6c0,0,0,0-0.1,0.1c0,0-0.1,0.1-0.3,0.1h-0.9
		c-0.1,0-0.3-0.2-0.3-0.4l-0.3-0.9c-0.1-0.3-0.2-0.5-0.3-0.8l-0.2-0.7l-0.3,0c0,0-0.1,0-0.1,0c0,0,0,0.1,0,0.2v0.2c0,0,0,1.2,0,1.5
		c0,0.7-0.2,0.8-0.2,0.8c0,0,0,0,0,0c-0.2,0.1-0.3,0.1-0.4,0.1C127,230.9,126.9,230.8,126.7,230.8z M128.8,226.5
		c0.1-0.2,0.1-0.4,0.1-0.6v0c0-0.2,0-0.3,0-0.5c-0.1-0.2-0.2-0.4-0.4-0.4c-0.2,0-0.3,0-0.4,0h0c-0.2,0-0.3,0-0.3,0.1v1.4v0.1
		c0,0.1,0,0.2,0,0.2C127.8,226.8,128.5,226.8,128.8,226.5z"/>
	<path class="st8" d="M135.3,228.9c0.2,0.6,0.5,1.8,0.5,1.8s0,0,0,0c0,0-0.1,0.1-0.3,0.1h-0.9c-0.1,0-0.5-0.3-0.5-1.1
		c0-0.2-0.1-0.5-0.2-0.5c-0.4,0-1,0.1-1,0.1c-0.1,0-0.2,0.1-0.2,0.1c0,0,0,0.1-0.1,0.2c0,0.1-0.1,0.3-0.1,0.4c0,0.2-0.2,0.8-0.4,0.8
		h-0.9c-0.1,0-0.2,0-0.2-0.1c0-0.1-0.1-0.2,0-0.2c0,0,0.1-1,0.4-1.8c0.1-0.4,0.3-1.2,0.5-2c0.1-0.3,0.1-0.5,0.2-0.8
		c0.1-0.3,0.2-0.6,0.2-0.8c0.1-0.2,0.1-0.4,0.1-0.5c0.1-0.6,0.3-0.8,0.6-0.8h0.7c0.1,0,0.2,0.1,0.3,0.2
		C134.1,224,135.1,228.4,135.3,228.9z M132.9,228.1c0.2,0,0.7,0,0.8-0.1c0,0,0,0,0-0.1l-0.4-1.6l-0.5,1.7
		C132.8,228.1,132.8,228.1,132.9,228.1C132.9,228.1,132.9,228.1,132.9,228.1z"/>
	<path class="st8" d="M140.3,229.5c-0.1,0.3-0.4,0.7-0.5,0.9c-0.3,0.3-0.7,0.5-1.5,0.5c0,0-0.6,0-1.3,0H137c-0.2,0-0.4,0-0.5-0.1
		c-0.1-0.1-0.1-0.1-0.1-0.2c0,0,0-3,0-3.8c0-0.3,0-0.6,0-1c0-0.7,0-1.4,0-1.5v0c0-0.2,0-0.4,0.6-0.4l0.4,0c0,0,0.4,0,1.2,0
		c0.7,0.1,1,0.3,1.4,0.7c0.3,0.3,0.4,0.8,0.4,1.3c0,0.2,0,0.5,0,0.7c0,0.2,0,0.4,0,0.6v0.2C140.4,228.4,140.4,228.9,140.3,229.5z
		 M137.9,227.8v1.6v0c0,0,0,0.1,0,0.1c0,0,0,0,0.1,0l0.4,0c0.2,0,0.4-0.1,0.5-0.3c0.1-0.2,0.1-0.4,0.1-0.7c0-0.4,0-0.7,0-0.9
		c0-0.3,0-0.6,0-0.8v-0.6c0-0.2,0-0.3,0-0.5c0-0.2-0.1-0.5-0.4-0.5c-0.3-0.1-0.5,0-0.5,0H138c0,0,0,0,0,0c0,0-0.1,0-0.1,0
		c0,0,0,0.1,0,0.1c0,0.3,0,0.9,0,1.3C137.8,226.9,137.9,227.8,137.9,227.8z"/>
	<path class="st8" d="M145.3,227.5c0,0.6,0,1-0.1,1.4v0c-0.1,0.6-0.3,1.2-0.6,1.4c-0.4,0.3-0.8,0.5-1.3,0.5c-0.7,0-1.1-0.2-1.5-0.7
		c-0.2-0.2-0.3-0.5-0.4-0.8c-0.1-0.5-0.2-1.2-0.2-2.2c0-0.7,0-0.9,0-1.4c0-0.5,0.2-1.3,0.5-1.6c0.3-0.4,0.8-0.6,1.5-0.6
		c0.5,0,0.9,0.1,1.3,0.4c0.4,0.3,0.7,1.4,0.7,2.1c0,0.3,0,0.8,0,1.2V227.5z M143.9,226.7c0-0.2,0-0.5,0-0.6c0-0.4,0-0.6-0.1-0.7
		c-0.1-0.2-0.3-0.2-0.5-0.2h0c-0.2,0-0.3,0.1-0.4,0.3c-0.1,0.1-0.1,0.3-0.1,0.5c0,0.2,0,0.5,0,0.8c0,0.2,0,0.5,0,0.7
		c0,0.7,0,1,0.1,1.4c0,0.2,0.1,0.3,0.1,0.4c0.1,0.2,0.2,0.2,0.4,0.2c0.2,0,0.5-0.1,0.6-0.7c0-0.1,0-0.2,0-0.3c0,0,0-0.1,0-0.1
		c0-0.3,0-1,0-1.4V226.7z"/>
	<path class="st8" d="M146.6,230.8L146.6,230.8c-0.3,0-0.4-0.2-0.4-0.3c0,0,0-0.6,0-1.1c0-0.6,0-1.7,0-2.4l0-1c0-0.6,0-2.1,0-2.1
		c0,0,0,0,0,0s0.1-0.1,0.6-0.1l1,0c0,0,0.1,0,0.2,0h0.1h0.1c1,0,1.6,0.4,1.8,1.3c0.1,0.3,0.1,0.5,0.1,0.9c0,0.5,0,0.7-0.2,1.1
		c-0.1,0.3-0.3,0.5-0.6,0.7c0.1,0.1,0.3,0.7,0.5,1.4c0.2,0.9,0.6,1.5,0.6,1.6c0,0,0,0-0.1,0.1c0,0-0.1,0.1-0.3,0.1h-0.9
		c-0.1,0-0.3-0.2-0.3-0.4l-0.3-0.9c-0.1-0.3-0.2-0.5-0.3-0.8L148,228l-0.3,0c0,0-0.1,0-0.1,0c0,0,0,0.1,0,0.2v0.2c0,0,0,1.2,0,1.5
		c0,0.7-0.2,0.8-0.2,0.8c0,0,0,0,0,0c-0.2,0.1-0.3,0.1-0.4,0.1C146.8,230.9,146.7,230.8,146.6,230.8z M148.6,226.5
		c0.1-0.2,0.1-0.4,0.1-0.6v0c0-0.2,0-0.3,0-0.5c-0.1-0.2-0.2-0.4-0.4-0.4c-0.2,0-0.3,0-0.4,0h0c-0.2,0-0.3,0-0.3,0.1v1.4v0.1
		c0,0.1,0,0.2,0,0.2C147.7,226.8,148.4,226.8,148.6,226.5z"/>
	<path class="st8" d="M97.9,239c-0.1,0.6-0.3,1.2-0.5,1.4c-0.4,0.3-0.8,0.5-1.3,0.5c-0.6,0-1.1-0.2-1.5-0.7
		c-0.2-0.2-0.3-0.5-0.4-0.8c-0.1-0.5-0.2-1.2-0.2-2.1c0-0.7,0-0.9,0.1-1.4c0-0.5,0.2-1.3,0.4-1.6c0.3-0.4,0.8-0.6,1.5-0.6
		c0.6,0,0.8,0.2,1.2,0.5c0.3,0.2,0.4,0.4,0.5,0.7c0.1,0.2,0.1,0.4,0.2,0.8v0.1c0,0.1,0,0.1-0.1,0.2c-0.1,0-0.1,0.1-0.2,0.1l-0.7,0
		c-0.2,0-0.4-0.1-0.4-0.2l0,0c0-0.1,0-0.2-0.1-0.3l0,0c-0.1-0.1-0.2-0.2-0.4-0.2c-0.2,0-0.4,0.2-0.4,0.8l-0.1,0.3
		c-0.1,0.3-0.1,0.6-0.1,1.2v0.1c0,0.6,0,1,0.1,1.3c0,0.2,0.1,0.3,0.1,0.4c0.1,0.2,0.2,0.2,0.4,0.2c0.2,0,0.3-0.1,0.4-0.2
		c0-0.1,0-0.1,0-0.2c0,0,0-0.1,0-0.1c0-0.1,0.1-0.2,0.3-0.2c0,0,0.2,0,0.4,0c0.3,0,0.5,0,0.6,0.1C97.9,238.8,97.9,238.9,97.9,239z"
		/>
	<path class="st8" d="M102.7,237.5c0,0.6,0,1-0.1,1.4v0c-0.1,0.6-0.3,1.2-0.6,1.4c-0.4,0.3-0.8,0.5-1.3,0.5c-0.7,0-1.1-0.2-1.5-0.7
		c-0.2-0.2-0.3-0.5-0.4-0.8c-0.1-0.5-0.2-1.2-0.2-2.2c0-0.7,0-0.9,0-1.4c0-0.5,0.2-1.3,0.5-1.6c0.3-0.4,0.8-0.6,1.5-0.6
		c0.5,0,0.9,0.1,1.3,0.4c0.4,0.3,0.7,1.4,0.7,2.1c0,0.3,0,0.8,0,1.2V237.5z M101.3,236.7c0-0.2,0-0.5,0-0.6c0-0.4,0-0.6-0.1-0.7
		c-0.1-0.2-0.3-0.2-0.5-0.2h0c-0.2,0-0.3,0.1-0.4,0.3c-0.1,0.1-0.1,0.3-0.1,0.5c0,0.2,0,0.5,0,0.8c0,0.2,0,0.5,0,0.7
		c0,0.7,0,1,0.1,1.4c0,0.2,0.1,0.3,0.1,0.4c0.1,0.2,0.2,0.2,0.4,0.2c0.2,0,0.5-0.1,0.6-0.7c0-0.1,0-0.2,0-0.3c0,0,0-0.1,0-0.1
		c0-0.3,0-1,0-1.4V236.7z"/>
	<path class="st8" d="M107.7,235.4c0,1.1,0,2.4-0.1,2.7c0,0.2,0,2.2,0,2.2c0,0.2,0,0.3-0.1,0.4c-0.1,0.1-0.3,0.1-0.4,0.1
		c-0.1,0-0.2,0-0.3,0h-0.1c-0.2,0-0.4-0.2-0.6-0.6c-0.1-0.3-0.9-2.1-1.1-2.5l0,0.4v1.8l0,0.7c0,0.2-0.2,0.3-0.5,0.3H104
		c-0.2,0-0.3-0.2-0.3-0.3c0,0,0-0.7,0-1.9l0-1.4c0-0.5,0-0.8,0-1l0-1.9c0-0.1,0-0.5,0.5-0.5h0.3c0.3,0,0.5,0.1,0.5,0.4
		c0,0,0.2,0.2,0.4,0.9c0.2,0.6,0.3,0.7,0.4,1c0,0.1,0.1,0.2,0.2,0.3c0.2,0.4,0.3,0.5,0.3,0.6l0-0.5c0,0,0-1.8-0.1-2.2
		c0-0.2,0-0.3,0.1-0.4c0.1-0.1,0.2-0.1,0.2-0.1h0.9c0.1,0,0.2,0.1,0.2,0.4C107.7,234.4,107.7,234.9,107.7,235.4z"/>
	<path class="st8" d="M109.2,240.5c-0.2-0.2-0.4-0.5-0.4-0.7c-0.1-0.2-0.1-0.4-0.2-0.7c0-0.1,0-0.1,0-0.2c0.1-0.2,0.5-0.2,0.9-0.2
		l0,0c0.2,0,0.3,0,0.4,0.1c0.1,0.1,0.1,0.2,0.1,0.2v0c0,0.2,0,0.3,0.1,0.4c0.1,0.1,0.2,0.1,0.4,0.1c0.2,0,0.3,0,0.4-0.2
		c0,0,0.2-0.3,0.2-0.6c0-0.6-0.1-0.7-0.6-1c-0.1,0-0.2-0.1-0.3-0.2c-0.5-0.2-1.1-0.5-1.3-0.9c-0.3-0.6-0.3-0.9-0.3-1.1v0
		c0-0.3,0-0.5,0.2-0.8s0.3-0.5,0.5-0.6c0,0,0,0,0.1,0c0.1-0.1,0.2-0.2,0.4-0.2c0.3-0.1,0.5-0.1,0.8-0.1c0.6,0,1,0.1,1.4,0.4
		c0.3,0.3,0.5,0.8,0.5,1.4c0,0.2-0.1,0.2-0.3,0.3l-0.1,0c-0.1,0-0.2,0.1-0.6,0.1c-0.2,0-0.3,0-0.3,0c-0.2,0-0.2-0.3-0.2-0.4
		c0-0.2,0-0.2-0.1-0.3c-0.1-0.1-0.2-0.2-0.4-0.2c-0.2,0-0.3,0-0.4,0.2c-0.1,0.1-0.1,0.3-0.1,0.5c0,0.4,0.1,0.6,0.5,0.8l0.1,0
		c0.3,0.1,0.7,0.3,1,0.4c0.4,0.2,0.7,0.4,0.9,0.9c0.1,0.3,0.2,0.5,0.2,0.9c0,0.3,0,0.6-0.1,0.9c-0.1,0.4-0.3,0.6-0.5,0.8l0,0
		c-0.1,0.1-0.3,0.2-0.5,0.3c-0.3,0.1-0.7,0.1-0.9,0.2h-0.1C109.8,240.9,109.5,240.7,109.2,240.5z"/>
	<path class="st8" d="M117.4,237.8v0.3v0.9c0,0.5-0.2,1-0.5,1.3c-0.4,0.4-0.9,0.6-1.4,0.6c-0.2,0-0.4,0-0.6-0.1
		c-0.4-0.1-0.6-0.3-0.8-0.5c-0.1-0.1-0.2-0.3-0.3-0.5c-0.1-0.2-0.2-0.7-0.2-1v-0.3c0-0.5,0-1,0-1.4c0-0.5,0-0.8,0-1l-0.1-1.9
		c0-0.1,0-0.5,0.6-0.5h0.8c0,0,0,0,0,0c0,0,0.1,0.2,0.1,0.9c0,0.3,0,1.8,0,1.8v1.6l0,0.2c0,0,0,0.5,0,0.8c0,0.2,0.1,0.4,0.2,0.5
		c0.1,0,0.2,0.1,0.3,0.1c0.2,0,0.3,0,0.4-0.2c0.1-0.1,0.2-0.3,0.2-0.6v-0.3c0-0.1,0-0.2,0-0.4c0-0.3,0-0.8,0-1.3c0-0.4,0-0.8,0-1.1
		c0-0.2,0-0.4,0-0.5c0-0.8,0-1.1,0-1.1v0c0-0.1,0-0.2,0.1-0.3c0.1-0.1,0.2-0.1,0.5-0.1c0.2,0,0.6,0.1,0.7,0.2c0,0,0.2,0.2,0.2,0.8
		v0.7c0,0.4,0,0.7,0,1.1C117.4,236.5,117.4,237.5,117.4,237.8z"/>
	<path class="st8" d="M123.5,235.4c0,1,0,2.4,0,2.7c0,0.2,0,2.3,0,2.4c0,0.1,0,0.2-0.1,0.3s-0.2,0.1-0.4,0.1h0c-0.2,0-0.7,0-0.7,0
		c-0.1,0-0.3-0.1-0.3-0.3c0,0,0-0.9,0-1.3l0-1.2l0-0.6l-0.4,0.7l0,0.1c0,0.1-0.1,0.3-0.3,0.8c-0.1,0.2-0.3,0.4-0.6,0.4
		c-0.2,0-0.3-0.1-0.4-0.2l-0.6-1.7v0.5l0,1.8l0,0.6c0,0.2-0.2,0.3-0.5,0.3h-0.7c-0.2,0-0.3-0.2-0.3-0.3c0,0,0-0.7,0-1.9l0-1.4
		c0-0.5,0-0.9,0-1.1l0-2.3c0,0,0,0,0,0c0,0,0.2-0.1,0.5-0.1h0.5c0.2,0,0.3,0,0.5,0.4c0,0,0.3,0.7,0.5,1.3c0.1,0.5,0.5,1.4,0.6,1.7
		l0.5-1.2c0.2-0.6,0.6-1.7,0.6-1.7c0.1-0.3,0.3-0.4,0.6-0.4c0.3,0,0.6,0,0.6,0c0,0,0,0,0,0C123.5,233.8,123.5,235.1,123.5,235.4z"/>
	<path class="st8" d="M124.6,240.5c0,0,0-0.7,0-1.9l0-1.4c0-0.5,0-0.9,0-1.1l0-1.9c0-0.1,0-0.5,0.5-0.5h0.6c0.1,0,0.2,0,0.2,0.1
		c0.1,0.2,0.1,0.5,0,1.2c0,0.3,0,1.4,0,1.5l0,1.6v1.8l0,0.7c0,0.2-0.2,0.3-0.5,0.3h-0.7C124.7,240.8,124.6,240.7,124.6,240.5z"/>
	<path class="st8" d="M130.9,239.5c-0.1,0.3-0.4,0.7-0.5,0.9c-0.3,0.3-0.7,0.5-1.5,0.5c0,0-0.6,0-1.3,0h-0.1c-0.2,0-0.4,0-0.5-0.1
		c-0.1-0.1-0.1-0.1-0.1-0.2c0,0,0-3,0-3.8c0-0.3,0-0.6,0-1c0-0.7,0-1.4,0-1.5v0c0-0.2,0-0.4,0.6-0.4l0.4,0c0,0,0.4,0,1.2,0
		c0.7,0.1,1,0.3,1.4,0.7c0.3,0.3,0.4,0.8,0.4,1.3c0,0.2,0,0.5,0,0.7c0,0.2,0,0.4,0,0.6v0.2C131.1,238.4,131.1,238.9,130.9,239.5z
		 M128.5,237.8v1.6v0c0,0,0,0.1,0,0.1c0,0,0,0,0.1,0l0.4,0c0.2,0,0.4-0.1,0.5-0.3c0.1-0.2,0.1-0.4,0.1-0.7c0-0.4,0-0.7,0-0.9
		c0-0.3,0-0.6,0-0.8v-0.6c0-0.2,0-0.3,0-0.5c0-0.2-0.1-0.5-0.4-0.5c-0.3-0.1-0.5,0-0.5,0h-0.1c0,0,0,0,0,0c0,0-0.1,0-0.1,0
		c0,0,0,0.1,0,0.1c0,0.3,0,0.9,0,1.3C128.5,236.9,128.5,237.8,128.5,237.8z"/>
	<path class="st8" d="M135.9,237.5c0,0.6,0,1-0.1,1.4v0c-0.1,0.6-0.3,1.2-0.6,1.4c-0.4,0.3-0.8,0.5-1.3,0.5c-0.7,0-1.1-0.2-1.5-0.7
		c-0.2-0.2-0.3-0.5-0.4-0.8c-0.1-0.5-0.2-1.2-0.2-2.2c0-0.7,0-0.9,0-1.4c0-0.5,0.2-1.3,0.5-1.6c0.3-0.4,0.8-0.6,1.5-0.6
		c0.5,0,0.9,0.1,1.3,0.4c0.4,0.3,0.7,1.4,0.7,2.1c0,0.3,0,0.8,0,1.2V237.5z M134.5,236.7c0-0.2,0-0.5,0-0.6c0-0.4,0-0.6-0.1-0.7
		c-0.1-0.2-0.3-0.2-0.5-0.2h0c-0.2,0-0.3,0.1-0.4,0.3c-0.1,0.1-0.1,0.3-0.1,0.5c0,0.2,0,0.5,0,0.8c0,0.2,0,0.5,0,0.7
		c0,0.7,0,1,0.1,1.4c0,0.2,0.1,0.3,0.1,0.4c0.1,0.2,0.2,0.2,0.4,0.2c0.2,0,0.5-0.1,0.6-0.7c0-0.1,0-0.2,0-0.3c0,0,0-0.1,0-0.1
		c0-0.3,0-1,0-1.4V236.7z"/>
	<path class="st8" d="M137.3,240.8L137.3,240.8c-0.3,0-0.4-0.2-0.4-0.3c0,0,0-0.6,0-1.1c0-0.6,0-1.7,0-2.4l0-1c0-0.6,0-2.1,0-2.1
		c0,0,0,0,0,0s0.1-0.1,0.6-0.1l1,0c0,0,0.1,0,0.2,0h0.1h0.1c1,0,1.6,0.4,1.8,1.3c0.1,0.3,0.1,0.5,0.1,0.9c0,0.5,0,0.7-0.2,1.1
		c-0.1,0.3-0.3,0.5-0.6,0.7c0.1,0.1,0.3,0.7,0.5,1.4c0.2,0.9,0.6,1.5,0.6,1.6c0,0,0,0-0.1,0.1c0,0-0.1,0.1-0.3,0.1h-0.9
		c-0.1,0-0.3-0.2-0.3-0.4l-0.3-0.9c-0.1-0.3-0.2-0.5-0.3-0.8l-0.2-0.7l-0.3,0c0,0-0.1,0-0.1,0c0,0,0,0.1,0,0.2v0.2c0,0,0,1.2,0,1.5
		c0,0.7-0.2,0.8-0.2,0.8c0,0,0,0,0,0c-0.2,0.1-0.3,0.1-0.4,0.1C137.5,240.9,137.4,240.8,137.3,240.8z M139.3,236.5
		c0.1-0.2,0.1-0.4,0.1-0.6v0c0-0.2,0-0.3,0-0.5c-0.1-0.2-0.2-0.4-0.4-0.4c-0.2,0-0.3,0-0.4,0h0c-0.2,0-0.3,0-0.3,0.1v1.4v0.1
		c0,0.1,0,0.2,0,0.2C138.3,236.8,139,236.8,139.3,236.5z"/>
	<path class="st8" d="M145.1,240.8c-0.2,0-0.3-0.2-0.3-0.3c0,0,0-0.6,0-1.1c0-0.6,0-1.7,0-2.5l0-1c0-0.6,0-1.7,0-1.7v0
		c0-0.1,0-0.3,0.1-0.4c0.1-0.1,0.2-0.1,0.5-0.1c0,0,0.2,0,0.4,0h0.1c0.3,0,0.9,0,1.5,0l0.5,0c0.2,0,0.3,0.1,0.3,0.3v0.5
		c0,0.4-0.1,0.6-0.3,0.6c0,0-0.5,0-0.9,0c-0.3,0-0.7,0-0.7,0c-0.1,0-0.1,0.1-0.1,0.1v1.2c0,0.1,0,0.2,0.1,0.2c0,0,0.4,0,0.7,0
		c0.3,0,0.7,0,0.7,0c0.2,0,0.3,0.1,0.3,0.3v0.4c0,0.1,0,0.6-0.3,0.7c-0.2,0-0.3,0-0.5,0c-0.1,0-0.2,0-0.3,0c-0.4,0-0.6,0-0.7,0.1
		c0,0,0,0.1,0,0.1c0,0,0,0.9,0,1.5c0,0.7-0.1,1.2-0.5,1.2C145.4,240.9,145.1,240.8,145.1,240.8z"/>
	<path class="st8" d="M148.9,240.5c0,0,0-0.7,0-1.9l0-1.4c0-0.5,0-0.9,0-1.1l0-1.9c0-0.1,0-0.5,0.5-0.5h0.6c0.1,0,0.2,0,0.2,0.1
		c0.1,0.2,0.2,0.5,0,1.2c0,0.3,0,1.4,0,1.5l0,1.6v1.8l0,0.7c0,0.2-0.2,0.3-0.5,0.3h-0.7C149.1,240.8,148.9,240.7,148.9,240.5z"/>
	<path class="st8" d="M155.6,235.4c0,1.1,0,2.4-0.1,2.7c0,0.2,0,2.2,0,2.2c0,0.2,0,0.3-0.1,0.4c-0.1,0.1-0.3,0.1-0.4,0.1
		c-0.1,0-0.2,0-0.3,0h-0.1c-0.2,0-0.4-0.2-0.6-0.6c-0.1-0.3-0.9-2.1-1.1-2.5l0,0.4v1.8l0,0.7c0,0.2-0.2,0.3-0.5,0.3h-0.7
		c-0.2,0-0.3-0.2-0.3-0.3c0,0,0-0.7,0-1.9l0-1.4c0-0.5,0-0.8,0-1l0-1.9c0-0.1,0-0.5,0.5-0.5h0.3c0.3,0,0.5,0.1,0.5,0.4
		c0,0,0.2,0.2,0.4,0.9c0.2,0.6,0.3,0.7,0.4,1c0,0.1,0.1,0.2,0.2,0.3c0.2,0.4,0.3,0.5,0.3,0.6l0-0.5c0,0,0-1.8-0.1-2.2
		c0-0.2,0-0.3,0.1-0.4c0.1-0.1,0.2-0.1,0.2-0.1h0.9c0.1,0,0.2,0.1,0.2,0.4C155.5,234.4,155.6,234.9,155.6,235.4z"/>
	<path class="st8" d="M160.5,238.9c0.2,0.6,0.5,1.8,0.5,1.8s0,0,0,0c0,0-0.1,0.1-0.3,0.1h-0.9c-0.1,0-0.5-0.3-0.5-1.1
		c0-0.2-0.1-0.5-0.2-0.5c-0.4,0-1,0.1-1,0.1c-0.1,0-0.2,0.1-0.2,0.1c0,0,0,0.1-0.1,0.2c0,0.1-0.1,0.3-0.1,0.4c0,0.2-0.2,0.8-0.4,0.8
		h-0.9c-0.1,0-0.2,0-0.2-0.1c0-0.1-0.1-0.2,0-0.2c0,0,0.1-1,0.4-1.8c0.1-0.4,0.3-1.2,0.5-2c0.1-0.3,0.1-0.5,0.2-0.8
		c0.1-0.3,0.2-0.6,0.2-0.8c0.1-0.2,0.1-0.4,0.1-0.5c0.1-0.6,0.3-0.8,0.6-0.8h0.7c0.1,0,0.2,0.1,0.3,0.2
		C159.3,234,160.3,238.4,160.5,238.9z M158.2,238.1c0.2,0,0.7,0,0.8-0.1c0,0,0,0,0-0.1l-0.4-1.6l-0.5,1.7
		C158.1,238.1,158.1,238.1,158.2,238.1C158.1,238.1,158.1,238.1,158.2,238.1z"/>
	<path class="st8" d="M165.2,240.1L165.2,240.1c0,0.5-0.2,0.7-0.3,0.7c0,0-0.1,0-0.3,0c-0.2,0-0.4,0-0.7,0c-0.4,0-0.6,0-0.8,0
		c-0.1,0-0.2,0-0.4,0h-0.3c-0.1,0-0.1,0-0.3,0c-0.3,0-0.4-0.1-0.4-0.4c0,0,0-0.1,0-0.2c0-0.2,0-0.5,0-0.7c0-0.3,0-0.7,0-1.1
		c0-0.4,0-0.9,0-1.3c0-0.3,0-0.7,0-1.1l0-1.2c0-0.5,0-0.8,0-0.8c0-0.2,0-0.3,0.1-0.3c0.1-0.1,0.2-0.1,0.2-0.1h1c0,0,0,0,0,0
		c0.1,0.1,0.1,1.1,0.1,1.7c0,0.4,0,0.8,0,1c0,0.4,0,0.8,0,1.4c0,0.7,0,1.4,0,1.6c0.1,0,0.2,0,0.3,0c0.1,0,0.3,0,0.5,0
		c0.2,0,0.3,0,0.5,0c0.2,0,0.3,0,0.5,0C165.3,239.5,165.3,239.7,165.2,240.1z"/>
</g>
<g>
	<g>
		<path class="st8" d="M189.7,93.6c-0.1,0.6-0.3,1.2-0.5,1.4c-0.4,0.3-0.8,0.5-1.3,0.5c-0.6,0-1.1-0.2-1.5-0.7
			c-0.2-0.2-0.3-0.5-0.4-0.8c-0.1-0.5-0.2-1.2-0.2-2.1c0-0.7,0-0.9,0.1-1.4c0-0.5,0.2-1.3,0.4-1.6c0.3-0.4,0.8-0.6,1.5-0.6
			c0.6,0,0.8,0.2,1.2,0.5c0.3,0.2,0.4,0.4,0.5,0.7c0.1,0.2,0.1,0.4,0.2,0.8v0.1c0,0.1,0,0.1-0.1,0.2c-0.1,0-0.1,0.1-0.2,0.1l-0.7,0
			c-0.2,0-0.4-0.1-0.4-0.2l0,0c0-0.1,0-0.2-0.1-0.3l0,0c-0.1-0.1-0.2-0.2-0.4-0.2c-0.2,0-0.4,0.2-0.4,0.8l-0.1,0.3
			c-0.1,0.3-0.1,0.6-0.1,1.2v0.1c0,0.6,0,1,0.1,1.3c0,0.2,0.1,0.3,0.1,0.4c0.1,0.2,0.2,0.2,0.4,0.2c0.2,0,0.3-0.1,0.4-0.2
			c0-0.1,0-0.1,0-0.2c0,0,0-0.1,0-0.1c0-0.1,0.1-0.2,0.3-0.2c0,0,0.2,0,0.4,0c0.3,0,0.5,0,0.6,0.1C189.7,93.5,189.7,93.6,189.7,93.6
			z"/>
		<path class="st8" d="M194.2,94.8L194.2,94.8c0,0.5-0.2,0.7-0.3,0.7c0,0-0.1,0-0.3,0c-0.2,0-0.4,0-0.7,0c-0.4,0-0.6,0-0.8,0
			c-0.1,0-0.2,0-0.4,0h-0.3c-0.1,0-0.1,0-0.3,0c-0.3,0-0.4-0.1-0.4-0.4c0,0,0-0.1,0-0.2c0-0.2,0-0.5,0-0.7c0-0.3,0-0.7,0-1.1
			c0-0.4,0-0.9,0-1.3c0-0.3,0-0.7,0-1.1l0-1.2c0-0.5,0-0.8,0-0.8c0-0.2,0-0.3,0.1-0.3c0.1-0.1,0.2-0.1,0.2-0.1h1c0,0,0,0,0,0
			c0.1,0.1,0.1,1.1,0.1,1.7c0,0.4,0,0.8,0,1c0,0.4,0,0.8,0,1.4c0,0.7,0,1.4,0,1.6c0.1,0,0.2,0,0.3,0c0.1,0,0.3,0,0.5,0
			c0.2,0,0.3,0,0.5,0c0.2,0,0.3,0,0.5,0C194.2,94.1,194.2,94.3,194.2,94.8z"/>
		<path class="st8" d="M195,95.2c0,0,0-0.7,0-1.9l0-1.4c0-0.5,0-0.9,0-1.1l0-1.9c0-0.1,0-0.5,0.5-0.5h0.6c0.1,0,0.2,0,0.2,0.1
			c0.1,0.2,0.2,0.5,0,1.2c0,0.3,0,1.4,0,1.5l0,1.6v1.8l0,0.7c0,0.2-0.2,0.3-0.5,0.3h-0.7C195.1,95.5,195,95.3,195,95.2z"/>
		<path class="st8" d="M197.6,95.5c-0.1-0.1-0.1-0.1-0.1-0.2v0c0,0,0.1-2.9,0-4l0-2.4c0-0.2,0-0.3,0.1-0.3c0.1-0.1,0.2-0.1,0.3-0.1
			c0,0,0,0,0,0c0,0,0.5,0.1,0.8,0.1l0.3,0c0.2,0,0.4,0,0.6-0.1c0.6-0.1,1,0,1,0c0.1,0,0.1,0,0.2,0.1c0.1,0.1,0.1,0.2,0.1,0.5
			c0,0.5-0.2,0.8-0.3,0.8c0,0-0.2,0-0.6,0c-0.3,0-1.1,0-1.1,0c0,0,0,0-0.1,0c0,0,0,0.1,0,0.1v0v1.1v0c0,0,0,0.1,0,0.1c0,0,0,0,0.1,0
			c0,0,0.4,0.1,1,0c0.2,0,0.4,0,0.4,0c0.2,0,0.4,0.2,0.4,0.7c0,0.6-0.3,0.6-0.4,0.6c0,0-0.2,0-0.6,0c-0.2,0-0.8,0-0.8,0
			c-0.1,0-0.1,0.1-0.1,0.2v0.1V94c0,0.1,0,0.2,0.1,0.2c0,0,0.7,0,0.8,0c0.1,0,0.8-0.1,0.8-0.1c0.1,0,0.2,0,0.2,0.1
			c0.1,0.1,0.2,0.3,0.2,0.6c0,0.6-0.3,0.6-0.4,0.6h0c0,0-0.2,0-0.7,0c-0.4,0-1.2,0-1.4,0l-0.4,0c-0.2,0-0.3,0-0.4,0
			C197.7,95.5,197.6,95.5,197.6,95.5z"/>
		<path class="st8" d="M206,90c0,1.1-0.1,2.4-0.1,2.7c0,0.2,0,2.2,0,2.2c0,0.2,0,0.3-0.1,0.4c-0.1,0.1-0.3,0.1-0.4,0.1
			c-0.1,0-0.2,0-0.3,0H205c-0.2,0-0.4-0.2-0.6-0.6c-0.1-0.3-0.9-2.1-1.1-2.5l0,0.4v1.8l0,0.7c0,0.2-0.2,0.3-0.5,0.3h-0.7
			c-0.2,0-0.3-0.2-0.3-0.3c0,0,0-0.7,0-1.9l0-1.4c0-0.5,0-0.8,0-1l0-1.9c0-0.1,0-0.5,0.5-0.5h0.3c0.3,0,0.4,0.1,0.5,0.4
			c0,0,0.2,0.2,0.4,0.9c0.2,0.6,0.3,0.7,0.4,1c0,0.1,0.1,0.2,0.2,0.3c0.2,0.4,0.3,0.5,0.3,0.6l0-0.5c0,0,0-1.8-0.1-2.2
			c0-0.2,0-0.3,0.1-0.4c0.1-0.1,0.2-0.1,0.2-0.1h0.9c0.1,0,0.2,0.1,0.2,0.4C206,89.1,206,89.5,206,90z"/>
		<path class="st8" d="M208.4,95.5c-0.2,0-0.3-0.2-0.3-0.3c0,0,0-0.7,0-1.9c0-0.5,0-1,0-1.4c0-0.5,0-0.8,0-1c0-0.2,0-0.8,0-1
			c0,0,0,0,0,0h-0.9c-0.1,0-0.2,0-0.3-0.1c-0.1-0.1-0.1-0.3-0.1-0.5c0.1-0.6,0.1-0.7,0.4-0.7c0.1,0,0.2,0,0.3,0c0.3,0,0.7,0,1.1,0
			l0.5,0l0.4,0h1v0l0,0c0.1,0,0.1,0,0.2,0.1c0.1,0.1,0.1,0.3,0.1,0.6c0,0.3-0.2,0.7-0.3,0.7c0,0-0.2,0-0.6,0c-0.1,0-0.2,0-0.4,0
			c0,0,0,0,0,0c0,0.4,0,1.3,0,1.3v1.6c0,0,0,0.4,0,0.9c0,0.1,0,0.1,0,0.2c0.1,0.6,0.1,1.3-0.1,1.5c-0.1,0.1-0.3,0.2-0.6,0.2
			C208.6,95.5,208.4,95.5,208.4,95.5z"/>
		<path class="st8" d="M211.7,95.5c-0.1-0.1-0.1-0.1-0.1-0.2v0c0,0,0.1-2.9,0-4l0-2.4c0-0.2,0-0.3,0.1-0.3c0.1-0.1,0.2-0.1,0.3-0.1
			c0,0,0,0,0,0c0,0,0.5,0.1,0.8,0.1l0.3,0c0.2,0,0.4,0,0.6-0.1c0.6-0.1,1,0,1,0c0.1,0,0.1,0,0.2,0.1c0.1,0.1,0.1,0.2,0.1,0.5
			c0,0.5-0.2,0.8-0.3,0.8c0,0-0.2,0-0.6,0c-0.3,0-1.1,0-1.1,0c0,0,0,0-0.1,0c0,0,0,0.1,0,0.1v0v1.1v0c0,0,0,0.1,0,0.1c0,0,0,0,0.1,0
			c0,0,0.4,0.1,1,0c0.2,0,0.4,0,0.4,0c0.2,0,0.4,0.2,0.4,0.7c0,0.6-0.3,0.6-0.4,0.6c0,0-0.2,0-0.6,0c-0.2,0-0.8,0-0.8,0
			c-0.1,0-0.1,0.1-0.1,0.2v0.1V94c0,0.1,0,0.2,0.1,0.2c0,0,0.7,0,0.8,0c0.1,0,0.8-0.1,0.8-0.1c0.1,0,0.2,0,0.2,0.1
			c0.1,0.1,0.2,0.3,0.2,0.6c0,0.6-0.3,0.6-0.4,0.6h0c0,0-0.2,0-0.7,0c-0.4,0-1.2,0-1.4,0l-0.4,0c-0.2,0-0.3,0-0.4,0
			C211.8,95.5,211.7,95.5,211.7,95.5z"/>
		<path class="st8" d="M171.8,100c0,1,0,2.4,0,2.7c0,0.2,0,2.3,0,2.4c0,0.1,0,0.2-0.1,0.3s-0.2,0.1-0.4,0.1h0c-0.2,0-0.7,0-0.7,0
			c-0.1,0-0.3-0.1-0.3-0.3c0,0,0-0.9,0-1.3l0-1.2l0-0.6l-0.4,0.7l0,0.1c0,0.1-0.1,0.3-0.3,0.8c-0.1,0.2-0.3,0.4-0.6,0.4
			c-0.2,0-0.3-0.1-0.4-0.2l-0.6-1.7v0.5l0,1.8l0,0.6c0,0.2-0.2,0.3-0.5,0.3H167c-0.2,0-0.3-0.2-0.3-0.3c0,0,0-0.7,0-1.9l0-1.4
			c0-0.5,0-0.9,0-1.1l0-2.3c0,0,0,0,0,0c0,0,0.2-0.1,0.5-0.1h0.5c0.2,0,0.3,0,0.5,0.4c0,0,0.3,0.7,0.5,1.3c0.1,0.5,0.5,1.4,0.6,1.7
			l0.5-1.2c0.2-0.6,0.6-1.7,0.6-1.7c0.1-0.3,0.3-0.4,0.6-0.4c0.3,0,0.6,0,0.6,0c0,0,0,0,0,0C171.7,98.5,171.8,99.7,171.8,100z"/>
		<path class="st8" d="M172.8,105.2c0,0,0-0.7,0-1.9l0-1.4c0-0.5,0-0.9,0-1.1l0-1.9c0-0.1,0-0.5,0.5-0.5h0.6c0.1,0,0.2,0,0.2,0.1
			c0.1,0.2,0.1,0.5,0,1.2c0,0.3,0,1.4,0,1.5l0,1.6v1.8l0,0.7c0,0.2-0.2,0.3-0.5,0.3h-0.7C172.9,105.5,172.8,105.3,172.8,105.2z"/>
		<path class="st8" d="M175.8,105.1c-0.2-0.2-0.4-0.5-0.4-0.7c-0.1-0.2-0.1-0.4-0.2-0.7c0-0.1,0-0.1,0-0.2c0.1-0.2,0.5-0.2,0.9-0.2
			l0,0c0.2,0,0.3,0,0.4,0.1c0.1,0.1,0.1,0.2,0.1,0.2v0c0,0.2,0,0.3,0.1,0.4c0.1,0.1,0.2,0.1,0.4,0.1c0.2,0,0.3,0,0.4-0.2
			c0.1,0,0.2-0.3,0.2-0.6c0-0.6-0.1-0.7-0.6-1c-0.1,0-0.2-0.1-0.3-0.2c-0.5-0.2-1.1-0.5-1.3-0.9c-0.3-0.6-0.3-0.9-0.3-1.1v0
			c0-0.3,0-0.5,0.2-0.8s0.3-0.5,0.5-0.6c0,0,0,0,0.1,0c0.1-0.1,0.2-0.2,0.4-0.2c0.3-0.1,0.5-0.1,0.8-0.1c0.6,0,1,0.1,1.4,0.4
			c0.3,0.3,0.5,0.8,0.5,1.4c0,0.2-0.1,0.2-0.3,0.3l-0.1,0c-0.1,0-0.2,0.1-0.6,0.1c-0.2,0-0.3,0-0.3,0c-0.2,0-0.2-0.3-0.2-0.4
			c0-0.2,0-0.2-0.1-0.3c-0.1-0.1-0.2-0.2-0.4-0.2c-0.2,0-0.3,0-0.4,0.2c-0.1,0.1-0.1,0.3-0.1,0.5c0,0.4,0.1,0.6,0.5,0.8l0.1,0
			c0.3,0.1,0.7,0.3,1,0.4c0.4,0.2,0.7,0.4,0.9,0.9c0.1,0.3,0.2,0.5,0.2,0.9c0,0.3,0,0.6-0.1,0.9c-0.1,0.4-0.3,0.6-0.5,0.8l0,0
			c-0.1,0.1-0.3,0.2-0.5,0.3c-0.3,0.1-0.7,0.1-0.9,0.2H177C176.4,105.6,176.1,105.4,175.8,105.1z"/>
		<path class="st8" d="M180.1,105.2c0,0,0-0.7,0-1.9l0-1.4c0-0.5,0-0.9,0-1.1l0-1.9c0-0.1,0-0.5,0.5-0.5h0.6c0.1,0,0.2,0,0.2,0.1
			c0.1,0.2,0.1,0.5,0,1.2c0,0.3,0,1.4,0,1.5l0,1.6v1.8l0,0.7c0,0.2-0.2,0.3-0.5,0.3h-0.7C180.2,105.5,180.1,105.3,180.1,105.2z"/>
		<path class="st8" d="M186.6,102.2c0,0.6,0,1-0.1,1.4v0c-0.1,0.6-0.3,1.2-0.6,1.4c-0.4,0.3-0.8,0.5-1.3,0.5c-0.7,0-1.1-0.2-1.5-0.7
			c-0.2-0.2-0.3-0.5-0.4-0.8c-0.1-0.5-0.2-1.2-0.2-2.2c0-0.7,0-0.9,0-1.4c0-0.5,0.2-1.3,0.5-1.6c0.3-0.4,0.8-0.6,1.5-0.6
			c0.5,0,0.9,0.1,1.3,0.4c0.4,0.3,0.7,1.4,0.7,2.1c0,0.3,0,0.8,0,1.2V102.2z M185.2,101.3c0-0.2,0-0.5,0-0.6c0-0.4,0-0.6-0.1-0.7
			c-0.1-0.2-0.3-0.2-0.5-0.2h0c-0.2,0-0.4,0.1-0.4,0.3c-0.1,0.1-0.1,0.3-0.1,0.5c0,0.2,0,0.5,0,0.8c0,0.2,0,0.5,0,0.7
			c0,0.7,0,1,0.1,1.4c0,0.2,0.1,0.3,0.1,0.4c0.1,0.2,0.2,0.2,0.4,0.2c0.2,0,0.5-0.1,0.6-0.7c0-0.1,0-0.2,0-0.3c0,0,0-0.1,0-0.1
			c0-0.3,0-1,0-1.4V101.3z M184,97.9C183.9,97.9,183.9,97.8,184,97.9c0,0,0.1-0.2,0.3-0.5c0.1-0.3,0.3-0.7,0.3-0.7
			c0.2-0.4,0.9-0.2,0.9-0.2c0.1,0,0.2,0.1,0.2,0.2c0,0.1-0.1,0.3-0.3,0.6c-0.1,0.1-0.1,0.1-0.2,0.2c-0.2,0.2-0.4,0.4-0.8,0.4
			C184.1,98,184,97.9,184,97.9z"/>
		<path class="st8" d="M191.6,100c0,1.1-0.1,2.4-0.1,2.7c0,0.2,0,2.2,0,2.2c0,0.2,0,0.3-0.1,0.4c-0.1,0.1-0.3,0.1-0.4,0.1
			c-0.1,0-0.2,0-0.3,0h-0.1c-0.2,0-0.4-0.2-0.6-0.6c-0.1-0.3-0.9-2.1-1.1-2.5l0,0.4v1.8l0,0.7c0,0.2-0.2,0.3-0.5,0.3h-0.7
			c-0.2,0-0.3-0.2-0.3-0.3c0,0,0-0.7,0-1.9l0-1.4c0-0.5,0-0.8,0-1l0-1.9c0-0.1,0-0.5,0.5-0.5h0.3c0.3,0,0.4,0.1,0.5,0.4
			c0,0,0.2,0.2,0.4,0.9c0.2,0.6,0.3,0.7,0.4,1c0,0.1,0.1,0.2,0.2,0.3c0.2,0.4,0.3,0.5,0.3,0.6l0-0.5c0,0,0-1.8-0.1-2.2
			c0-0.2,0-0.3,0.1-0.4c0.1-0.1,0.2-0.1,0.2-0.1h0.9c0.1,0,0.2,0.1,0.2,0.4C191.5,99.1,191.6,99.5,191.6,100z"/>
		<path class="st8" d="M199.4,104.1c-0.1,0.3-0.4,0.7-0.5,0.9c-0.3,0.3-0.7,0.5-1.5,0.5c0,0-0.6,0-1.3,0h-0.1c-0.2,0-0.4,0-0.5-0.1
			c-0.1-0.1-0.1-0.1-0.1-0.2c0,0,0-3,0-3.8c0-0.3,0-0.6,0-1c0-0.7,0-1.4,0-1.5v0c0-0.2,0-0.4,0.6-0.4l0.3,0c0,0,0.5,0,1.2,0
			c0.7,0.1,1,0.3,1.4,0.7c0.3,0.3,0.4,0.8,0.5,1.3c0,0.2,0,0.5,0,0.7c0,0.2,0,0.4,0,0.6v0.2C199.5,103.1,199.6,103.6,199.4,104.1z
			 M197,102.4v1.6v0c0,0,0,0.1,0,0.1c0,0,0,0,0,0l0.4,0c0.2,0,0.4-0.1,0.5-0.3c0.1-0.2,0.2-0.4,0.2-0.7c0-0.4,0-0.7,0-0.9
			c0-0.3,0-0.6,0-0.8v-0.6c0-0.2,0-0.3,0-0.5c0-0.2-0.1-0.5-0.4-0.5c-0.3-0.1-0.5,0-0.5,0h-0.1c0,0,0,0-0.1,0c0,0-0.1,0-0.1,0
			c0,0,0,0.1,0,0.1c0,0.3,0,0.9,0,1.3C197,101.6,197,102.4,197,102.4z"/>
		<path class="st8" d="M200.5,105.5c-0.1-0.1-0.1-0.1-0.1-0.2v0c0,0,0.1-2.9,0-4l0-2.4c0-0.2,0-0.3,0.1-0.3c0.1-0.1,0.2-0.1,0.3-0.1
			c0,0,0,0,0.1,0c0,0,0.5,0.1,0.8,0.1l0.3,0c0.2,0,0.3,0,0.6-0.1c0.6-0.1,1,0,1,0c0.1,0,0.2,0,0.2,0.1c0.1,0.1,0.2,0.2,0.1,0.5
			c0,0.5-0.2,0.8-0.3,0.8c0,0-0.2,0-0.6,0c-0.3,0-1.1,0-1.1,0c0,0,0,0,0,0c0,0,0,0.1,0,0.1v0v1.1v0c0,0,0,0.1,0,0.1c0,0,0,0,0,0
			c0,0,0.4,0.1,1,0c0.2,0,0.4,0,0.4,0c0.1,0,0.4,0.2,0.4,0.7c0,0.6-0.3,0.6-0.4,0.6c0,0-0.2,0-0.7,0c-0.2,0-0.7,0-0.8,0
			c-0.1,0-0.1,0.1-0.1,0.2v0.1v1.1c0,0.1,0,0.2,0.1,0.2c0,0,0.7,0,0.8,0c0.1,0,0.8-0.1,0.8-0.1c0.1,0,0.2,0,0.2,0.1
			c0.1,0.1,0.2,0.3,0.2,0.6c0,0.6-0.3,0.6-0.4,0.6h0c0,0-0.2,0-0.6,0c-0.5,0-1.2,0-1.4,0l-0.4,0c-0.1,0-0.3,0-0.4,0
			C200.6,105.5,200.6,105.5,200.5,105.5z"/>
		<path class="st8" d="M211.6,103.6c-0.1,0.6-0.3,1.2-0.5,1.4c-0.4,0.3-0.8,0.5-1.3,0.5c-0.6,0-1.1-0.2-1.5-0.7
			c-0.2-0.2-0.3-0.5-0.4-0.8c-0.1-0.5-0.2-1.2-0.2-2.1c0-0.7,0-0.9,0.1-1.4c0-0.5,0.2-1.3,0.4-1.6c0.3-0.4,0.8-0.6,1.5-0.6
			c0.6,0,0.8,0.2,1.2,0.5c0.3,0.2,0.4,0.4,0.5,0.7c0.1,0.2,0.1,0.4,0.2,0.8v0.1c0,0.1,0,0.1-0.1,0.2c-0.1,0-0.1,0.1-0.2,0.1l-0.7,0
			c-0.2,0-0.4-0.1-0.4-0.2l0,0c0-0.1,0-0.2-0.1-0.3l0,0c-0.1-0.1-0.2-0.2-0.4-0.2c-0.2,0-0.4,0.2-0.4,0.8l-0.1,0.3
			c-0.1,0.3-0.1,0.6-0.1,1.2v0.1c0,0.6,0,1,0.1,1.3c0,0.2,0.1,0.3,0.1,0.4c0.1,0.2,0.2,0.2,0.4,0.2c0.2,0,0.3-0.1,0.4-0.2
			c0-0.1,0-0.1,0-0.2c0,0,0-0.1,0-0.1c0-0.1,0.1-0.2,0.3-0.2c0,0,0.2,0,0.4,0c0.3,0,0.5,0,0.6,0.1
			C211.6,103.5,211.6,103.6,211.6,103.6z"/>
		<path class="st8" d="M216.4,102.2c0,0.6,0,1-0.1,1.4v0c-0.1,0.6-0.3,1.2-0.6,1.4c-0.4,0.3-0.8,0.5-1.3,0.5c-0.7,0-1.1-0.2-1.5-0.7
			c-0.2-0.2-0.3-0.5-0.4-0.8c-0.1-0.5-0.2-1.2-0.2-2.2c0-0.7,0-0.9,0-1.4c0-0.5,0.2-1.3,0.5-1.6c0.3-0.4,0.8-0.6,1.5-0.6
			c0.5,0,0.9,0.1,1.3,0.4c0.4,0.3,0.7,1.4,0.7,2.1c0,0.3,0,0.8,0,1.2V102.2z M215,101.3c0-0.2,0-0.5,0-0.6c0-0.4,0-0.6-0.1-0.7
			c-0.1-0.2-0.3-0.2-0.5-0.2h0c-0.2,0-0.4,0.1-0.4,0.3c-0.1,0.1-0.1,0.3-0.1,0.5c0,0.2,0,0.5,0,0.8c0,0.2,0,0.5,0,0.7
			c0,0.7,0,1,0.1,1.4c0,0.2,0.1,0.3,0.1,0.4c0.1,0.2,0.2,0.2,0.4,0.2c0.2,0,0.5-0.1,0.6-0.7c0-0.1,0-0.2,0-0.3c0,0,0-0.1,0-0.1
			c0-0.3,0-1,0-1.4V101.3z"/>
		<path class="st8" d="M222.4,100c0,1,0,2.4,0,2.7c0,0.2,0,2.3,0,2.4c0,0.1,0,0.2-0.1,0.3s-0.2,0.1-0.4,0.1h0c-0.2,0-0.7,0-0.7,0
			c-0.1,0-0.3-0.1-0.3-0.3c0,0,0-0.9,0-1.3l0-1.2l0-0.6l-0.4,0.7l0,0.1c0,0.1-0.1,0.3-0.3,0.8c-0.1,0.2-0.3,0.4-0.6,0.4
			c-0.2,0-0.3-0.1-0.4-0.2l-0.6-1.7v0.5l0,1.8l0,0.6c0,0.2-0.2,0.3-0.5,0.3h-0.7c-0.2,0-0.3-0.2-0.3-0.3c0,0,0-0.7,0-1.9l0-1.4
			c0-0.5,0-0.9,0-1.1l0-2.3c0,0,0,0,0,0c0,0,0.2-0.1,0.5-0.1h0.5c0.2,0,0.3,0,0.5,0.4c0,0,0.3,0.7,0.5,1.3c0.1,0.5,0.5,1.4,0.6,1.7
			l0.5-1.2c0.2-0.6,0.6-1.7,0.6-1.7c0.1-0.3,0.3-0.4,0.6-0.4c0.3,0,0.6,0,0.6,0c0,0,0,0,0,0C222.4,98.5,222.4,99.7,222.4,100z"/>
		<path class="st8" d="M227.2,99.7c0.1,0.3,0.1,0.6,0.1,1c0,0.6-0.1,0.9-0.2,1.2c-0.3,0.5-0.6,0.8-1.6,1l-0.6,0.1c0,0-0.1,0-0.1,0
			c0,0,0,0.1,0,0.2v0.2v1.4l0,0.7c0,0,0,0,0,0c0,0-0.2,0.1-0.4,0.1c-0.3,0-0.6,0-0.6,0c0,0-0.3,0-0.3-0.3c0,0,0-0.6,0-1.1
			c0-0.6,0-1.7,0-2.4l0-1c0-0.6,0-1.7,0-1.7v0c0-0.2,0-0.3,0.1-0.4c0.1-0.1,0.2-0.1,0.5-0.1c0,0,0.5,0,0.6,0h0l0.8,0
			C226.4,98.4,227,98.8,227.2,99.7z M226,100.1c0-0.2-0.2-0.4-0.4-0.4c-0.2,0-0.3,0-0.5,0c-0.2,0-0.3,0-0.3,0.1v1.6v0.1
			c0,0.1,0,0.2,0,0.2c0.1,0,0.7,0,0.9-0.2c0.1-0.1,0.2-0.4,0.2-0.8v0C226,100.4,226,100.3,226,100.1z"/>
		<path class="st8" d="M228.5,105.5L228.5,105.5c-0.3,0-0.4-0.2-0.4-0.3c0,0,0-0.6,0-1.1c0-0.6,0-1.7,0-2.4l0-1c0-0.6,0-2.1,0-2.1
			c0,0,0,0,0,0c0,0,0.1-0.1,0.6-0.1l1,0c0,0,0.1,0,0.2,0h0.1h0.1c1,0,1.6,0.4,1.8,1.3c0.1,0.3,0.1,0.5,0.1,0.9c0,0.5,0,0.7-0.2,1.1
			c-0.2,0.3-0.3,0.5-0.6,0.7c0.1,0.1,0.3,0.7,0.5,1.4c0.2,0.9,0.6,1.5,0.6,1.6c0,0,0,0-0.1,0.1c0,0-0.1,0.1-0.3,0.1H231
			c-0.1,0-0.3-0.2-0.3-0.4l-0.3-0.9c-0.1-0.3-0.2-0.5-0.3-0.8l-0.2-0.7l-0.3,0c-0.1,0-0.1,0-0.1,0c0,0,0,0.1,0,0.2v0.2
			c0,0,0,1.2,0,1.5c0,0.7-0.2,0.8-0.2,0.8c0,0,0,0,0,0c-0.2,0.1-0.3,0.1-0.4,0.1C228.8,105.5,228.6,105.5,228.5,105.5z M230.5,101.2
			c0.1-0.2,0.1-0.4,0.1-0.6v0c0-0.2,0-0.3,0-0.5c0-0.2-0.2-0.4-0.4-0.4c-0.2,0-0.3,0-0.4,0h0c-0.2,0-0.3,0-0.3,0.1v1.4v0.1
			c0,0.1,0,0.2,0,0.2C229.6,101.4,230.3,101.4,230.5,101.2z"/>
		<path class="st8" d="M237.1,103.6c0.2,0.6,0.5,1.8,0.5,1.8s0,0,0,0c0,0-0.1,0.1-0.3,0.1h-0.9c-0.1,0-0.5-0.3-0.5-1.1
			c0-0.2-0.1-0.5-0.2-0.5c-0.4,0-1,0.1-1,0.1c-0.1,0-0.2,0.1-0.2,0.1c0,0,0,0.1-0.1,0.2c0,0.1-0.1,0.3-0.1,0.4
			c0,0.2-0.2,0.8-0.4,0.8H233c-0.1,0-0.2,0-0.2-0.1c0-0.1-0.1-0.2,0-0.2c0,0,0.1-1,0.4-1.8c0.1-0.4,0.3-1.2,0.5-2
			c0.1-0.3,0.1-0.5,0.2-0.8c0.1-0.3,0.2-0.6,0.2-0.8c0.1-0.2,0.1-0.4,0.1-0.5c0.1-0.6,0.3-0.8,0.6-0.8h0.7c0.1,0,0.2,0.1,0.3,0.2
			C235.9,98.6,236.9,103.1,237.1,103.6z M234.7,102.8c0.2,0,0.7,0,0.8-0.1c0,0,0,0,0-0.1l-0.4-1.6l-0.5,1.7
			C234.6,102.7,234.6,102.7,234.7,102.8C234.7,102.8,234.7,102.8,234.7,102.8z"/>
		<path class="st8" d="M165.1,113.6c0.2,0.6,0.5,1.8,0.5,1.8s0,0,0,0c0,0-0.1,0.1-0.3,0.1h-0.9c-0.1,0-0.5-0.3-0.5-1.1
			c0-0.2-0.1-0.5-0.2-0.5c-0.4,0-1,0.1-1,0.1c-0.1,0-0.2,0.1-0.2,0.1c0,0,0,0.1-0.1,0.2c0,0.1-0.1,0.3-0.1,0.4
			c0,0.2-0.2,0.8-0.4,0.8h-0.9c-0.1,0-0.2,0-0.2-0.1c0-0.1-0.1-0.2,0-0.2c0,0,0.1-1,0.4-1.8c0.1-0.4,0.3-1.2,0.5-2
			c0.1-0.3,0.1-0.5,0.2-0.8c0.1-0.3,0.2-0.6,0.2-0.8c0.1-0.2,0.1-0.4,0.1-0.5c0.1-0.6,0.3-0.8,0.6-0.8h0.7c0.1,0,0.2,0.1,0.3,0.2
			C163.9,108.6,164.9,113.1,165.1,113.6z M162.7,112.8c0.2,0,0.7,0,0.8-0.1c0,0,0,0,0-0.1l-0.4-1.6l-0.5,1.7
			C162.6,112.7,162.6,112.7,162.7,112.8C162.7,112.8,162.7,112.8,162.7,112.8z"/>
		<path class="st8" d="M171.3,110c0,1,0,2.4,0,2.7c0,0.2,0,2.3,0,2.4c0,0.1,0,0.2-0.1,0.3s-0.2,0.1-0.4,0.1h0c-0.2,0-0.7,0-0.7,0
			c-0.1,0-0.3-0.1-0.3-0.3c0,0,0-0.9,0-1.3l0-1.2l0-0.6l-0.4,0.7l0,0.1c0,0.1-0.1,0.3-0.3,0.8c-0.1,0.2-0.3,0.4-0.6,0.4
			c-0.2,0-0.3-0.1-0.4-0.2l-0.6-1.7v0.5l0,1.8l0,0.6c0,0.2-0.2,0.3-0.5,0.3h-0.7c-0.2,0-0.3-0.2-0.3-0.3c0,0,0-0.7,0-1.9l0-1.4
			c0-0.5,0-0.9,0-1.1l0-2.3c0,0,0,0,0,0c0,0,0.2-0.1,0.5-0.1h0.5c0.2,0,0.3,0,0.5,0.4c0,0,0.3,0.7,0.5,1.3c0.1,0.5,0.5,1.4,0.6,1.7
			l0.5-1.2c0.2-0.6,0.6-1.7,0.6-1.7c0.1-0.3,0.3-0.4,0.6-0.4c0.3,0,0.6,0,0.6,0c0,0,0,0,0,0C171.3,108.5,171.4,109.7,171.3,110z"/>
		<path class="st8" d="M172.4,110c0-0.6,0-1.1,0-1.1c0-0.3,0-0.5,0.4-0.5c0.1,0,0.4,0,0.7,0l0.4,0c0.1,0,0.2,0,0.2,0
			c0.4,0,0.8,0,1.3,0.3c0.4,0.3,0.7,0.9,0.7,1.6c0,0.5,0,0.7-0.3,1.1c0,0,0,0-0.1,0.1c-0.1,0.1-0.2,0.2-0.3,0.3
			c0.1,0.1,0.2,0.1,0.3,0.2c0.3,0.3,0.4,0.7,0.4,1.4c0,0.7-0.2,1.2-0.6,1.7c-0.3,0.3-0.9,0.4-1.3,0.4h-1.7c-0.2,0-0.3-0.1-0.3-0.3
			c0,0,0-0.3,0-1.3C172.4,112.9,172.4,110.4,172.4,110z M174.2,111.1c0.2,0,0.3-0.1,0.4-0.1c0.2-0.1,0.3-0.2,0.3-0.5
			s-0.1-0.5-0.3-0.6c-0.1-0.1-0.2-0.1-0.3-0.1c-0.1,0-0.1,0-0.1,0c-0.1,0-0.1,0-0.1,0h0c-0.1,0-0.2,0.1-0.2,0.2v1.3
			C173.9,111.2,174.1,111.1,174.2,111.1z M173.8,112.6v1.6c0.3,0,0.9-0.1,1-0.3c0.1-0.1,0.1-0.4,0.1-0.7c0-0.3-0.1-0.6-0.2-0.7
			c-0.1-0.1-0.2-0.2-0.4-0.2H174C173.9,112.4,173.8,112.5,173.8,112.6z"/>
		<path class="st8" d="M177.1,115.2c0,0,0-0.7,0-1.9l0-1.4c0-0.5,0-0.9,0-1.1l0-1.9c0-0.1,0-0.5,0.5-0.5h0.6c0.1,0,0.2,0,0.2,0.1
			c0.1,0.2,0.1,0.5,0,1.2c0,0.3,0,1.4,0,1.5l0,1.6v1.8l0,0.7c0,0.2-0.2,0.3-0.5,0.3h-0.7C177.3,115.5,177.1,115.3,177.1,115.2z"/>
		<path class="st8" d="M179.7,115.5c-0.1-0.1-0.1-0.1-0.1-0.2v0c0,0,0.1-2.9,0-4l0-2.4c0-0.2,0-0.3,0.1-0.3c0.1-0.1,0.2-0.1,0.3-0.1
			c0,0,0,0,0,0c0,0,0.5,0.1,0.8,0.1l0.3,0c0.2,0,0.4,0,0.6-0.1c0.6-0.1,1,0,1,0c0.1,0,0.1,0,0.2,0.1c0.1,0.1,0.1,0.2,0.1,0.5
			c0,0.5-0.2,0.8-0.3,0.8c0,0-0.2,0-0.6,0c-0.3,0-1.1,0-1.1,0c0,0,0,0-0.1,0c0,0,0,0.1,0,0.1v0v1.1v0c0,0,0,0.1,0,0.1c0,0,0,0,0.1,0
			c0,0,0.4,0.1,1,0c0.2,0,0.4,0,0.4,0c0.2,0,0.4,0.2,0.4,0.7c0,0.6-0.3,0.6-0.4,0.6c0,0-0.2,0-0.6,0c-0.2,0-0.8,0-0.8,0
			c-0.1,0-0.1,0.1-0.1,0.2v0.1v1.1c0,0.1,0,0.2,0.1,0.2c0,0,0.7,0,0.8,0c0.1,0,0.8-0.1,0.8-0.1c0.1,0,0.2,0,0.2,0.1
			c0.1,0.1,0.2,0.3,0.2,0.6c0,0.6-0.3,0.6-0.4,0.6h0c0,0-0.2,0-0.7,0c-0.4,0-1.2,0-1.4,0l-0.4,0c-0.2,0-0.3,0-0.4,0
			C179.9,115.5,179.8,115.5,179.7,115.5z"/>
		<path class="st8" d="M188.1,110c0,1.1-0.1,2.4-0.1,2.7c0,0.2,0,2.2,0,2.2c0,0.2,0,0.3-0.1,0.4c-0.1,0.1-0.3,0.1-0.4,0.1
			c-0.1,0-0.2,0-0.3,0h-0.1c-0.2,0-0.4-0.2-0.6-0.6c-0.1-0.3-0.9-2.1-1.1-2.5l0,0.4v1.8l0,0.7c0,0.2-0.2,0.3-0.5,0.3h-0.7
			c-0.2,0-0.3-0.2-0.3-0.3c0,0,0-0.7,0-1.9l0-1.4c0-0.5,0-0.8,0-1l0-1.9c0-0.1,0-0.5,0.5-0.5h0.3c0.3,0,0.4,0.1,0.5,0.4
			c0,0,0.2,0.2,0.4,0.9c0.2,0.6,0.3,0.7,0.4,1c0,0.1,0.1,0.2,0.2,0.3c0.2,0.4,0.3,0.5,0.3,0.6l0-0.5c0,0,0-1.8-0.1-2.2
			c0-0.2,0-0.3,0.1-0.4c0.1-0.1,0.2-0.1,0.2-0.1h0.9c0.1,0,0.2,0.1,0.2,0.4C188.1,109.1,188.1,109.5,188.1,110z"/>
		<path class="st8" d="M190.5,115.5c-0.2,0-0.3-0.2-0.3-0.3c0,0,0-0.7,0-1.9c0-0.5,0-1,0-1.4c0-0.5,0-0.8,0-1c0-0.2,0-0.8,0-1
			c0,0,0,0,0,0h-0.9c-0.1,0-0.2,0-0.3-0.1c-0.1-0.1-0.1-0.3-0.1-0.5c0.1-0.6,0.1-0.7,0.4-0.7c0.1,0,0.2,0,0.3,0c0.3,0,0.7,0,1.1,0
			l0.5,0l0.4,0h1v0l0,0c0.1,0,0.1,0,0.2,0.1c0.1,0.1,0.1,0.3,0.1,0.6c0,0.3-0.2,0.7-0.3,0.7c0,0-0.2,0-0.6,0c-0.1,0-0.2,0-0.4,0
			c0,0,0,0,0,0c0,0.4,0,1.3,0,1.3v1.6c0,0,0,0.4,0,0.9c0,0.1,0,0.1,0,0.2c0.1,0.6,0.1,1.3-0.1,1.5c-0.1,0.1-0.3,0.2-0.6,0.2
			C190.8,115.5,190.6,115.5,190.5,115.5z"/>
		<path class="st8" d="M193.8,115.5c-0.1-0.1-0.1-0.1-0.1-0.2v0c0,0,0.1-2.9,0-4l0-2.4c0-0.2,0-0.3,0.1-0.3c0.1-0.1,0.2-0.1,0.3-0.1
			c0,0,0,0,0,0c0,0,0.5,0.1,0.8,0.1l0.3,0c0.2,0,0.4,0,0.6-0.1c0.6-0.1,1,0,1,0c0.1,0,0.1,0,0.2,0.1c0.1,0.1,0.1,0.2,0.1,0.5
			c0,0.5-0.2,0.8-0.3,0.8c0,0-0.2,0-0.6,0c-0.3,0-1.1,0-1.1,0c0,0,0,0-0.1,0c0,0,0,0.1,0,0.1v0v1.1v0c0,0,0,0.1,0,0.1c0,0,0,0,0.1,0
			c0,0,0.4,0.1,1,0c0.2,0,0.4,0,0.4,0c0.2,0,0.4,0.2,0.4,0.7c0,0.6-0.3,0.6-0.4,0.6c0,0-0.2,0-0.6,0c-0.2,0-0.8,0-0.8,0
			c-0.1,0-0.1,0.1-0.1,0.2v0.1v1.1c0,0.1,0,0.2,0.1,0.2c0,0,0.7,0,0.8,0c0.1,0,0.8-0.1,0.8-0.1c0.1,0,0.2,0,0.2,0.1
			c0.1,0.1,0.2,0.3,0.2,0.6c0,0.6-0.3,0.6-0.4,0.6h0c0,0-0.2,0-0.7,0c-0.4,0-1.2,0-1.4,0l-0.4,0c-0.2,0-0.3,0-0.4,0
			C193.9,115.5,193.9,115.5,193.8,115.5z"/>
		<path class="st8" d="M205,114.1c-0.1,0.3-0.4,0.7-0.5,0.9c-0.3,0.3-0.7,0.5-1.5,0.5c0,0-0.6,0-1.3,0h-0.1c-0.2,0-0.4,0-0.5-0.1
			c-0.1-0.1-0.1-0.1-0.1-0.2c0,0,0-3,0-3.8c0-0.3,0-0.6,0-1c0-0.7,0-1.4,0-1.5v0c0-0.2,0-0.4,0.6-0.4l0.3,0c0,0,0.5,0,1.2,0
			c0.7,0.1,1,0.3,1.4,0.7c0.3,0.3,0.4,0.8,0.5,1.3c0,0.2,0,0.5,0,0.7c0,0.2,0,0.4,0,0.6v0.2C205.1,113.1,205.1,113.6,205,114.1z
			 M202.5,112.4v1.6v0c0,0,0,0.1,0,0.1c0,0,0,0,0.1,0l0.4,0c0.2,0,0.4-0.1,0.5-0.3c0.1-0.2,0.1-0.4,0.1-0.7c0-0.4,0-0.7,0-0.9
			c0-0.3,0-0.6,0-0.8v-0.6c0-0.2,0-0.3,0-0.5c0-0.2-0.1-0.5-0.4-0.5c-0.3-0.1-0.5,0-0.5,0h-0.1c0,0,0,0,0,0c0,0-0.1,0-0.1,0
			c0,0,0,0.1,0,0.1c0,0.3,0,0.9,0,1.3C202.5,111.6,202.5,112.4,202.5,112.4z"/>
		<path class="st8" d="M206.1,115.5c-0.1-0.1-0.1-0.1-0.1-0.2v0c0,0,0.1-2.9,0-4l0-2.4c0-0.2,0-0.3,0.1-0.3c0.1-0.1,0.2-0.1,0.3-0.1
			c0,0,0,0,0,0c0,0,0.5,0.1,0.8,0.1l0.3,0c0.2,0,0.4,0,0.6-0.1c0.6-0.1,1,0,1,0c0.1,0,0.1,0,0.2,0.1c0.1,0.1,0.1,0.2,0.1,0.5
			c0,0.5-0.2,0.8-0.3,0.8c0,0-0.2,0-0.6,0c-0.3,0-1.1,0-1.1,0c0,0,0,0-0.1,0c0,0,0,0.1,0,0.1v0v1.1v0c0,0,0,0.1,0,0.1c0,0,0,0,0.1,0
			c0,0,0.4,0.1,1,0c0.2,0,0.4,0,0.4,0c0.2,0,0.4,0.2,0.4,0.7c0,0.6-0.3,0.6-0.4,0.6c0,0-0.2,0-0.6,0c-0.2,0-0.8,0-0.8,0
			c-0.1,0-0.1,0.1-0.1,0.2v0.1v1.1c0,0.1,0,0.2,0.1,0.2c0,0,0.7,0,0.8,0c0.1,0,0.8-0.1,0.8-0.1c0.1,0,0.2,0,0.2,0.1
			c0.1,0.1,0.2,0.3,0.2,0.6c0,0.6-0.3,0.6-0.4,0.6h0c0,0-0.2,0-0.7,0c-0.4,0-1.2,0-1.4,0l-0.4,0c-0.2,0-0.3,0-0.4,0
			C206.2,115.5,206.1,115.5,206.1,115.5z"/>
		<path class="st8" d="M217.1,113.6c-0.1,0.6-0.3,1.2-0.5,1.4c-0.4,0.3-0.8,0.5-1.3,0.5c-0.6,0-1.1-0.2-1.5-0.7
			c-0.2-0.2-0.3-0.5-0.4-0.8c-0.1-0.5-0.2-1.2-0.2-2.1c0-0.7,0-0.9,0.1-1.4c0-0.5,0.2-1.3,0.4-1.6c0.3-0.4,0.8-0.6,1.5-0.6
			c0.6,0,0.8,0.2,1.2,0.5c0.3,0.2,0.4,0.4,0.5,0.7c0.1,0.2,0.1,0.4,0.2,0.8v0.1c0,0.1,0,0.1-0.1,0.2c-0.1,0-0.1,0.1-0.2,0.1l-0.7,0
			c-0.2,0-0.4-0.1-0.4-0.2l0,0c0-0.1,0-0.2-0.1-0.3l0,0c-0.1-0.1-0.2-0.2-0.4-0.2c-0.2,0-0.4,0.2-0.4,0.8l-0.1,0.3
			c-0.1,0.3-0.1,0.6-0.1,1.2v0.1c0,0.6,0,1,0.1,1.3c0,0.2,0.1,0.3,0.1,0.4c0.1,0.2,0.2,0.2,0.4,0.2c0.2,0,0.3-0.1,0.4-0.2
			c0-0.1,0-0.1,0-0.2c0,0,0-0.1,0-0.1c0-0.1,0.1-0.2,0.3-0.2c0,0,0.2,0,0.4,0c0.3,0,0.5,0,0.6,0.1
			C217.2,113.5,217.1,113.6,217.1,113.6z"/>
		<path class="st8" d="M221.9,112.2c0,0.6,0,1-0.1,1.4v0c-0.1,0.6-0.3,1.2-0.6,1.4c-0.4,0.3-0.8,0.5-1.3,0.5c-0.6,0-1.1-0.2-1.5-0.7
			c-0.2-0.2-0.3-0.5-0.4-0.8c-0.1-0.5-0.2-1.2-0.1-2.2c0-0.7,0-0.9,0-1.4c0-0.5,0.2-1.3,0.5-1.6c0.3-0.4,0.8-0.6,1.5-0.6
			c0.5,0,0.9,0.1,1.3,0.4c0.4,0.3,0.7,1.4,0.7,2.1c0,0.3,0,0.8,0,1.2V112.2z M220.5,111.3c0-0.2,0-0.5,0-0.6c0-0.4,0-0.6-0.1-0.7
			c-0.1-0.2-0.3-0.2-0.5-0.2h0c-0.2,0-0.3,0.1-0.4,0.3c0,0.1-0.1,0.3-0.1,0.5c0,0.2,0,0.5,0,0.8c0,0.2,0,0.5,0,0.7
			c0,0.7,0,1,0.1,1.4c0,0.2,0.1,0.3,0.1,0.4c0.1,0.2,0.2,0.2,0.4,0.2c0.2,0,0.5-0.1,0.6-0.7c0-0.1,0-0.2,0-0.3c0,0,0-0.1,0-0.1
			c0-0.3,0-1,0-1.4V111.3z"/>
		<path class="st8" d="M228,110c0,1,0,2.4,0,2.7c0,0.2,0,2.3,0,2.4c0,0.1,0,0.2-0.1,0.3c-0.1,0.1-0.2,0.1-0.4,0.1h0
			c-0.2,0-0.6,0-0.6,0c-0.2,0-0.3-0.1-0.3-0.3c0,0,0-0.9,0-1.3l0-1.2l0-0.6l-0.4,0.7l0,0.1c0,0.1-0.1,0.3-0.3,0.8
			c-0.1,0.2-0.3,0.4-0.6,0.4c-0.2,0-0.3-0.1-0.4-0.2l-0.6-1.7v0.5l0,1.8l0,0.6c0,0.2-0.2,0.3-0.5,0.3h-0.7c-0.2,0-0.3-0.2-0.3-0.3
			c0,0,0-0.7,0-1.9l0-1.4c0-0.5,0-0.9,0-1.1l0-2.3c0,0,0,0,0,0c0,0,0.2-0.1,0.5-0.1h0.5c0.2,0,0.3,0,0.5,0.4c0,0,0.3,0.7,0.4,1.3
			c0.2,0.5,0.5,1.4,0.6,1.7l0.5-1.2c0.2-0.6,0.6-1.7,0.6-1.7c0.1-0.3,0.3-0.4,0.6-0.4c0.3,0,0.6,0,0.6,0s0,0,0,0
			C227.9,108.5,228,109.7,228,110z"/>
		<path class="st8" d="M232.8,109.7c0.1,0.3,0.1,0.6,0.1,1c0,0.6-0.1,0.9-0.2,1.2c-0.3,0.5-0.6,0.8-1.6,1l-0.6,0.1
			c-0.1,0-0.1,0-0.1,0c0,0,0,0.1,0,0.2v0.2v1.4l0,0.7c0,0,0,0,0,0c0,0-0.2,0.1-0.4,0.1c-0.3,0-0.6,0-0.6,0c0,0-0.3,0-0.3-0.3
			c0,0,0-0.6,0-1.1c0-0.6,0-1.7,0-2.4l0-1c0-0.6,0-1.7,0-1.7v0c0-0.2,0-0.3,0.1-0.4c0.1-0.1,0.2-0.1,0.5-0.1c0,0,0.5,0,0.6,0h0
			l0.8,0C232,108.4,232.6,108.8,232.8,109.7z M231.5,110.1c-0.1-0.2-0.2-0.4-0.4-0.4c-0.2,0-0.3,0-0.5,0c-0.2,0-0.3,0-0.3,0.1v1.6
			v0.1c0,0.1,0,0.2,0,0.2c0.1,0,0.7,0,0.9-0.2c0.1-0.1,0.1-0.4,0.1-0.8v0C231.5,110.4,231.5,110.3,231.5,110.1z"/>
		<path class="st8" d="M234.1,115.5L234.1,115.5c-0.3,0-0.4-0.2-0.4-0.3c0,0,0-0.6,0-1.1c0-0.6,0-1.7,0-2.4l0-1c0-0.6,0-2.1,0-2.1
			c0,0,0,0,0,0c0,0,0.1-0.1,0.6-0.1l1,0c0,0,0.1,0,0.2,0h0.1h0.1c1,0,1.6,0.4,1.8,1.3c0.1,0.3,0.1,0.5,0.1,0.9c0,0.5,0,0.7-0.2,1.1
			c-0.2,0.3-0.3,0.5-0.6,0.7c0.1,0.1,0.3,0.7,0.5,1.4c0.2,0.9,0.6,1.5,0.6,1.6c0,0,0,0-0.1,0.1c0,0-0.1,0.1-0.3,0.1h-0.9
			c-0.1,0-0.3-0.2-0.3-0.4l-0.3-0.9c-0.1-0.3-0.2-0.5-0.3-0.8l-0.2-0.7l-0.3,0c-0.1,0-0.1,0-0.1,0c0,0,0,0.1,0,0.2v0.2
			c0,0,0,1.2,0,1.5c0,0.7-0.2,0.8-0.2,0.8c0,0,0,0,0,0c-0.2,0.1-0.3,0.1-0.4,0.1C234.3,115.5,234.2,115.5,234.1,115.5z M236.1,111.2
			c0.1-0.2,0.1-0.4,0.1-0.6v0c0-0.2,0-0.3,0-0.5c0-0.2-0.2-0.4-0.4-0.4c-0.2,0-0.3,0-0.4,0h0c-0.2,0-0.3,0-0.3,0.1v1.4v0.1
			c0,0.1,0,0.2,0,0.2C235.1,111.4,235.8,111.4,236.1,111.2z"/>
		<path class="st8" d="M242.6,113.6c0.2,0.6,0.5,1.8,0.5,1.8s0,0,0,0c0,0-0.1,0.1-0.3,0.1h-0.9c-0.1,0-0.5-0.3-0.5-1.1
			c0-0.2-0.1-0.5-0.2-0.5c-0.4,0-1,0.1-1,0.1c-0.1,0-0.2,0.1-0.2,0.1c0,0,0,0.1-0.1,0.2c0,0.1-0.1,0.3-0.1,0.4
			c0,0.2-0.2,0.8-0.4,0.8h-0.9c-0.1,0-0.2,0-0.2-0.1c0-0.1-0.1-0.2,0-0.2c0,0,0.1-1,0.4-1.8c0.1-0.4,0.3-1.2,0.5-2
			c0.1-0.3,0.1-0.5,0.2-0.8c0.1-0.3,0.2-0.6,0.2-0.8c0.1-0.2,0.1-0.4,0.1-0.5c0.1-0.6,0.3-0.8,0.6-0.8h0.7c0.1,0,0.2,0.1,0.3,0.2
			C241.4,108.6,242.4,113.1,242.6,113.6z M240.2,112.8c0.2,0,0.7,0,0.8-0.1c0,0,0,0,0-0.1l-0.4-1.6l-0.5,1.7
			C240.1,112.7,240.2,112.7,240.2,112.8C240.2,112.8,240.2,112.8,240.2,112.8z"/>
	</g>
	<g>
		<g>
			<path class="st9" d="M192.1,70.5c-1.1-1.9-3.4-2.7-5.4-1.8c-0.4,0.2-0.9,0.3-1.4,0.3c-0.5,0-1-0.1-1.4-0.3
				c-2-0.9-4.3-0.1-5.4,1.8c-0.8,1.3-1.2,2.9-1.2,4.6c0,2.6,1,4.8,2.6,6.4c0.8,0.8,2,1,3,0.7c0.7-0.2,1.5-0.4,2.3-0.4
				c0.8,0,1.6,0.1,2.3,0.4c1.1,0.3,2.2,0.1,3-0.7c1.6-1.6,2.6-3.9,2.6-6.4C193.3,73.4,192.9,71.9,192.1,70.5z"/>
			<polygon class="st9" points="184.7,69.6 184.7,65.8 186,66 186,70 184.7,70 			"/>
			<path class="st9" d="M185.4,66c0,0-0.9-3-5.3-1.7C180.1,64.3,179.8,67.9,185.4,66z"/>
			<path class="st9" d="M185.4,66c0,0,0.9-3,5.8-1.7C191.2,64.3,191.4,67.9,185.4,66z"/>
		</g>
		<g>
			<path class="st9" d="M226.5,31.3l-1,2.6l-1-2.6h-0.4l-1,2.6l-1-2.6h-0.3l-1,2.6l-1-2.6h-0.4l-1,2.6l-1-2.6h-0.2l-1,2.6l-1-2.6
				h-0.4l-1,2.6l-1-2.6h-0.3l-1,2.6l-1-2.6h-0.4l-1,2.6l-1-2.6h-0.2l-1,2.6l-1-2.6h-0.4l-1,2.6l-1-2.6h-0.3l-1,2.6l-1-2.6h-0.4
				l-1,2.6l-1-2.6h-0.2l-1,2.6l-1-2.6h-0.4l-1,2.6l-1-2.6h-0.3l-1,2.6l-1-2.6h-0.4l-1,2.6l-1-2.6h-0.2l-1,2.6l-1-2.6h-0.4l-1,2.6
				l-1-2.6h-0.3l-1,2.6l-1-2.6h-0.4l-1,2.6l-1-2.6h-0.2v32c2.8-0.7,4.4,0.2,5.3,1.1c0.9-0.9,2.7-1.8,6-1l0.6,0.2l0,0.6
				c0,0.2,0.1,1.5-1.1,2.5c-0.9,0.8-2.3,1-4.1,0.6v0.4c2.2-0.7,4.7,0.3,6,2.4c0.9,1.5,1.3,3.3,1.3,5.1c0,2.3-0.8,4.5-2.2,6.2h28.4
				c3.4,0,6.1-2.7,6.1-6.1v-44H226.5z"/>
		</g>
	</g>
</g>
<g>
	<g>
		<g>
			<g>
				<g>
					<path class="st9" d="M17.3,75.8c-0.5,0.4-1.2,0.6-1.6,0.6c-0.9,0.1-1.8-0.2-2.3-0.9c-0.5-0.6-0.7-1.3-1.2-1.9
						c-0.7-0.9-1.9-1.5-3.1-1.3c-2.4,0.4-3.4,3.2-2.1,5.1c1.9,2.7,6.2,2.3,8.4,0.4C16.2,77.2,16.8,76.6,17.3,75.8"/>
					<path class="st9" d="M97.1,75.8c0.5,0.4,1.2,0.6,1.6,0.6c0.9,0.1,1.8-0.2,2.3-0.9c0.5-0.6,0.7-1.3,1.2-1.9
						c0.7-0.9,1.9-1.5,3.1-1.3c2.4,0.4,3.4,3.2,2.1,5.1c-1.9,2.7-6.2,2.3-8.4,0.4C98.3,77.2,97.6,76.6,97.1,75.8"/>
					<g>
						<path class="st9" d="M89.2,61.3c-0.1,0-5.7,0-5.7,0c-0.6,0-1.1,0.6-1.2,1.2c0,0.6,0.5,1.2,1.2,1.3c0.1,0,5.7,0,5.7,0
							c0.6,0,1.1-0.6,1.2-1.2C90.4,61.9,89.9,61.3,89.2,61.3"/>
						<path class="st9" d="M53.5,73.5c-0.1-0.3-0.1-0.6-0.1-1c0-0.5,0-1.1,0-1.7c0.1-2.1,0.4-5.7-2.4-5.7c-1.9,0-3,1.6-3.4,2.1
							c-0.1-1.5-1.2-2.5-3-2.5c-1.1,0-1.8,0.9-1.8,0.9S44,66,44,67.4c0,1.1,0,6.2,0,6.2c0,0.9,0.7,1.8,1.8,1.8
							c1.1,0,1.8-0.9,1.8-1.8v-4.6c0.2-0.7,0.6-1.5,1.2-1.5c0.8,0,0.9,0.9,0.9,0.9v4.4c0,0.1,0,0.3,0.1,0.4c0,0.2,0.1,0.4,0.2,0.6
							c0.4,0.9,1.4,1.5,2.7,1.5c1.1,0,1.8-0.9,1.8-0.9S53.8,74.3,53.5,73.5"/>
						<path class="st9" d="M80.6,73.5c-0.1-0.3-0.1-0.6-0.1-1V61.6c0-1.1-0.9-1.9-1.9-1.9c-1.1,0-1.9,0.9-1.9,1.9v9.7
							c0,0.9-0.1,1.8,0.3,2.6c0.4,0.9,1.5,1.6,2.8,1.6c1.1,0,1.8-0.9,1.8-0.9S80.9,74.3,80.6,73.5"/>
						<path class="st9" d="M37.7,73.2L37.7,73.2C37.7,73.2,37.7,73.2,37.7,73.2C37.7,73.2,37.7,73.2,37.7,73.2L37.7,73.2
							c-1,0-1.5-1.2-1.5-3s0.6-3,1.5-3l0,0h0h0l0,0c0.8,0,1.5,1.2,1.5,3C39.2,72,38.7,73.2,37.7,73.2 M37.7,65
							c-2.9,0-5.2,2.3-5.2,5.2c0,2.9,2.3,5.2,5.2,5.2c2.9,0,5.2-2.3,5.2-5.2C42.9,67.3,40.5,65,37.7,65"/>
						<path class="st9" d="M59.5,72.9L59.5,72.9C59.5,72.9,59.5,72.9,59.5,72.9C59.5,72.9,59.5,72.9,59.5,72.9L59.5,72.9
							c-1,0-1.5-1-1.5-2.6c0-1.6,0.6-2.6,1.5-2.6l0,0h0h0l0,0c0.8,0,1.5,1,1.5,2.6C61,71.9,60.5,72.8,59.5,72.9 M65.2,73.5
							c-0.1-0.3-0.1-0.6-0.1-1V61.6c0-1.1-0.9-1.9-1.9-1.9s-1.9,0.9-1.9,1.9l0,5.2c-0.5-0.6-1.5-1.7-3.1-1.7c-4.4,0-4.7,7.9-1.7,9.8
							c0.8,0.5,2.1,0.7,3.1,0.4c0.7-0.2,1.7-0.8,1.9-1.6c0,0.1,0.1,0.1,0.1,0.2c0.4,0.9,1.5,1.6,2.8,1.6c1.1,0,1.8-0.9,1.8-0.9
							S65.5,74.3,65.2,73.5"/>
						<path class="st9" d="M69.6,69.6c0.1-0.8,0.3-1.9,1.1-2.3c0.6-0.4,1.5,0.1,1.5,0.8c0,0.8-0.5,1.4-1.2,1.5
							C70.8,69.6,69.6,69.7,69.6,69.6 M75.2,72.2c0,0-0.6,0.8-2.7,0.8s-2.7-1.7-2.7-1.7c3.2,0,5.9-0.2,5.9-2.8
							c0-2.6-2.9-3.4-4.6-3.4c-2.8,0-4.9,2.3-4.9,5.3c0,3.4,2.7,5.1,5,5.1C75,75.4,75.2,72.2,75.2,72.2z"/>
						<path class="st9" d="M84.9,69.6c0.1-0.8,0.3-1.9,1.1-2.3c0.6-0.4,1.5,0.1,1.5,0.8c0,0.8-0.5,1.4-1.2,1.5
							C86.2,69.6,84.9,69.7,84.9,69.6 M90.5,72.2c0,0-0.6,0.8-2.7,0.8c-2.2,0-2.7-1.7-2.7-1.7c3.2,0,5.9-0.2,5.9-2.8
							c0-2.6-2.9-3.4-4.6-3.4c-2.8,0-4.9,2.3-4.9,5.3c0,3.4,2.7,5.1,5,5.1C90.4,75.4,90.5,72.2,90.5,72.2z"/>
						<path class="st9" d="M97.8,72.5h-2.2c0.2,0,1.8-1.4,2.3-1.8c1.4-1.2,3.9-2.9,3.2-5.1v0c-0.1-0.5-0.5-0.8-0.5-0.8
							s-0.2,0.4-0.7,0.6c-0.2,0.1-0.4,0.1-0.6,0.1c-0.2,0-6.1,0-6.1,0c-0.8,0-1.5,0.6-1.5,1.4c0,0.8,0.6,1.4,1.4,1.4l3.5,0
							c-1.6,0.9-3.5,2-4.5,3.6c-0.6,0.9-1.2,2.4-0.9,3.5c0.8-0.7,2.8-1.3,4.3-1c0.6,0.1,1.2,0.4,1.7,0.7c2.9,1.8,4.6-1.7,3.2-3.3
							C100.4,71.7,99.6,72.5,97.8,72.5"/>
						<path class="st9" d="M32.7,74.7c-1.8-1.9-2.3-5.2-2.4-7.3c-0.1-1.8,0-5.1,1.5-6c-0.5-0.6-1.5-0.9-2.2-0.9
							c-1.6,0-2.4,1.1-3,1.9c-0.2,0.3-2.9,4.1-2.9,4.1s-2.3-3.6-2.6-4c-0.4-0.6-1.1-1.7-2.4-1.9c-0.6-0.1-2-0.2-2.8,0.9
							c1.4,1.1,1.3,3.9,1,5.8c-0.9,5.7-3.3,6.2-3.3,6.2c1.2,3.4,4.4,2,5.3-0.6c0.6-1.7,1-3.9,1.1-5.8l3.5,5.4l4-5.4
							c-0.7,9.5,2.6,12.2,5.5,12.2c2.8,0,3.8-2.6,3.8-2.6C35.1,76.5,33.7,75.8,32.7,74.7"/>
					</g>
					<g>
						<path class="st9" d="M41.6,77.7c0,0.1,0.1,0.3,0.1,0.4c0,0,0,5,0,5c0,0.4,0.4,0.8,0.8,0.8c0.4,0,0.8-0.3,0.8-0.8
							c0-0.1,0-4.5,0-4.5c0-0.4,0-0.7-0.1-1.1c-0.2-0.4-0.6-0.7-1.2-0.7c-0.5,0-0.8,0.4-0.8,0.4S41.5,77.4,41.6,77.7"/>
						<path class="st9" d="M93.6,83.1c0-0.1-0.1-0.3-0.1-0.4c0,0,0-5,0-5c0-0.4-0.4-0.8-0.8-0.8c-0.4,0-0.8,0.3-0.8,0.8
							c0,0.1,0,4.5,0,4.5c0,0.4,0,0.7,0.1,1.1c0.2,0.4,0.6,0.7,1.2,0.7c0.5,0,0.8-0.4,0.8-0.4S93.8,83.5,93.6,83.1"/>
						<path class="st9" d="M64,79.5c-0.8,0-1.4,0.7-1.5,0.9l0,0c0-0.2,0-0.4,0-0.4c0-0.4-0.4-0.7-0.8-0.7c-0.4,0-0.8,0.3-0.8,0.7
							c0,0.1,0,3.1,0,3.2c0,0.4,0.4,0.8,0.8,0.8c0.4,0,0.8-0.3,0.8-0.8c0,0,0-1,0-1.9h0c0.1-0.3,0.3-0.7,0.5-0.7
							c0.4,0,0.4,0.4,0.4,0.4v2.2c0,0.4,0.4,0.8,0.8,0.8c0.4,0,0.8-0.3,0.8-0.8V82C65,80.9,65.2,79.5,64,79.5"/>
						<path class="st9" d="M84.9,79.5c-0.8,0-1.4,0.7-1.5,0.9l0,0c0-0.2,0-0.4,0-0.4c0-0.4-0.4-0.7-0.8-0.7c-0.4,0-0.8,0.3-0.8,0.7
							c0,0.1,0,3.1,0,3.2c0,0.4,0.4,0.8,0.8,0.8c0.4,0,0.8-0.3,0.8-0.8c0,0,0-1,0-1.9h0c0.1-0.3,0.3-0.7,0.5-0.7
							c0.4,0,0.4,0.4,0.4,0.4v2.2c0,0.4,0.4,0.8,0.8,0.8c0.4,0,0.8-0.3,0.8-0.8V82C86,80.9,86.1,79.5,84.9,79.5"/>
						<path class="st9" d="M47.3,79.5c-0.8,0-1.4,0.7-1.5,0.9l0,0c0-0.2,0-0.4,0-0.4c0-0.4-0.4-0.7-0.8-0.7c-0.4,0-0.8,0.3-0.8,0.7
							c0,0.1,0,3.1,0,3.2c0,0.4,0.4,0.8,0.8,0.8c0.4,0,0.8-0.3,0.8-0.8c0,0,0-1,0-1.9h0c0.1-0.3,0.3-0.7,0.5-0.7
							c0.4,0,0.4,0.4,0.4,0.4v2.2c0,0.4,0.4,0.8,0.8,0.8c0.4,0,0.8-0.3,0.8-0.8V82C48.4,80.9,48.5,79.5,47.3,79.5"/>
						<path class="st9" d="M79,82.9L79,82.9C79,82.9,79,82.9,79,82.9C79,82.9,79,82.9,79,82.9L79,82.9c-0.5,0-0.7-0.5-0.7-1.3
							s0.3-1.3,0.7-1.3l0,0l0,0l0,0l0,0c0.4,0,0.7,0.5,0.7,1.3C79.7,82.4,79.5,82.9,79,82.9 M79,79.3c-1.3,0-2.3,1.1-2.3,2.3
							c0,1.3,1.1,2.3,2.3,2.3s2.3-1.1,2.3-2.3C81.3,80.3,80.3,79.3,79,79.3"/>
						<path class="st9" d="M67.7,82.8L67.7,82.8L67.7,82.8L67.7,82.8L67.7,82.8c-0.5,0-0.7-0.5-0.7-1.2s0.3-1.2,0.7-1.2l0,0l0,0l0,0
							l0,0c0.4,0,0.7,0.5,0.7,1.2C68.4,82.3,68.2,82.8,67.7,82.8 M70.3,79.9c0-0.4-0.4-0.8-0.8-0.8c-0.4,0-0.9,0.4-0.9,0.8
							c0,0,0,0.1,0,0.1c-0.2-0.3-0.7-0.8-1.4-0.8c-2,0-2.1,3.5-0.7,4.4c0.4,0.2,1,0.3,1.4,0.2c0.2-0.1,0.6-0.3,0.8-0.5
							c0.1,0.3,0.4,0.6,0.8,0.6c0.4,0,0.9-0.4,0.9-0.8C70.3,83.1,70.3,80,70.3,79.9"/>
						<path class="st9" d="M88.7,82.8L88.7,82.8L88.7,82.8C88.7,82.8,88.7,82.8,88.7,82.8L88.7,82.8c-0.5,0-0.7-0.5-0.7-1.2
							s0.3-1.2,0.7-1.2l0,0l0,0l0,0l0,0c0.4,0,0.7,0.5,0.7,1.2C89.4,82.3,89.2,82.8,88.7,82.8 M91.2,79.9c0-0.4-0.4-0.8-0.8-0.8
							c-0.4,0-0.9,0.4-0.9,0.8c0,0,0,0.1,0,0.1c-0.2-0.3-0.7-0.8-1.4-0.8c-2,0-2.1,3.5-0.7,4.4c0.4,0.2,1,0.3,1.4,0.2
							c0.2-0.1,0.6-0.3,0.8-0.5c0.1,0.3,0.4,0.6,0.8,0.6c0.4,0,0.9-0.4,0.9-0.8C91.2,83.1,91.2,80,91.2,79.9"/>
						<path class="st9" d="M76.1,80.4c0-0.4-0.3-0.7-0.7-0.8c0,0-0.1,0-0.1,0c-0.4,0-0.8,0.3-0.8,0.7v1.5l0,0c0,0.5,0,1.3,0,1.3
							c0,0.4,0.3,0.7,0.7,0.8c0,0,0.1,0,0.1,0c0.4,0,0.8-0.3,0.8-0.7V82l0,0C76.1,81.5,76.1,80.4,76.1,80.4"/>
						<path class="st9" d="M76.1,78.3c0,0.4-0.4,0.8-0.8,0.8c-0.5,0-0.8-0.4-0.8-0.8c0-0.5,0.4-0.8,0.8-0.8
							C75.8,77.5,76.1,77.9,76.1,78.3"/>
						<path class="st9" d="M59.5,79.4c-0.5,0-0.7,0.4-1.1,0.8V80c0-0.4-0.4-0.8-0.8-0.8c-0.4,0-0.8,0.3-0.8,0.8v1.2v2l0,0
							c0,0.4,0.4,0.8,0.8,0.8c0.4,0,0.8-0.3,0.8-0.8l0,0v-2c0-0.3,0.2-0.7,0.4-0.7c0.3,0,0,0.8,0.7,0.8
							C60.7,81.4,60.8,79.4,59.5,79.4"/>
						<path class="st9" d="M53.6,81.3c0.1-0.4,0.1-0.8,0.5-1.1c0.3-0.2,0.7,0,0.7,0.4c0,0.4-0.2,0.6-0.6,0.7
							C54.2,81.3,53.6,81.4,53.6,81.3 M56.2,82.5c0,0-0.3,0.3-1.2,0.3c-1,0-1.2-0.8-1.2-0.8c1.4,0,2.6-0.1,2.6-1.3s-1.3-1.5-2.1-1.5
							c-1.3,0-2.2,1-2.2,2.4c0,1.5,1.2,2.3,2.2,2.3C56.1,83.9,56.2,82.5,56.2,82.5z"/>
						<path class="st9" d="M52,83.1c0,0-0.4,0.9-1.2,0.9c-0.6,0-1.4-0.6-1.5-1.4c0,0,0-1.2,0-2.2H49c-0.1,0-0.3-0.1-0.3-0.4
							s0.2-0.4,0.3-0.4h0.2c0-0.4,0-0.6,0-0.6c0-0.4,0.4-0.8,0.8-0.8c0.4,0,0.8,0.4,0.8,0.8l0,0v0.6h0.7c0.1,0,0.3,0.1,0.3,0.4
							s-0.2,0.4-0.3,0.4h-0.7v1.8C50.9,82.8,51.4,83.1,52,83.1"/>
						<path class="st9" d="M73.9,83.1c0,0-0.4,0.9-1.2,0.9c-0.6,0-1.4-0.6-1.5-1.4c0,0,0-1.2,0-2.2H71c-0.1,0-0.3-0.1-0.3-0.4
							s0.2-0.4,0.3-0.4h0.2c0-0.4,0-0.6,0-0.6c0-0.4,0.4-0.8,0.8-0.8c0.4,0,0.8,0.4,0.8,0.8l0,0v0.6h0.7c0.1,0,0.3,0.1,0.3,0.4
							s-0.2,0.4-0.3,0.4h-0.7v1.8C72.9,82.8,73.4,83.1,73.9,83.1"/>
					</g>
				</g>
			</g>
			<g>
				<path class="st9" d="M11,95.7c0,0.1,0,0.1,0,0.2s0,0.1-0.1,0.2c-0.1,0.1-0.1,0.1-0.2,0.2c-0.1,0.2-0.3,0.4-0.5,0.6
					C10.2,97,10.1,97,10,97.1c-0.2,0.1-0.3,0.2-0.5,0.3S9.2,97.5,9,97.5c-0.1,0-0.3,0-0.4,0s-0.3,0-0.4,0c-0.3,0-0.3,0-0.5-0.1
					c-0.2-0.1-0.5-0.3-0.6-0.5c0,0,0,0.1,0,0.2c0,0.1,0,0.2,0,0.3c0,0.1-0.1,0.2-0.2,0.2c-0.1,0-0.1,0-0.2-0.1
					c-0.1-0.1-0.1-0.1-0.1-0.2c0-0.1,0-0.2,0-0.2c0-0.1,0-0.2,0-0.3c0-0.1,0-0.4,0-0.7c0-0.4,0-0.8,0-1c0-0.1,0-0.2,0.1-0.3
					c0-0.1,0-0.1,0.1-0.1c0,0,0.1-0.1,0.1-0.1c0,0,0.1,0.1,0.1,0.1C7,94.7,7,94.8,7.1,94.9c0,0.1,0,0.3,0,0.6c0,0.2,0,0.4,0,0.5
					c0,0.1,0,0.3,0.1,0.4c0.1,0.1,0.2,0.2,0.2,0.3c0.1,0.1,0.2,0.2,0.3,0.2c0.1,0,0.4,0.1,0.5,0.1s0.2-0.1,0.3-0.1
					c0.1-0.1,0.3,0,0.4-0.1c0.1-0.1,0.2-0.2,0.3-0.3c0.1-0.1,0.1-0.2,0.1-0.3c0-0.1,0-0.1,0-0.2c-0.1-0.1-0.1-0.3-0.2-0.4
					c-0.1-0.2-0.1-0.3-0.2-0.4c-0.2-0.3-0.4-0.5-0.6-0.7c-0.2-0.3-0.4-0.5-0.6-0.7c-0.2-0.3-0.5-0.5-0.7-0.8
					c-0.2-0.3-0.3-0.6-0.4-0.9c-0.1-0.3-0.1-0.5-0.1-0.8c0-0.4,0.1-0.6,0.3-0.9c0.2-0.3,0.4-0.5,0.7-0.7c0.3-0.2,0.4-0.2,0.8-0.2
					c0.2,0,0.3-0.1,0.5-0.1c0.1,0,0.3,0,0.4,0.1c0.1,0,0.3,0.1,0.4,0.1c0.2,0.1,0.3,0.1,0.4,0.2c0-0.2,0-0.3,0.1-0.4
					c0-0.1,0-0.1,0.1-0.1c0,0,0.1-0.1,0.2-0.1c0,0,0.1,0.1,0.1,0.1c0.1,0.1,0.1,0.2,0.1,0.3c0,0.1,0,0.5,0,0.8c0,0.2,0,0.4,0,0.6
					c0,0.3,0,0.5,0,0.7c0,0.1,0,0.5-0.2,0.5c-0.1,0-0.1,0-0.2-0.1C10,91.8,10,91.8,10,91.7c0-0.1,0-0.2,0-0.2c0-0.1,0-0.2,0-0.3
					c0-0.1,0-0.3,0-0.4c0-0.1,0-0.2-0.1-0.3c-0.1-0.1-0.1-0.3-0.2-0.4c-0.1-0.1-0.2-0.2-0.3-0.2c-0.1,0-0.3-0.1-0.4-0.1
					c-0.2,0-0.3,0-0.5,0.1c-0.1,0.1-0.1,0.2-0.2,0.3c-0.1,0.1-0.1,0.3-0.2,0.4C8.1,90.7,8,90.8,8,91c0,0.1,0.1,0.2,0.1,0.2
					c0,0.1,0,0.2,0,0.3c0,0.1,0.2,0.2,0.3,0.3c0.1,0.1,0.1,0.2,0.2,0.4c0.1,0.2,0.2,0.3,0.4,0.4c0.1,0.1,0.2,0.2,0.3,0.3
					c0.2,0.2,0.4,0.4,0.6,0.6c0.1,0.1,0.2,0.3,0.3,0.4c0,0,0.1,0,0.1,0.1c0.1,0.1,0.1,0.1,0.1,0.2c0.1,0.1,0.2,0.2,0.3,0.3
					c0.1,0.1,0.1,0.3,0.2,0.4C11,94.9,11,95,11,95.2c0,0.1,0,0.1,0,0.1c0,0.1,0,0.2-0.1,0.3C11,95.6,11,95.7,11,95.7L11,95.7z"/>
				<path class="st9" d="M17.1,89.5c0.1,0,0.4,0,0.4,0.2c0,0.1,0,0.1-0.1,0.2c0,0.1-0.1,0.1-0.2,0.1c-0.1,0-0.2,0-0.2,0
					c0,0-0.2,0-0.4,0c0,0.1,0,0.2,0,0.3c0,0.2,0,0.3,0,0.4c0,0.2,0,0.4,0.1,0.7c0,0.2,0,0.4,0,0.7c0,0.2,0,0.4,0,0.6
					c0,0.2,0,0.4,0,0.6c0,0.2-0.1,0.4-0.1,0.6s0,0.4,0,0.6c0,0.2,0,0.5,0,0.7c0,0.2,0,0.4,0,0.5c0,0.2,0,0.4,0,0.6
					c0,0.2,0.1,0.4,0.1,0.6c0,0.1,0,0.3-0.1,0.4c-0.2,0.2-0.4,0.2-0.6,0.2c-0.2,0-0.3-0.1-0.5-0.1c-0.2-0.1-0.3-0.1-0.5-0.2
					c-0.3-0.2-0.4-0.5-0.6-0.9c-0.2-0.4-0.3-0.7-0.5-1.1c-0.1-0.2-0.2-0.4-0.2-0.6c-0.1-0.3-0.2-0.7-0.4-1c-0.1-0.2-0.2-0.4-0.2-0.7
					c-0.1-0.2-0.1-0.4-0.2-0.5c0-0.1-0.1-0.1-0.1-0.1c0,0-0.1,0.1-0.1,0.2c0,0.1,0,0.1,0,0.2c0,0.2,0,0.4,0,0.6c0,0.4,0,0.8,0.1,1.2
					c0,0.1,0,0.2,0,0.4c0,0.3,0,0.5,0,0.8c0,0.3,0,0.6,0,0.9c0,0.1,0,0.2,0,0.3c0,0.1,0,0.2,0,0.4c0.2,0,0.4,0,0.5,0
					c0.1,0,0.4,0,0.4,0.2c0,0.1,0,0.1-0.1,0.2c0,0.1-0.1,0.1-0.2,0.1c-0.1,0-0.2,0-0.2,0c0,0-0.3,0-0.5,0c-0.2,0-0.4,0-0.4,0
					c-0.1,0-0.4,0-0.5,0c-0.1,0-0.2,0-0.2,0c-0.1,0-0.2,0-0.3-0.1c-0.1,0-0.2-0.2-0.2-0.2c0,0,0-0.1,0-0.1c0.1-0.1,0.2-0.1,0.2-0.1
					c0.2,0,0.5-0.1,0.6-0.1c0,0,0.1,0,0.1,0c0-0.5,0-1,0-1.6c0-0.2,0-0.3,0-0.5c0-0.6,0-1.1,0-1.6c0-0.3,0-0.6,0-0.9
					c0-0.4,0-0.7,0-1.1c0-0.4,0-0.8,0-1.3c-0.1,0-0.3,0-0.4,0c-0.1,0-0.2,0-0.2,0c-0.1,0-0.2,0-0.3-0.1c-0.1,0-0.2-0.2-0.2-0.2
					c0,0,0-0.1,0-0.1c0.1-0.1,0.2-0.1,0.2-0.1c0.2,0,0.6-0.1,0.7-0.1c0.1,0,0.2,0,0.4,0c0.1-0.1,0.1-0.1,0.2-0.2
					c0.1-0.1,0.2-0.1,0.3-0.1c0.2,0,0.3,0.1,0.4,0.2c0.1,0.1,0.2,0.2,0.2,0.4c0.1,0.2,0.1,0.4,0.2,0.5c0.1,0.2,0.1,0.3,0.2,0.5
					c0.1,0.2,0.2,0.3,0.2,0.5c0.1,0.2,0.1,0.3,0.2,0.5c0.1,0.2,0,0.3,0.1,0.5c0.2,0.3,0.3,0.7,0.4,1c0,0.2,0.1,0.3,0.2,0.5
					c0.1,0.2,0.1,0.4,0.2,0.5c0,0.2,0.1,0.3,0.2,0.5c0,0.1,0.1,0.1,0.1,0.2c0,0.1,0,0.2,0.1,0.2c0,0.1,0.1,0.2,0.1,0.3
					c0,0.1,0.1,0.1,0.1,0.1c0,0,0.1,0,0.1-0.1c0,0,0-0.1,0-0.1c0-0.2,0-0.4,0-0.6c0-0.4,0-0.8,0-1.3c0-0.4-0.1-0.8-0.1-1.2
					c0-0.3,0-0.5,0-0.8c0-0.2,0-0.3,0-0.5c0-0.2,0-0.5,0-0.7c0-0.1,0-0.3,0-0.4c-0.1,0-0.3,0-0.4,0c-0.1,0-0.2,0-0.2,0
					c-0.1,0-0.2,0-0.3-0.1c-0.1,0-0.2-0.2-0.2-0.2c0,0,0-0.1,0-0.1c0.1-0.1,0.2-0.1,0.2-0.1c0.2,0,0.6-0.1,0.7-0.1
					c0.1,0,0.2,0,0.3,0c0.1-0.1,0.1-0.1,0.2-0.1s0.2,0,0.2,0.1C16.9,89.5,17,89.5,17.1,89.5L17.1,89.5z"/>
				<path class="st9" d="M23.7,97.3c0,0.1-0.1,0.1-0.1,0.2c-0.1,0.1-0.1,0.1-0.2,0.1c-0.1,0-0.2,0-0.3,0s-0.2,0-0.3,0
					c0,0-0.1,0-0.1,0c-0.1,0-0.1,0-0.2,0.1c-0.1,0-0.1,0-0.2,0c-0.2,0-0.3,0-0.4-0.1c-0.1,0-0.2,0-0.3,0c-0.3,0-0.5,0-0.6,0
					c-0.1,0-0.2,0-0.3-0.1c-0.1,0-0.2-0.1-0.2-0.2c0-0.2,0.2-0.2,0.3-0.2c0.1,0,0.2,0,0.3,0c0-0.1,0-0.2,0-0.2c0-0.1,0-0.2,0-0.3
					c0-0.1,0-0.1,0-0.2c0-0.1,0-0.1,0-0.2c0-0.1,0-0.1-0.1-0.2c0-0.1-0.1-0.3-0.1-0.4c0-0.1,0-0.2,0-0.4c0-0.1,0-0.3-0.1-0.4
					c0-0.1,0-0.1-0.1-0.1c0,0-0.1,0-0.1,0c-0.1,0-0.3,0-0.4,0c-0.1,0-0.3,0-0.4,0c-0.1,0-0.2,0-0.3,0c-0.1,0-0.2,0-0.3,0
					c-0.1,0-0.1,0.1-0.1,0.2c0,0.1-0.1,0.3-0.1,0.4c-0.1,0.2-0.1,0.5-0.1,0.7c-0.1,0.3-0.2,0.7-0.2,0.9c0.1,0,0.2,0,0.4,0
					c0.2,0,0.4,0,0.5,0.2c0,0.1,0,0.1-0.1,0.2c-0.1,0.1-0.1,0.1-0.2,0.1c-0.1,0-0.2,0-0.3,0c-0.1,0-0.2,0-0.3,0c-0.2,0-0.4,0-0.5,0
					c-0.1,0-0.2,0-0.3,0c-0.1,0-0.2,0-0.3-0.1c-0.1,0-0.2-0.2-0.2-0.2c0,0,0-0.1,0.1-0.1c0.1-0.1,0.2-0.1,0.3-0.1
					c0.2,0,0.3,0,0.5-0.1c0,0,0,0,0,0c0-0.1,0-0.3,0.1-0.4c0.1-0.3,0.1-0.6,0.2-0.8c0-0.2,0.1-0.4,0.1-0.7c0-0.1,0.1-0.2,0.1-0.3
					c0-0.1-0.2-0.1-0.3-0.2c-0.1,0-0.1-0.1-0.1-0.1c0-0.1,0.1-0.1,0.2-0.2c0.1,0,0.3,0,0.3-0.1c0.1-0.1,0.1-0.3,0.1-0.4
					c0.1-0.3,0.2-0.5,0.2-0.8c0.1-0.3,0.2-0.6,0.2-0.8c0.1-0.3,0.1-0.5,0.2-0.8c0.1-0.3,0.1-0.5,0.2-0.8c0.1-0.3,0.2-0.5,0.3-0.8
					l0.1-0.2c0.1-0.1,0.1-0.2,0.2-0.3c0.2-0.1,0.5-0.2,0.7-0.2c0.2,0,0.3,0,0.4,0.1s0.1,0.1,0.2,0.3c0.1,0.1,0.1,0.2,0.2,0.2
					c0,0.1,0.1,0.2,0.1,0.3c0.1,0.2,0.1,0.4,0.1,0.6c0.1,0.2,0.1,0.4,0.2,0.6c0,0.3,0.1,0.5,0.1,0.7c0.1,0.2,0.1,0.5,0.1,0.7
					c0,0.1,0,0.2,0.1,0.3c0,0.2,0.1,0.3,0.1,0.5c0,0.1,0,0.2,0.1,0.3c0,0.1,0.1,0.2,0.1,0.3c0,0,0.1,0,0.2,0c0.1,0,0.1,0,0.1,0
					c0.1,0,0.3,0,0.3,0.2c0,0,0,0.1,0,0.1c0,0,0,0.1-0.1,0.1c-0.1,0.1-0.2,0.2-0.2,0.2c0,0-0.1,0-0.1,0c0,0-0.1,0-0.1,0
					c0,0,0,0,0,0.1c0,0,0,0.1,0,0.2c0,0.1,0,0.1,0,0.2v0.2c0,0.1,0,0.1,0,0.2c0,0.1,0.1,0.2,0.1,0.4c0,0.1,0.1,0.2,0.1,0.4
					c0,0.1,0.1,0.3,0.1,0.4c0,0.2,0,0.3,0.1,0.4c0,0.1,0,0.1,0,0.2c0.1,0,0.2,0,0.3,0C23.5,97.1,23.7,97.2,23.7,97.3L23.7,97.3z
					 M20.7,94c0-0.1,0-0.2,0-0.2c0-0.2-0.1-0.3-0.1-0.5c0-0.4,0-0.7,0-1.1c0-0.2,0-0.3-0.1-0.5c0-0.2-0.1-0.4-0.1-0.6
					c0-0.1,0-0.3,0-0.5c0-0.2-0.1-0.3-0.1-0.3c-0.1,0-0.2,0.2-0.2,0.3c0,0.1-0.1,0.3-0.1,0.4c0,0.1,0,0.1,0,0.2c0,0.1,0,0.1,0,0.2
					c-0.1,0.2-0.1,0.3-0.1,0.5c-0.1,0.3-0.2,0.6-0.2,0.9c0,0.1-0.1,0.3-0.1,0.4c0,0.2-0.1,0.3-0.1,0.5c0,0.1-0.1,0.3-0.1,0.4
					c0,0,0,0,0.1,0c0.1,0,0.2,0,0.3,0c0.1,0,0.2,0,0.3,0c0.1,0,0.2,0,0.2,0c0.1,0,0.2,0,0.3,0C20.6,94.1,20.6,94.1,20.7,94
					C20.7,94.1,20.7,94.1,20.7,94z"/>
				<path class="st9" d="M28.3,97.1c0,0.1,0,0.5-0.2,0.5c-0.1,0-0.1,0-0.2-0.1c-0.1-0.1-0.1-0.1-0.1-0.2c-0.1-0.2,0-0.4,0-0.6
					c-0.1,0.1-0.2,0.4-0.3,0.5c-0.3,0.3-0.6,0.4-1.1,0.4c-0.1,0-0.2,0-0.3,0c-0.3-0.1-0.6-0.2-0.9-0.3c-0.2-0.1-0.4-0.3-0.6-0.4
					c-0.2-0.2-0.3-0.4-0.4-0.7c-0.1-0.3-0.2-0.5-0.2-0.8c0-0.3-0.1-0.6-0.1-0.9c0-0.3,0-0.6,0-0.9c0-0.3,0-0.6,0.1-0.8
					c0.1-0.3,0.2-0.6,0.3-0.9c0.1-0.3,0.2-0.6,0.3-0.9c0.1-0.3,0.3-0.5,0.5-0.7c0.2-0.2,0.3-0.4,0.5-0.6c0.2-0.2,0.4-0.3,0.7-0.3
					c0.2-0.1,0.4-0.1,0.6-0.1c0.1,0,0.2,0,0.2,0c0.1,0,0.2,0.1,0.3,0.2c0.1,0.1,0.1,0.2,0.2,0.3c0.1,0.1,0.1,0.2,0.2,0.3
					c0-0.1,0-0.3,0-0.3c0-0.1,0-0.2,0.1-0.3c0-0.1,0-0.1,0.1-0.1c0,0,0.1-0.1,0.1-0.1c0,0,0.1,0.1,0.1,0.1c0.1,0.1,0.1,0.2,0.1,0.3
					c0,0.1,0,0.3,0,0.6c0,0.3,0,0.7,0,0.8c0,0.3,0,0.4,0,0.7c0,0,0,0.1,0,0.1c0,0.1,0,0.1,0,0.2c0,0.1-0.1,0.3-0.2,0.3
					c-0.1,0-0.1,0-0.2-0.1c-0.1-0.1-0.1-0.1-0.1-0.2c-0.1-0.3,0-0.3,0-0.6c0,0,0-0.1,0-0.1c-0.1-0.2-0.1-0.5-0.2-0.7
					c-0.1-0.2-0.3-0.5-0.6-0.5c-0.1,0-0.3,0.1-0.4,0.2c-0.1,0-0.1,0.1-0.1,0.1c0,0-0.1,0.1-0.1,0.1c-0.1,0.1,0,0.2-0.1,0.3
					c-0.1,0.1-0.1,0.3-0.1,0.4c-0.1,0.3-0.1,0.5-0.2,0.8c-0.1,0.3-0.1,0.5-0.1,0.8c0,0.1,0,0.1,0,0.1c0,0.1,0,0.1,0,0.2
					c0,0.1,0,0.2,0,0.2c0,0,0,0.1,0,0.1c0,0.1,0,0.1,0,0.2c0,0,0,0.1,0,0.1c0,0.1,0,0.1,0,0.1c0,0.1,0,0.2,0,0.2
					c0,0.3,0.1,0.6,0.1,0.9c0,0.3,0,0.6,0.1,0.9c0,0.1,0,0.3,0.1,0.4c0,0.1,0.1,0.2,0.2,0.3c0.1,0.2,0.3,0.4,0.5,0.4
					c0.3,0,0.6-0.3,0.7-0.5c0.1-0.2,0.2-0.3,0.2-0.5c0-0.4,0-0.8,0-0.9c0-0.1,0-0.2,0.1-0.3c0-0.1,0-0.1,0.1-0.1
					c0,0,0.1-0.1,0.1-0.1s0.1,0.1,0.1,0.1c0.1,0.1,0.1,0.2,0.1,0.3c0,0.1,0,0.6,0,0.8c0,0.3,0,0.7,0,0.8
					C28.3,96.7,28.4,96.8,28.3,97.1z"/>
				<path class="st9" d="M32.8,92.8c-0.1,0.2-0.3,0.3-0.3,0.5c0,0.1,0.2,0.1,0.5,0.2c0.2,0.1,0.5,0.3,0.6,0.6
					c0.1,0.1,0.1,0.3,0.2,0.4c0.1,0.2,0.1,0.3,0.1,0.5c0,0.2,0.1,0.3,0.1,0.4c0.1,0.1,0.1,0.3,0.1,0.5c0,0.1,0,0.3,0.1,0.4
					c0,0.1,0.1,0.1,0.1,0.2c0,0.1,0.1,0.1,0.1,0.2c0,0.1,0.1,0.2,0.2,0.4c0.1,0.1,0.1,0.2,0.3,0.2c0.1,0,0.1,0.1,0.1,0.2
					c0,0,0,0.1,0,0.1c-0.1,0.1-0.2,0.2-0.4,0.2c-0.2,0-0.4,0-0.6-0.1c-0.2-0.1-0.5-0.3-0.6-0.4c-0.1-0.1-0.2-0.2-0.3-0.3
					c-0.1-0.1-0.1-0.3-0.2-0.4c-0.1-0.3-0.2-0.5-0.2-0.8c-0.1-0.2-0.1-0.4-0.2-0.6c0-0.1-0.1-0.2-0.1-0.4c0-0.1-0.1-0.2-0.1-0.3
					c-0.1-0.1-0.1-0.3-0.2-0.3c0,0-0.1,0-0.1,0.1c-0.1,0.1-0.2,0.2-0.2,0.3c-0.1,0.1-0.1,0.3-0.2,0.4c0,0.1,0,0.2,0,0.3
					c0,0,0,0,0,0.1c0,0.1,0,0.3,0,0.4c0,0.4,0,0.6,0,1c0,0.1,0,0.3,0,0.4c0.1,0,0.2,0,0.3,0c0.2,0,0.5,0,0.5,0.2
					c0,0.1,0,0.1-0.1,0.2c-0.1,0.1-0.1,0.1-0.2,0.1c-0.1,0-0.2,0-0.3,0c0,0-0.2,0-0.5,0c-0.1,0.1-0.2,0.1-0.3,0.1
					c-0.1,0-0.2,0-0.3-0.1c-0.1,0-0.2,0-0.2,0c-0.2,0-0.5,0-0.7,0c-0.1,0-0.2,0-0.3,0c-0.1,0-0.2,0-0.3-0.1c-0.1,0-0.2-0.2-0.2-0.2
					c0,0,0-0.1,0.1-0.1c0.1-0.1,0.2-0.1,0.3-0.1c0.2,0,0.5-0.1,0.6-0.1c0.1,0,0.2,0,0.3,0c0,0,0-0.1,0-0.1c-0.2-0.3-0.2-0.6-0.2-0.9
					c0-0.4,0-0.7,0-1.1c0-0.4,0-0.8,0-1.2c0-0.3,0-0.7,0-1c0-0.3,0-0.6,0-0.9c0-0.2,0-0.4,0-0.6c0-0.2,0-0.3,0-0.5
					c0-0.3,0-0.5,0-0.8c0,0,0,0-0.1,0c-0.1,0-0.2,0-0.3,0c-0.1,0-0.2,0-0.3-0.1c-0.1,0-0.2-0.2-0.2-0.2c0,0,0-0.1,0.1-0.1
					c0.1-0.1,0.2-0.1,0.3-0.1c0.2,0,0.6-0.1,0.7-0.1c0,0,0.1,0,0.1,0c0.1-0.1,0.2-0.1,0.3-0.1c0,0,0.1,0,0.1,0
					c0.1,0,0.2,0.1,0.4,0.1c0.4,0,0.9,0,1,0c0.2,0,0.5,0,0.5,0.2c0,0.1,0,0.1-0.1,0.2c-0.1,0.1-0.1,0.1-0.2,0.1c-0.1,0-0.2,0-0.3,0
					c-0.1,0-0.3,0-0.6,0c0.1,0.1,0.1,0.2,0.1,0.3c0,0.1,0,0.1,0,0.2c0,0.1,0,0.1,0,0.1c0,0.1,0,0.3,0.1,0.4c0,0,0,0.1,0,0.1
					c0,0.1,0,0.2,0,0.3c0,0.2,0,0.4,0.1,0.5c0,0.1,0.1,0.3,0.1,0.4c0,0.1,0,0.2,0,0.3c0,0,0,0.1,0,0.1c0,0.1,0,0.2,0,0.3
					c0,0.1,0,0.2,0,0.3c0,0.1,0,0.2,0.1,0.2c0.1,0,0.1-0.1,0.2-0.2c0.1-0.2,0.2-0.3,0.2-0.5c0.1-0.1,0.1-0.2,0.2-0.3
					c0.1-0.2,0.2-0.4,0.3-0.6c0.1-0.2,0.2-0.3,0.3-0.5c0.1-0.2,0.2-0.4,0.3-0.6c0.1-0.2,0.2-0.5,0.4-0.7c0,0,0,0,0-0.1
					c-0.1,0-0.1,0-0.2,0c-0.1,0-0.2,0-0.2-0.1c-0.1,0-0.2-0.2-0.2-0.2c0,0,0-0.1,0-0.1c0-0.1,0.1-0.1,0.2-0.1c0.2,0,0.4-0.1,0.5-0.1
					c0.1,0,0.1,0,0.2,0c0,0,0,0,0.1,0c0.1,0,0.1-0.1,0.2-0.1s0.1,0,0.2,0c0,0,0.1,0,0.1,0c0.2,0,0.4,0,0.6,0c0.1,0,0.3,0,0.3,0.2
					c0,0.1,0,0.1-0.1,0.2c0,0.1-0.1,0.1-0.2,0.1c-0.1,0-0.1,0-0.2,0c0,0-0.3,0-0.5,0c-0.1,0.1-0.1,0.2-0.2,0.3
					c-0.1,0.2-0.2,0.5-0.4,0.7c-0.1,0.3-0.2,0.6-0.4,0.9C33.1,92.2,32.9,92.5,32.8,92.8z"/>
				<path class="st9" d="M38.3,97c0.2,0,0.5,0,0.5,0.2c0,0.1,0,0.1-0.1,0.2c-0.1,0.1-0.1,0.1-0.2,0.1c-0.1,0-0.2,0-0.3,0
					c0,0-0.3,0-0.5,0c-0.3,0-0.6,0-0.7,0c-0.2,0-0.5,0-0.7,0c-0.1,0-0.2,0-0.3,0s-0.2,0-0.3-0.1c-0.1,0-0.2-0.2-0.2-0.2
					c0,0,0-0.1,0.1-0.1c0.1-0.1,0.2-0.1,0.3-0.1c0.2,0,0.5-0.1,0.6-0.1c0,0,0.1,0,0.1,0c-0.1-0.1-0.2-0.2-0.2-0.3c0-0.1,0-0.1,0-0.2
					c0,0,0-0.1,0-0.1c0,0,0-0.1,0-0.1c0-0.1,0-0.2,0-0.3c0-0.1,0-0.1,0-0.1c0-0.6,0-1.3,0-1.9c0-0.3,0-0.7,0-1c0-0.3,0-0.6,0-0.9
					c0-0.2,0-0.3,0-0.5c0-0.2,0-0.4,0-0.6c0-0.3,0-0.6,0-0.8c0,0,0-0.1,0-0.1c0,0-0.1,0-0.1,0c-0.1,0-0.2,0-0.3,0s-0.2,0-0.3-0.1
					c-0.1,0-0.2-0.2-0.2-0.2c0,0,0-0.1,0-0.1c0.1-0.1,0.2-0.1,0.3-0.1c0.2,0,0.5-0.1,0.6-0.1c0,0,0-0.1,0-0.1c0-0.1,0-0.1,0-0.2
					c0,0,0.1-0.1,0.2-0.1c0.1,0,0.1-0.1,0.2-0.1s0.1,0,0.2,0c0.1,0,0.2,0,0.3,0c0.2,0.1,0.4,0.2,0.5,0.4c0.3,0,0.5,0,0.6,0
					c0.2,0,0.5,0,0.5,0.2c0,0.1,0,0.1-0.1,0.2C38.6,90,38.5,90,38.5,90c-0.1,0-0.2,0-0.3,0c0,0-0.2,0-0.4,0v0c0,0.2,0.1,0.3,0.1,0.5
					c0,0.2,0,0.3,0,0.5s0,0.3,0,0.4c0,0.1,0,0.2,0,0.2c0,0.1,0,0.1,0,0.2c0.1,0.3,0,0.6,0.1,0.9c0,0.3,0,0.7,0,1c0,0.3,0,0.6,0,0.8
					c0,0.3,0.1,0.6,0.1,0.9c0,0.2,0,0.3,0,0.5c0,0.2,0,0.3,0,0.5c0,0.1,0,0.3-0.1,0.4C38.1,97,38.2,97,38.3,97L38.3,97z"/>
				<path class="st9" d="M44.9,89.5c0.1,0,0.4,0,0.4,0.2c0,0.1,0,0.1-0.1,0.2c0,0.1-0.1,0.1-0.2,0.1c-0.1,0-0.2,0-0.2,0
					c0,0-0.2,0-0.4,0c0,0.1,0,0.2,0,0.3c0,0.2,0,0.3,0,0.4c0,0.2,0,0.4,0.1,0.7c0,0.2,0,0.4,0,0.7c0,0.2,0,0.4,0,0.6
					c0,0.2,0,0.4,0,0.6c0,0.2-0.1,0.4-0.1,0.6s0,0.4,0,0.6c0,0.2,0,0.5,0,0.7c0,0.2,0,0.4,0,0.5c0,0.2,0,0.4,0,0.6
					c0,0.2,0.1,0.4,0.1,0.6c0,0.1,0,0.3-0.1,0.4c-0.2,0.2-0.4,0.2-0.6,0.2c-0.2,0-0.3-0.1-0.5-0.1c-0.2-0.1-0.3-0.1-0.5-0.2
					c-0.3-0.2-0.4-0.5-0.6-0.9c-0.2-0.4-0.3-0.7-0.5-1.1c-0.1-0.2-0.2-0.4-0.2-0.6c-0.1-0.3-0.2-0.7-0.4-1c-0.1-0.2-0.2-0.4-0.2-0.7
					c-0.1-0.2-0.1-0.4-0.2-0.5c0-0.1-0.1-0.1-0.1-0.1c0,0-0.1,0.1-0.1,0.2c0,0.1,0,0.1,0,0.2c0,0.2,0,0.4,0,0.6c0,0.4,0,0.8,0.1,1.2
					c0,0.1,0,0.2,0,0.4c0,0.3,0,0.5,0,0.8c0,0.3,0,0.6,0,0.9c0,0.1,0,0.2,0,0.3c0,0.1,0,0.2,0,0.4c0.2,0,0.4,0,0.5,0
					c0.1,0,0.4,0,0.4,0.2c0,0.1,0,0.1-0.1,0.2c0,0.1-0.1,0.1-0.2,0.1c-0.1,0-0.2,0-0.2,0c0,0-0.3,0-0.5,0c-0.2,0-0.4,0-0.4,0
					c-0.1,0-0.4,0-0.5,0c-0.1,0-0.2,0-0.2,0c-0.1,0-0.2,0-0.3-0.1c-0.1,0-0.2-0.2-0.2-0.2c0,0,0-0.1,0-0.1c0.1-0.1,0.2-0.1,0.2-0.1
					c0.2,0,0.5-0.1,0.6-0.1c0,0,0.1,0,0.1,0c0-0.5,0-1,0-1.6c0-0.2,0-0.3,0-0.5c0-0.6,0-1.1,0-1.6c0-0.3,0-0.6,0-0.9
					c0-0.4,0-0.7,0-1.1c0-0.4,0-0.8,0-1.3c-0.1,0-0.3,0-0.4,0c-0.1,0-0.2,0-0.2,0c-0.1,0-0.2,0-0.3-0.1c-0.1,0-0.2-0.2-0.2-0.2
					c0,0,0-0.1,0-0.1c0.1-0.1,0.2-0.1,0.2-0.1c0.2,0,0.6-0.1,0.7-0.1c0.1,0,0.2,0,0.4,0c0.1-0.1,0.1-0.1,0.2-0.2
					c0.1-0.1,0.2-0.1,0.3-0.1c0.2,0,0.3,0.1,0.4,0.2c0.1,0.1,0.2,0.2,0.2,0.4c0.1,0.2,0.1,0.4,0.2,0.5c0.1,0.2,0.1,0.3,0.2,0.5
					c0.1,0.2,0.2,0.3,0.2,0.5c0.1,0.2,0.1,0.3,0.2,0.5c0.1,0.2,0,0.3,0.1,0.5c0.2,0.3,0.3,0.7,0.4,1c0,0.2,0.1,0.3,0.2,0.5
					c0.1,0.2,0.1,0.4,0.2,0.5c0,0.2,0.1,0.3,0.2,0.5c0,0.1,0.1,0.1,0.1,0.2c0,0.1,0,0.2,0.1,0.2c0,0.1,0.1,0.2,0.1,0.3
					c0,0.1,0.1,0.1,0.1,0.1s0.1,0,0.1-0.1c0,0,0-0.1,0-0.1c0-0.2,0-0.4,0-0.6c0-0.4,0-0.8,0-1.3c0-0.4-0.1-0.8-0.1-1.2
					c0-0.3,0-0.5,0-0.8c0-0.2,0-0.3,0-0.5c0-0.2,0-0.5,0-0.7c0-0.1,0-0.3,0-0.4c-0.1,0-0.3,0-0.4,0c-0.1,0-0.2,0-0.2,0
					c-0.1,0-0.2,0-0.3-0.1c-0.1,0-0.2-0.2-0.2-0.2c0,0,0-0.1,0-0.1c0.1-0.1,0.2-0.1,0.2-0.1c0.2,0,0.6-0.1,0.7-0.1s0.2,0,0.3,0
					c0.1-0.1,0.1-0.1,0.2-0.1s0.2,0,0.2,0.1C44.6,89.5,44.8,89.5,44.9,89.5L44.9,89.5z"/>
				<path class="st9" d="M50.9,94.1c0,0.1-0.1,0.2-0.2,0.3c-0.2,0.1-0.4,0.1-0.5,0.1c-0.1,0-0.2,0-0.2,0.2c0,0.1,0,0.3,0,0.4
					c0,0.1,0,0.4,0,0.4c0,0.1,0,0.2,0,0.3c0,0.3,0,0.7,0,0.8c0,0.3,0,0.4,0,0.7c0,0.1,0,0.5-0.2,0.5c-0.1,0-0.1,0-0.2-0.1
					c-0.1-0.1-0.1-0.1-0.1-0.2c0-0.1,0-0.2,0-0.2c0-0.1,0-0.2,0-0.3v0c-0.1,0.3-0.2,0.5-0.5,0.6c-0.3,0.2-0.6,0.4-1,0.4
					c-0.2,0-0.5,0-0.7-0.1c-0.3-0.1-0.5-0.2-0.7-0.4c-0.3-0.3-0.5-0.6-0.6-0.9c-0.1-0.3-0.2-0.5-0.3-0.8c0-0.2-0.1-0.4-0.1-0.6
					s0-0.3,0-0.5c0-0.7,0.2-1.4,0.4-2.1c0.1-0.3,0.2-0.7,0.3-1c0.1-0.4,0.3-0.7,0.5-1c0.2-0.3,0.4-0.6,0.6-0.8
					c0.1-0.1,0.2-0.2,0.4-0.2c0.2-0.1,0.3-0.2,0.5-0.2c0,0,0.1,0,0.1,0c0.1,0,0.1,0,0.3,0c0.2,0,0.3,0.1,0.4,0.1
					c0.1,0.1,0.2,0.2,0.3,0.3c0-0.1,0-0.2,0.1-0.2c0-0.1,0-0.1,0.1-0.1c0,0,0.1-0.1,0.1-0.1c0,0,0.1,0.1,0.1,0.1
					c0.1,0.1,0.1,0.2,0.1,0.3c0,0.1,0,0.3,0,0.6c0,0.3,0,0.7,0,0.8c0,0.3,0,0.4,0,0.7c0,0.1,0,0.5-0.2,0.5c-0.1,0-0.1,0-0.2-0.1
					c-0.1-0.1-0.1-0.1-0.1-0.2c0-0.1,0-0.1,0-0.2c0-0.1,0-0.2,0-0.3c0-0.1,0-0.2,0-0.3c0-0.2-0.1-0.4-0.1-0.6c0-0.2-0.1-0.3-0.2-0.5
					c-0.1-0.1-0.2-0.2-0.4-0.2c-0.2,0-0.3,0.1-0.4,0.2s-0.2,0.3-0.3,0.4c-0.1,0.2-0.1,0.3-0.1,0.5c0,0.2-0.1,0.3-0.1,0.5
					c-0.1,0.2-0.1,0.4-0.1,0.6c0,0.2-0.1,0.3-0.1,0.5c0,0.2-0.1,0.3-0.1,0.5c0,0.2,0,0.4-0.1,0.5c0,0.2,0,0.3-0.1,0.5
					c0,0.2,0,0.3,0,0.5c0,0.2,0,0.4,0,0.7c0,0.3,0.1,0.6,0.2,0.9c0,0.1,0.1,0.2,0.1,0.3c0,0.2,0.1,0.3,0.2,0.4
					c0.1,0.2,0.3,0.4,0.6,0.4c0.2,0,0.4-0.2,0.5-0.3c0.2-0.2,0.3-0.5,0.3-0.8c0.1-0.2,0.1-0.5,0.1-0.7c0-0.2,0-0.4,0-0.6
					c0,0,0-0.1,0-0.1c0-0.1,0-0.2-0.2-0.2c-0.2,0-0.3,0-0.5,0c-0.1,0-0.3,0-0.4-0.1c-0.1,0-0.1-0.1-0.1-0.1c0,0,0-0.1,0.1-0.1
					c0.1-0.1,0.2-0.1,0.2-0.1c0.2-0.1,0.4-0.1,0.6-0.1c0.2,0,0.4,0,0.5-0.1c0.1,0,0.3,0,0.4,0c0.2,0,0.5,0,0.7,0
					C50.7,93.9,50.9,93.9,50.9,94.1z"/>
				<path class="st9" d="M59.9,97c0.2,0,0.5,0,0.5,0.2c0,0.1,0,0.1-0.1,0.2c-0.1,0.1-0.1,0.1-0.2,0.1c-0.1,0-0.2,0-0.3,0
					c0,0-0.2,0-0.4,0c-0.2,0.1-0.4,0.2-0.6,0.2c-0.1,0-0.2,0-0.3-0.1c-0.1,0-0.1-0.1-0.2-0.1c-0.2,0-0.3,0-0.5,0c-0.1,0-0.2,0-0.3,0
					c-0.1,0-0.2,0-0.3-0.1c-0.1,0-0.2-0.2-0.2-0.2c0,0,0-0.1,0.1-0.1c0.1-0.1,0.2-0.1,0.3-0.1c0.2,0,0.6-0.1,0.6-0.1c0,0,0,0,0.1,0
					c0-0.1,0-0.1,0-0.2c-0.1-0.3-0.1-0.7-0.1-1.1c0-0.4,0-0.9,0-1.3c0-0.4,0-0.8,0-1.1c0-0.4,0-0.7,0-1.1c0-0.3,0-0.8,0-0.9
					c0-0.1,0-0.1,0-0.1c0,0,0,0,0,0.1c0,0.2-0.1,0.3-0.1,0.5c-0.1,0.3-0.1,0.7-0.2,1c-0.1,0.3-0.2,0.7-0.2,1c0,0.2-0.1,0.3-0.1,0.5
					c0,0.2-0.1,0.3-0.1,0.5c0,0.2-0.1,0.4-0.2,0.5c-0.1,0.1-0.2,0.2-0.4,0.2c-0.3,0-0.5-0.1-0.7-0.3c-0.2-0.2-0.3-0.6-0.4-0.9
					c-0.1-0.3-0.2-0.7-0.2-1c0-0.1-0.1-0.4-0.1-0.7c-0.1-0.3-0.1-0.7-0.2-1c-0.1-0.2-0.1-0.4-0.1-0.5c0-0.1,0-0.1,0-0.1
					c0,0,0,0.1-0.1,0.2c0,0.1,0,0.3,0,0.3c0,0.2,0,0.3,0,0.5c0,0.1,0,0.3,0,0.6c0,0.2,0,0.4,0,0.6c0,0.2,0,0.3,0,0.5
					c0,0.1,0,0.3,0,0.4c0,0.1,0,0.2,0,0.3c0,0.1,0,0.2,0,0.3c0,0.2-0.1,0.4-0.1,0.6c-0.1,0.4-0.1,0.8-0.1,1.1c0,0.2,0,0.4,0,0.6
					c0,0.1,0,0.1,0,0.2c0.3,0,0.5,0,0.6,0c0.1,0,0.4,0,0.4,0.2c0,0.1-0.1,0.1-0.1,0.2c0,0.1-0.1,0.1-0.2,0.1c-0.1,0-0.2,0-0.2,0
					c-0.1,0-0.7,0-0.8,0c-0.2,0-0.6,0-0.7,0c-0.1,0-0.2,0-0.3,0c-0.1,0-0.2,0-0.3-0.1c-0.1,0-0.1-0.2-0.1-0.2c0,0,0-0.1,0.1-0.1
					c0.1-0.1,0.1-0.1,0.2-0.1c0.2,0,0.6-0.1,0.6-0.1c0,0,0.1,0,0.2,0c0-0.3,0.1-0.7,0.1-1c0-0.4,0.1-0.8,0.1-1.2c0-0.3,0-0.7,0.1-1
					c0-0.5,0.1-1,0.1-1.5c0-0.2,0-0.5,0.1-0.7c0-0.4,0.1-0.6,0.1-1c0-0.2,0-0.4,0.1-0.6c0,0,0,0,0-0.1c-0.1,0-0.1,0-0.3,0
					c-0.1,0-0.2,0-0.3,0c-0.1,0-0.2,0-0.3-0.1c-0.1,0-0.2-0.2-0.2-0.2c0,0,0-0.1,0.1-0.1c0.1-0.1,0.2-0.1,0.3-0.1
					c0.2,0,0.6-0.1,0.6-0.1c0.3,0,0.5,0,0.8,0c0,0,0.1,0,0.1,0c0.1,0,0.3,0,0.4,0.1c0.2,0.1,0.4,0.3,0.5,0.6c0.1,0.3,0.2,0.7,0.3,1
					c0,0.2,0,0.3,0.1,0.5c0.1,0.2,0.1,0.4,0.1,0.5c0,0.2,0,0.3,0.1,0.5c0.1,0.2,0.1,0.3,0.1,0.4c0,0.1,0.1,0.3,0.2,0.5
					c0.1,0.2,0.1,0.3,0.1,0.3c0.1,0,0.1-0.4,0.1-0.5c0-0.2,0.1-0.4,0.1-0.6c0.1-0.4,0.2-0.8,0.2-1.2c0.1-0.4,0.2-0.8,0.2-1.2
					c0.1-0.3,0.2-0.6,0.4-0.9c0.2-0.2,0.4-0.3,0.6-0.3c0.1,0,0.2,0,0.3,0.1h0.9c0.2,0,0.5,0,0.5,0.2c0,0.1,0,0.1-0.1,0.2
					c-0.1,0.1-0.1,0.1-0.2,0.1c-0.1,0-0.2,0-0.3,0c-0.1,0-0.2,0-0.3,0c0,0,0,0.1,0,0.1c0,0.2,0.1,0.3,0.1,0.5c0,0.2,0,0.4,0.1,0.5
					c0,0.1,0.1,0.3,0.1,0.4c0,0,0,0,0,0.1c0,0,0,0.1,0,0.1c0,0.1,0,0.2,0,0.4c0,0.2,0.1,0.3,0.1,0.5c0,0.1,0,0.1,0,0.2
					c0,0.1,0.1,0.2,0.1,0.2c0,0.1,0,0.1,0,0.2c0,0.1,0,0.2,0,0.3c0,0.1,0,0.2,0,0.3c0,0.1,0,0.2,0.1,0.3c0,0.1,0,0.2,0,0.3
					c0,0.1,0,0.1,0,0.2s0,0.1,0,0.1c0,0.1,0.1,0.2,0.1,0.3c0,0.2,0,0.3,0.1,0.4c0,0.2,0,0.4,0.1,0.6c0,0,0,0.1,0,0.1
					c0,0.1,0,0.1,0,0.2c0,0.2,0,0.2,0,0.3c0,0.1,0,0.1,0,0.2c0,0.1,0,0.1,0,0.2c0,0,0,0.1,0,0.1c0,0.1,0,0.2,0,0.3c0,0,0,0.1,0,0.1
					C59.8,97,59.8,97,59.9,97L59.9,97z"/>
				<path class="st9" d="M66.9,97.3c0,0.1-0.1,0.1-0.1,0.2c-0.1,0.1-0.1,0.1-0.2,0.1c-0.1,0-0.2,0-0.3,0c-0.1,0-0.2,0-0.3,0
					c0,0-0.1,0-0.1,0c-0.1,0-0.1,0-0.2,0.1c-0.1,0-0.1,0-0.2,0c-0.2,0-0.3,0-0.4-0.1c-0.1,0-0.2,0-0.3,0c-0.3,0-0.5,0-0.6,0
					c-0.1,0-0.2,0-0.3-0.1c-0.1,0-0.2-0.1-0.2-0.2c0-0.2,0.2-0.2,0.3-0.2c0.1,0,0.2,0,0.3,0c0-0.1,0-0.2,0-0.2c0-0.1,0-0.2,0-0.3
					c0-0.1,0-0.1,0-0.2c0-0.1,0-0.1,0-0.2c0-0.1,0-0.1-0.1-0.2c0-0.1-0.1-0.3-0.1-0.4c0-0.1,0-0.2,0-0.4c0-0.1,0-0.3-0.1-0.4
					c0-0.1,0-0.1-0.1-0.1c0,0-0.1,0-0.1,0c-0.1,0-0.3,0-0.4,0s-0.3,0-0.4,0c-0.1,0-0.2,0-0.3,0c-0.1,0-0.2,0-0.3,0
					c-0.1,0-0.1,0.1-0.1,0.2c0,0.1-0.1,0.3-0.1,0.4c-0.1,0.2-0.1,0.5-0.1,0.7c-0.1,0.3-0.2,0.7-0.2,0.9c0.1,0,0.2,0,0.4,0
					c0.2,0,0.4,0,0.5,0.2c0,0.1,0,0.1-0.1,0.2c-0.1,0.1-0.1,0.1-0.2,0.1c-0.1,0-0.2,0-0.3,0s-0.2,0-0.3,0c-0.2,0-0.4,0-0.5,0
					c-0.1,0-0.2,0-0.3,0c-0.1,0-0.2,0-0.3-0.1c-0.1,0-0.2-0.2-0.2-0.2c0,0,0-0.1,0.1-0.1c0.1-0.1,0.2-0.1,0.3-0.1
					c0.2,0,0.3,0,0.5-0.1c0,0,0,0,0,0c0-0.1,0-0.3,0.1-0.4c0.1-0.3,0.1-0.6,0.2-0.8c0-0.2,0.1-0.4,0.1-0.7c0-0.1,0.1-0.2,0.1-0.3
					c0-0.1-0.2-0.1-0.3-0.2c-0.1,0-0.1-0.1-0.1-0.1c0-0.1,0.1-0.1,0.2-0.2c0.1,0,0.3,0,0.3-0.1c0.1-0.1,0.1-0.3,0.1-0.4
					c0.1-0.3,0.2-0.5,0.2-0.8c0.1-0.3,0.2-0.6,0.2-0.8c0.1-0.3,0.1-0.5,0.2-0.8c0.1-0.3,0.1-0.5,0.2-0.8c0.1-0.3,0.2-0.5,0.3-0.8
					l0.1-0.2c0.1-0.1,0.1-0.2,0.2-0.3c0.2-0.1,0.5-0.2,0.7-0.2c0.2,0,0.3,0,0.4,0.1s0.1,0.1,0.2,0.3c0.1,0.1,0.1,0.2,0.2,0.2
					c0,0.1,0,0.2,0.1,0.3c0.1,0.2,0.1,0.4,0.1,0.6c0.1,0.2,0.1,0.4,0.2,0.6c0,0.3,0.1,0.5,0.1,0.7c0.1,0.2,0.1,0.5,0.1,0.7
					c0,0.1,0,0.2,0.1,0.3c0,0.2,0.1,0.3,0.1,0.5c0,0.1,0,0.2,0.1,0.3c0,0.1,0.1,0.2,0.1,0.3c0,0,0.1,0,0.2,0c0.1,0,0.1,0,0.1,0
					c0.1,0,0.3,0,0.3,0.2c0,0,0,0.1,0,0.1c0,0,0,0.1-0.1,0.1c-0.1,0.1-0.2,0.2-0.2,0.2c0,0-0.1,0-0.1,0c0,0-0.1,0-0.1,0
					c0,0,0,0,0,0.1c0,0,0,0.1,0,0.2c0,0.1,0,0.1,0,0.2v0.2c0,0.1,0,0.1,0,0.2c0,0.1,0.1,0.2,0.1,0.4c0,0.1,0.1,0.2,0.1,0.4
					c0,0.1,0.1,0.3,0.1,0.4c0,0.2,0,0.3,0.1,0.4c0,0.1,0,0.1,0,0.2c0.1,0,0.2,0,0.3,0C66.7,97.1,66.9,97.2,66.9,97.3L66.9,97.3z
					 M63.9,94c0-0.1,0-0.2,0-0.2c0-0.2-0.1-0.3-0.1-0.5c0-0.4,0-0.7,0-1.1c0-0.2,0-0.3-0.1-0.5c0-0.2-0.1-0.4-0.1-0.6
					c0-0.1,0-0.3,0-0.5c0-0.2-0.1-0.3-0.1-0.3c-0.1,0-0.2,0.2-0.2,0.3c0,0.1-0.1,0.3-0.1,0.4c0,0.1,0,0.1,0,0.2c0,0.1,0,0.1,0,0.2
					c-0.1,0.2-0.1,0.3-0.1,0.5c-0.1,0.3-0.2,0.6-0.2,0.9c0,0.1-0.1,0.3-0.1,0.4c0,0.2-0.1,0.3-0.1,0.5c0,0.1-0.1,0.3-0.1,0.4
					c0,0,0,0,0.1,0c0.1,0,0.2,0,0.3,0c0.1,0,0.2,0,0.3,0c0.1,0,0.2,0,0.2,0c0.1,0,0.2,0,0.3,0C63.8,94.1,63.8,94.1,63.9,94
					C63.9,94.1,63.9,94.1,63.9,94z"/>
				<path class="st9" d="M73.1,93.6c0,0.1,0,0.2,0,0.3c0,0.1-0.1,0.2-0.1,0.3c0,0.1,0,0.2,0,0.3c0,0.1,0,0.1-0.1,0.2
					c0,0.1,0,0.2-0.1,0.2c-0.1,0.1-0.1,0.2-0.1,0.4c0,0.1-0.1,0.2-0.1,0.3c-0.1,0.1-0.1,0.2-0.2,0.3c-0.1,0.1-0.1,0.2-0.1,0.2
					c-0.1,0.1-0.2,0.3-0.3,0.4c-0.3,0.4-0.5,0.5-0.7,0.7c-0.1,0.1-0.3,0.2-0.5,0.2c-0.2,0-0.3,0.1-0.5,0.1c-0.1,0-0.3-0.1-0.4-0.1
					c-0.4,0-0.2,0-0.6,0c-0.1,0.1-0.1,0.2-0.2,0.2c-0.1,0-0.1,0-0.2,0c-0.1,0-0.1,0-0.2,0c0,0-0.1,0-0.2,0c-0.1,0-0.2-0.1-0.2-0.1
					c-0.1-0.1-0.1-0.1-0.2-0.2c0,0-0.1,0-0.1-0.1c-0.1,0,0,0-0.2,0c-0.1,0-0.2,0-0.3,0s-0.2,0-0.3-0.1c-0.1,0-0.2-0.2-0.2-0.2
					c0-0.1,0-0.1,0.1-0.2c0.1-0.1,0.2-0.1,0.3-0.1c0.1,0,0.3,0,0.5-0.1c0-0.1,0-0.2,0-0.3c0-0.6,0-1.1,0-1.6c0-0.2,0-0.7,0.1-1.5
					c0-0.6,0-1.1,0-1.7c0-0.3,0-0.7,0-1.1c0-0.2,0-0.4,0-0.7c0,0,0,0-0.1,0c-0.1,0-0.2,0-0.3,0c-0.1,0-0.2,0-0.3-0.1
					c-0.1,0-0.2-0.2-0.2-0.2c0,0,0-0.1,0.1-0.2c0.1-0.1,0.2-0.1,0.3-0.1c0.2,0,0.5-0.1,0.6-0.1c0,0,0.1-0.1,0.1-0.1
					c0,0,0.1-0.1,0.2-0.1s0.1-0.1,0.2-0.1s0.1,0,0.2,0c0.1,0,0.2,0,0.3,0c0.2,0,0.3,0.1,0.3,0.2c0.1,0,0.2,0,0.2,0
					c0.2,0,0.5,0.1,0.9,0.1c0.2,0,0.4,0.1,0.6,0.1c0.1,0,0.2,0,0.3,0.1c0.1,0.1,0.2,0.2,0.3,0.2c0.1,0.1,0.2,0.1,0.2,0.2
					c0.1,0.1,0.1,0.2,0.1,0.2c0.1,0.1,0.1,0.2,0.3,0.3c0.1,0.1,0.1,0.2,0.1,0.4c0.1,0.2,0.4,0.5,0.4,0.8c0.1,0.2,0.1,0.4,0.1,0.7
					c0,0.2,0,0.3,0,0.5c0,0.1,0,0.2,0,0.3c0,0,0,0.1,0,0.1C73.1,93.4,73.1,93.5,73.1,93.6z M71.5,93.6c0-0.1,0-0.4,0-0.7
					c0-0.3-0.1-0.6-0.1-0.7c-0.1-0.5-0.1-0.9-0.3-1.4c0-0.1,0-0.4-0.5-0.7C70.6,90,70.2,90,70,90c-0.2,0-0.2,0-0.3,0.1
					c0,0.1,0,0.3,0,0.7c0,0.7,0,1.8,0,2c0,0.1,0,0.2,0,0.3c0,0.2,0,0.4,0,0.5c0,0.2,0,0.5,0,0.7c0,0.2,0,0.4,0,0.6
					c0,0.3,0,0.8,0,1.1c0,0.1,0,0.2,0,0.3c0,0.1,0,0.4,0,0.6c0,0.1,0,0.1,0.1,0.1c0.1,0,0.2,0,0.2,0c0.1,0,0.1,0,0.3,0
					c0.1,0,0.3-0.1,0.3-0.2c0,0,0.2-0.1,0.2-0.1c0.1-0.1,0.1-0.2,0.2-0.3c0.1-0.1,0.1-0.3,0.2-0.4c0.1-0.2,0.2-0.2,0.2-0.8
					c0-0.3,0.1-0.6,0.1-0.9C71.5,94.1,71.5,93.9,71.5,93.6z"/>
				<path class="st9" d="M78.3,96.9c0,0,0.1,0.1,0.1,0.1c0,0.1-0.1,0.2-0.2,0.3c-0.1,0.1-0.2,0.1-0.3,0.1c-0.2,0-0.5,0.1-0.7,0.1
					c-0.1,0-0.2,0-0.4,0.1c-0.1,0-0.3,0-0.5,0c-0.1,0-0.1,0-0.2,0c0,0-0.1,0-0.1,0c-0.1,0.1-0.1,0.1-0.2,0.1c-0.1,0-0.1,0-0.2,0
					c-0.1,0-0.2,0-0.2,0c-0.1,0-0.1,0-0.2,0c-0.1,0-0.2-0.1-0.3-0.1c-0.1-0.1-0.2-0.1-0.3-0.2c-0.1,0-0.1,0-0.2,0
					c-0.2,0-0.1,0-0.2,0c-0.1,0-0.2,0-0.3,0c-0.1,0-0.2,0-0.3-0.1c-0.1,0-0.2-0.2-0.2-0.2c0,0,0-0.1,0.1-0.1
					c0.1-0.1,0.2-0.1,0.3-0.1c0.2,0,0.4-0.1,0.6-0.1c0-0.2,0-0.5,0-0.8c0-0.4,0-0.9,0-1c0-0.1,0-0.5,0-0.7c0-0.3,0-0.5,0-0.8
					c0-0.1,0-0.2,0-0.3c0-0.2,0-0.3,0-0.5c0-0.1,0-0.2,0-0.3c0-0.1,0-0.3,0-0.4c0-0.2,0.1-0.5,0.1-0.7c0-0.3,0-0.5,0-0.8
					c0-0.2,0-0.4,0-0.6c-0.1,0,0,0-0.2,0c-0.1,0-0.2,0-0.3,0c-0.1,0-0.2,0-0.3-0.1c-0.1,0-0.2-0.2-0.2-0.2c0,0,0-0.1,0.1-0.1
					c0.1-0.1,0.2-0.1,0.3-0.1c0.2,0,0.6-0.1,0.7-0.1v0c0-0.1,0.1-0.1,0.1-0.1c0.1-0.1,0.2-0.1,0.3-0.1c0.1,0,0.2,0,0.3,0
					c0,0,0.1,0,0.1,0c0.1,0,0.1,0,0.1,0.1c0.1,0,0.1,0,0.2,0.1c0.1,0,0.2,0.1,0.3,0.1c0,0,0.1,0,0.1,0c0.1,0,0.2,0,0.2,0
					c0.1,0,0.5,0,0.6,0c0.1,0,0.2,0,0.3,0c0.1,0,0.3,0,0.4,0.1c0.1,0,0.2,0,0.2,0.1c0.1-0.1,0.1-0.1,0.1-0.1c0,0,0.1,0,0.1,0.1
					c0.1,0.1,0.1,0.2,0.1,0.3c0,0.4,0,0.2,0,0.4c0,0.3,0,0.3,0,0.6c0,0.2,0,0.5-0.2,0.5c-0.1,0-0.1,0-0.2-0.1
					c-0.1-0.1-0.1-0.1-0.1-0.2c0-0.1,0-0.2,0-0.3s0-0.2,0-0.3c0-0.1,0-0.2,0-0.4c-0.1,0-0.2,0-0.3,0c-0.1,0-0.3,0-0.4,0
					c-0.1,0-0.3,0-0.6,0.1c-0.1,0-0.1,0-0.2,0c-0.1,0-0.1,0-0.1,0.1c0,0,0,0.1,0,0.1c0,0.1,0,0.1,0,0.2c0,0.1,0,0.2,0,0.4
					c0,0.1,0,0.2,0,0.3c0,0.2,0,0.3,0,0.5c0,0.1,0,0.2,0,0.4c0,0.1,0,0.3,0,0.4c0,0.1,0,0.1,0,0.2c0,0,0,0.1,0,0.2c0,0,0.1,0,0.1,0
					c0.1,0,0.1,0,0.2,0c0.4,0,0.5,0,0.6,0c0.1,0,0.2,0,0.3,0c0,0,0-0.1,0-0.1c0-0.1,0-0.2,0-0.3c0-0.1,0-0.2,0.1-0.3
					c0-0.1,0.2-0.2,0.2-0.2c0,0,0.1,0,0.1,0.1c0.1,0.1,0.1,0.2,0.1,0.3c0,0.2,0,0.5,0.1,0.7c0,0.3,0,0.4,0,0.7c0,0.2,0,0.5-0.2,0.5
					c-0.1,0-0.1,0-0.2-0.1c-0.1-0.1-0.1-0.1-0.1-0.2c0-0.1,0-0.2,0-0.3c0-0.1,0-0.1,0-0.2c-0.3,0-0.6,0-1.1,0
					c-0.1,0-0.2,0.1-0.2,0.2c0,0.1,0,0.2,0,0.4c0,0.1,0,0.1,0,0.1c0,0.1,0,0.1,0,0.2c0,0.1,0,0.2,0,0.3c0,0.1,0,0.2,0,0.3
					c0,0.2,0,0.3,0,0.5c0,0.2,0,0.5,0,0.7c0,0.1,0,0.2,0.1,0.4c0,0.1,0,0.3,0.1,0.4c0,0,0.1,0,0.3,0c0.2,0,0.4,0,0.5,0
					c0.2,0,0.3,0,0.5,0c0.2,0,0.3-0.1,0.4-0.1c0-0.1,0-0.2,0-0.4c0-0.1,0-0.2,0-0.3c0-0.1,0-0.2,0-0.3c0-0.1,0.1-0.2,0.1-0.2
					c0.1-0.1,0.1-0.1,0.2-0.1c0.2,0,0.2,0.3,0.2,0.5C78.3,96.4,78.3,96.5,78.3,96.9C78.3,96.8,78.3,96.8,78.3,96.9L78.3,96.9z"/>
				<path class="st9" d="M86.2,97.2c0.1,0.1,0.2,0.1,0.2,0.2c0,0,0,0.1,0,0.1c-0.1,0.1-0.2,0.1-0.3,0.1c-0.3,0-0.8-0.2-1-0.4
					c-0.2-0.2-0.4-0.5-0.5-0.7c-0.1-0.1-0.2-0.3-0.2-0.4c-0.1-0.1-0.1-0.3-0.2-0.4c0-0.2-0.1-0.3-0.1-0.5c-0.1-0.2-0.1-0.3-0.2-0.5
					c-0.1-0.1-0.1-0.3-0.2-0.4c-0.1-0.2-0.1-0.2-0.2-0.3c-0.1-0.1-0.2-0.1-0.2-0.1c-0.1,0-0.1,0-0.2,0c0,0,0,0,0,0.1
					c0,0.1,0,0.3,0,0.3c0,0.2,0,0.3,0,0.5c0,0.3,0.1,0.4,0.1,0.6c0,0.3-0.1,0.6-0.1,0.9c0,0.1,0,0.2,0,0.3c0,0.1,0,0.1,0,0.2
					c0.2,0,0.3,0,0.4,0c0.2,0,0.5,0,0.5,0.2c0,0.1,0,0.1-0.1,0.2c-0.1,0.1-0.1,0.1-0.2,0.1c-0.1,0-0.2,0-0.3,0c-0.1,0-0.3,0-0.5,0
					c-0.1,0.1-0.3,0.2-0.4,0.2c-0.1,0-0.2,0-0.2,0c-0.1,0-0.1,0-0.2,0c-0.1,0-0.2-0.1-0.3-0.2c-0.1,0-0.3,0-0.4,0
					c-0.1,0-0.2,0-0.3,0c-0.1,0-0.2-0.1-0.3-0.1c-0.1,0-0.2-0.2-0.2-0.2c0,0,0-0.1,0.1-0.1c0.1-0.1,0.2-0.1,0.3-0.1
					c0.2,0,0.4-0.1,0.6-0.1c0-0.1,0-0.2,0-0.2c0-0.1,0-0.7,0-0.9c0-0.3,0-0.5,0-0.8c0-0.3,0-0.6,0-0.9c0-0.3,0-0.7,0-1
					c0-0.3,0-0.7,0-1c0-0.3,0-0.4,0-0.7c0-0.2,0-0.3,0-0.4c0-0.2,0-0.3,0-0.5c0-0.1,0-0.2,0-0.3c0,0,0,0-0.1,0c-0.1,0-0.2,0-0.3,0
					c-0.1,0-0.2,0-0.3-0.1c-0.1,0-0.2-0.2-0.2-0.2c0,0,0-0.1,0.1-0.1c0.1-0.1,0.2-0.1,0.3-0.1c0.2,0,0.5-0.1,0.6-0.1
					c0,0,0-0.1,0.1-0.1c0.1,0,0.1-0.1,0.2-0.1c0.1,0,0.1-0.1,0.2-0.1c0,0,0.1,0,0.2,0c0.1,0,0.3,0,0.4,0.1c0.1,0.1,0.2,0.1,0.3,0.1
					c0.2,0,0.3,0,0.4,0c0.2,0,0.3,0,0.5,0c0.1,0,0.2,0,0.2,0c0.1,0,0.3,0.1,0.6,0.1c0.1,0,0.2,0.1,0.3,0.2c0.1,0,0.2,0.1,0.3,0.2
					c0.1,0.1,0.3,0.2,0.3,0.3c0.1,0.1,0.2,0.3,0.3,0.4c0.1,0.2,0.1,0.3,0.1,0.5c0,0.1,0.1,0.2,0.1,0.3c0,0,0,0.1,0,0.1
					c0,0.1,0,0.1,0,0.2c0,0.1,0,0.2,0,0.2c0,0.1,0,0.2-0.1,0.4c0,0.2-0.1,0.3-0.2,0.4c0,0.1-0.1,0.1-0.1,0.1c0,0.1,0,0.1-0.1,0.1
					c-0.1,0.1-0.2,0.2-0.2,0.3c-0.1,0-0.1,0-0.2,0.1C85,93.3,85,93.3,85,93.4c-0.1,0.1-0.2,0.2-0.3,0.2c-0.1,0.1-0.2,0.1-0.2,0.2
					c0,0.1,0.3,0.3,0.3,0.4c0.1,0.2,0.2,0.3,0.3,0.5c0.1,0.2,0.1,0.3,0.2,0.5c0.1,0.2,0.1,0.5,0.2,0.7c0.1,0.2,0.2,0.5,0.3,0.7
					c0.1,0.1,0.1,0.3,0.2,0.4C86,97.1,86.1,97.2,86.2,97.2L86.2,97.2z M84.4,90.9c0,0,0-0.1,0-0.2c0-0.2-0.1-0.3-0.3-0.5
					c-0.1-0.1-0.1-0.1-0.2-0.2C83.9,90,83.9,90,83.8,90c-0.2-0.1-0.4-0.1-0.5-0.1l-0.3,0c0,0.2,0,0.4,0,0.7c0,0.4,0.1,0.8,0.1,1.2
					c0,0.5,0,0.9,0,0.9c0,0.1,0,0.3,0,0.4c0,0,0,0.1,0,0.1c0,0.1,0,0.1,0.1,0.1c0,0,0.1,0,0.2,0c0.1,0,0.1,0,0.2,0
					c0.2,0,0.4-0.1,0.5-0.2c0.1-0.1,0.2-0.2,0.2-0.3c0-0.1,0.1-0.3,0.1-0.4c0.1-0.2,0.1-0.3,0.1-0.4c0-0.2,0-0.2,0-0.4
					c0-0.2,0-0.2,0-0.4C84.4,91.2,84.4,91.1,84.4,90.9z"/>
				<path class="st9" d="M89.7,97c0.2,0,0.5,0,0.5,0.2c0,0.1,0,0.1-0.1,0.2c-0.1,0.1-0.1,0.1-0.2,0.1c-0.1,0-0.2,0-0.3,0
					c0,0-0.3,0-0.5,0c-0.3,0-0.6,0-0.7,0c-0.2,0-0.5,0-0.7,0c-0.1,0-0.2,0-0.3,0c-0.1,0-0.2,0-0.3-0.1c-0.1,0-0.2-0.2-0.2-0.2
					c0,0,0-0.1,0.1-0.1c0.1-0.1,0.2-0.1,0.3-0.1c0.2,0,0.5-0.1,0.6-0.1c0,0,0.1,0,0.1,0c-0.1-0.1-0.2-0.2-0.2-0.3c0-0.1,0-0.1,0-0.2
					c0,0,0-0.1,0-0.1c0,0,0-0.1,0-0.1c0-0.1,0-0.2,0-0.3c0-0.1,0-0.1,0-0.1c0-0.6,0-1.3,0-1.9c0-0.3,0-0.7,0-1c0-0.3,0-0.6,0-0.9
					c0-0.2,0-0.3,0-0.5c0-0.2,0-0.4,0-0.6c0-0.3,0-0.6,0-0.8c0,0,0-0.1,0-0.1c0,0-0.1,0-0.1,0c-0.1,0-0.2,0-0.3,0
					c-0.1,0-0.2,0-0.3-0.1c-0.1,0-0.2-0.2-0.2-0.2c0,0,0-0.1,0-0.1c0.1-0.1,0.2-0.1,0.3-0.1c0.2,0,0.5-0.1,0.6-0.1c0,0,0-0.1,0-0.1
					c0-0.1,0-0.1,0-0.2c0,0,0.1-0.1,0.2-0.1c0.1,0,0.1-0.1,0.2-0.1s0.1,0,0.2,0c0.1,0,0.2,0,0.3,0c0.2,0.1,0.4,0.2,0.5,0.4
					c0.3,0,0.5,0,0.6,0c0.2,0,0.5,0,0.5,0.2c0,0.1,0,0.1-0.1,0.2C90,90,89.9,90,89.8,90c-0.1,0-0.2,0-0.3,0c0,0-0.2,0-0.4,0v0
					c0,0.2,0.1,0.3,0.1,0.5c0,0.2,0,0.3,0,0.5s0,0.3,0,0.4c0,0.1,0,0.2,0,0.2c0,0.1,0,0.1,0,0.2c0.1,0.3,0,0.6,0.1,0.9
					c0,0.3,0,0.7,0,1c0,0.3,0,0.6,0,0.8c0,0.3,0.1,0.6,0.1,0.9c0,0.2,0,0.3,0,0.5c0,0.2,0,0.3,0,0.5c0,0.1,0,0.3-0.1,0.4
					C89.5,97,89.6,97,89.7,97L89.7,97z"/>
				<path class="st9" d="M95.9,94.1c0,0.1-0.1,0.2-0.2,0.3c-0.2,0.1-0.4,0.1-0.5,0.1c-0.1,0-0.2,0-0.2,0.2c0,0.1,0,0.3,0,0.4
					c0,0.1,0,0.4,0,0.4c0,0.1,0,0.2,0,0.3c0,0.3,0,0.7,0,0.8c0,0.3,0,0.4,0,0.7c0,0.1,0,0.5-0.2,0.5c-0.1,0-0.1,0-0.2-0.1
					c-0.1-0.1-0.1-0.1-0.1-0.2c0-0.1,0-0.2,0-0.2c0-0.1,0-0.2,0-0.3v0c-0.1,0.3-0.2,0.5-0.5,0.6c-0.3,0.2-0.6,0.4-1,0.4
					c-0.2,0-0.5,0-0.7-0.1c-0.3-0.1-0.5-0.2-0.7-0.4c-0.3-0.3-0.5-0.6-0.6-0.9c-0.1-0.3-0.2-0.5-0.3-0.8c0-0.2-0.1-0.4-0.1-0.6
					c0-0.2,0-0.3,0-0.5c0-0.7,0.2-1.4,0.4-2.1c0.1-0.3,0.2-0.7,0.3-1c0.1-0.4,0.3-0.7,0.5-1c0.2-0.3,0.4-0.6,0.6-0.8
					c0.1-0.1,0.2-0.2,0.4-0.2c0.2-0.1,0.3-0.2,0.5-0.2c0,0,0.1,0,0.1,0c0.1,0,0.1,0,0.3,0c0.2,0,0.3,0.1,0.4,0.1
					c0.1,0.1,0.2,0.2,0.3,0.3c0-0.1,0-0.2,0.1-0.2c0-0.1,0-0.1,0.1-0.1c0,0,0.1-0.1,0.1-0.1c0,0,0.1,0.1,0.1,0.1
					c0.1,0.1,0.1,0.2,0.1,0.3c0,0.1,0,0.3,0,0.6c0,0.3,0,0.7,0,0.8c0,0.3,0,0.4,0,0.7c0,0.1,0,0.5-0.2,0.5c-0.1,0-0.1,0-0.2-0.1
					c-0.1-0.1-0.1-0.1-0.1-0.2c0-0.1,0-0.1,0-0.2c0-0.1,0-0.2,0-0.3c0-0.1,0-0.2,0-0.3c0-0.2-0.1-0.4-0.1-0.6c0-0.2-0.1-0.3-0.2-0.5
					c-0.1-0.1-0.2-0.2-0.4-0.2c-0.2,0-0.3,0.1-0.4,0.2c-0.1,0.1-0.2,0.3-0.3,0.4c-0.1,0.2-0.1,0.3-0.1,0.5c0,0.2-0.1,0.3-0.1,0.5
					c-0.1,0.2-0.1,0.4-0.1,0.6c0,0.2-0.1,0.3-0.1,0.5c0,0.2-0.1,0.3-0.1,0.5c0,0.2,0,0.4-0.1,0.5s0,0.3-0.1,0.5c0,0.2,0,0.3,0,0.5
					c0,0.2,0,0.4,0,0.7c0,0.3,0.1,0.6,0.2,0.9c0,0.1,0.1,0.2,0.1,0.3c0,0.2,0.1,0.3,0.2,0.4c0.1,0.2,0.3,0.4,0.6,0.4
					c0.2,0,0.4-0.2,0.5-0.3c0.2-0.2,0.3-0.5,0.3-0.8c0.1-0.2,0.1-0.5,0.1-0.7c0-0.2,0-0.4,0-0.6c0,0,0-0.1,0-0.1
					c0-0.1,0-0.2-0.2-0.2c-0.2,0-0.3,0-0.5,0c-0.1,0-0.3,0-0.4-0.1c-0.1,0-0.1-0.1-0.1-0.1c0,0,0-0.1,0.1-0.1
					c0.1-0.1,0.2-0.1,0.2-0.1c0.2-0.1,0.4-0.1,0.6-0.1c0.2,0,0.4,0,0.5-0.1c0.1,0,0.3,0,0.4,0c0.2,0,0.5,0,0.7,0
					C95.7,93.9,95.9,93.9,95.9,94.1z"/>
				<path class="st9" d="M101.9,97c0.2,0,0.5,0,0.5,0.2c0,0.1,0,0.1-0.1,0.2c-0.1,0.1-0.1,0.1-0.2,0.1c-0.1,0-0.2,0-0.3,0
					c-0.2,0-1.3,0-1.4,0c-0.2,0-0.1,0-0.2,0c-0.1,0-0.2,0-0.3,0c-0.1,0-0.2,0-0.3-0.1c-0.1,0-0.2-0.2-0.2-0.2c0,0,0-0.1,0.1-0.1
					c0.1-0.1,0.2-0.1,0.3-0.1c0.2,0,0.4-0.1,0.5-0.1c-0.1-0.1-0.2-0.1-0.2-0.3c0-0.3,0-0.6,0-0.9c0-0.3,0-0.6,0-0.9
					c0-0.2,0-0.4,0-0.6c0-0.2,0-0.4,0-0.6c0-0.1,0-0.2,0-0.3c0-0.1,0-0.1,0-0.1c0,0-0.1,0-0.1,0c-0.1,0-0.4,0.1-0.4,0.1
					c-0.1,0-0.2,0-0.6,0c-0.2,0-0.3,0-0.3,0c0,0-0.1,0-0.1,0.1c0,0.1,0,0.2,0,0.2c0,0.1,0,0.2,0,0.3c0,0.1,0,0.2,0,0.3
					c0,0.1,0,0.3,0,0.4c0,0,0,0,0,0.1c0,0.1,0,0.3,0,0.4c0,0.2,0,0.3,0,0.5c0,0.1,0,0.3,0,0.4c0,0.2,0,0.4,0,0.6c0,0.1,0,0.2,0,0.3
					c0.2,0,0.4,0,0.4,0.2c0,0.1,0,0.1-0.1,0.2c-0.1,0.1-0.1,0.1-0.2,0.1c-0.1,0-0.2,0-0.3,0c0,0,0,0,0,0c-0.1,0-0.1,0-0.1,0.1
					c-0.1,0,0,0.1-0.1,0.1c0,0-0.1,0-0.1,0c-0.2,0-0.3-0.1-0.4-0.1c0,0-0.1-0.1-0.1-0.1c-0.2,0-0.3,0-0.4,0c-0.2,0-0.1,0-0.2,0
					c-0.1,0-0.2,0-0.3,0s-0.2,0-0.3-0.1c-0.1,0-0.2-0.2-0.2-0.2c0,0,0-0.1,0.1-0.1c0.1-0.1,0.2-0.1,0.3-0.1c0.2,0,0.4-0.1,0.6-0.1
					c0,0,0-0.1,0-0.1c0-0.1,0-0.1,0-0.2c0-0.1,0-0.3,0-0.4c0-0.2,0-0.3,0-0.5c0-0.2,0-0.4,0-0.6c0-0.3,0-0.6,0-0.8
					c0-0.2,0-0.4,0-0.6c0-0.1,0-0.1,0-0.2c0-0.1,0-0.2,0-0.2c0-0.1,0-0.1-0.1-0.1c0,0-0.2,0-0.3,0c-0.2,0-0.3-0.1-0.3-0.2
					c0,0,0-0.1,0.1-0.1c0.1-0.1,0.1-0.1,0.2-0.1c0.1,0,0.2,0,0.2,0c0.1,0,0.1,0,0.2-0.1c0,0,0-0.1,0-0.1c0-0.3,0-0.6,0-0.9
					c0-0.5,0-1.1,0.1-1.6c0-0.1,0-0.2,0-0.3c-0.1,0-0.1,0-0.2,0c0,0-0.1,0-0.1,0c-0.1,0-0.1,0-0.2,0c-0.1,0-0.2,0-0.3-0.1
					c-0.1,0-0.2-0.2-0.2-0.2c0,0,0-0.1,0.1-0.1c0.1-0.1,0.2-0.1,0.3-0.1c0.2,0,0.6-0.1,0.7-0.1c0,0,0.1,0,0.1,0
					c0.1-0.2,0.2-0.3,0.5-0.3c0.2,0,0.4,0.1,0.5,0.3c0.1,0,0.3,0,0.4,0c0.2,0,0.5,0,0.5,0.2c0,0.1-0.1,0.1-0.1,0.2
					c-0.1,0.1-0.1,0.1-0.2,0.1c-0.1,0-0.2,0-0.3,0c0,0-0.1,0-0.1,0c0,0,0,0,0,0.1c0.1,0.2,0.1,0.4,0.1,0.6c0,0.2,0,0.4,0.1,0.6
					c0,0.2,0.1,0.4,0.1,0.6c0,0.1,0,0.1,0,0.2v0.1c0,0.1,0,0.2,0,0.3c0,0.1,0.1,0.1,0.1,0.2c0,0,0,0,0,0c0,0,0,0.1,0,0.1
					c0,0.1,0,0.1,0.1,0.1c0.2,0,0.7-0.1,0.8-0.1c0.1,0,0.2,0,0.4,0c0.1,0,0.2,0,0.2,0c0.1,0,0.1,0,0.1-0.1c0-0.1,0-0.3,0-0.3
					c0-0.2,0-0.5,0-0.7c0,0,0-0.3,0-0.5c0-0.2,0-0.4,0-0.6c0-0.1,0-0.2,0-0.3c0-0.1,0-0.1,0-0.2c-0.1,0-0.1,0-0.2,0
					c-0.1,0-0.2,0-0.3-0.1c-0.1,0-0.2-0.2-0.2-0.2c0,0,0-0.1,0.1-0.1c0.1-0.1,0.2-0.1,0.3-0.1c0.2,0,0.3,0,0.4,0
					c0,0,0.1-0.1,0.1-0.1c0.1,0,0.2,0,0.2,0c0,0,0,0,0.1,0c0.1,0,0.2,0,0.3,0c0.1,0,0.1,0,0.1,0.1c0.3,0,0.7,0,0.9,0
					c0.2,0,0.5,0,0.5,0.2c0,0.1,0,0.1-0.1,0.2c-0.1,0.1-0.1,0.1-0.2,0.1c-0.1,0-0.2,0-0.3,0c0,0-0.3,0-0.5,0c0,0.1,0.1,0.2,0.1,0.3
					c0,0.2,0.1,0.4,0.2,0.6c0,0.2,0,0.3,0.1,0.5c0.1,0.2,0.1,0.3,0.1,0.5c0,0.2,0,0.2,0,0.4c0,0.1,0,0.2,0,0.2c0,0,0,0,0,0.1
					c0,0.1,0.1,0.1,0.1,0.1c0,0,0.1,0,0.1,0c0.1,0,0.2,0,0.3,0.1c0,0,0,0.1,0,0.1c0,0.1-0.1,0.2-0.2,0.3c-0.1,0-0.1,0-0.2,0.1
					c-0.1,0-0.1,0-0.1,0.1c0,0,0,0,0,0c0,0,0,0.1,0,0.1c0,0,0,0,0,0.1c0,0.1,0,0.2,0,0.3c0,0.3,0,0.6,0,0.8c0,0.3,0.1,0.6,0.1,0.9
					c0,0.1,0,0.3,0,0.4c0,0.2-0.1,0.5-0.1,0.7c0,0,0,0.1-0.1,0.1c0,0.1,0,0.1,0,0.2c0,0,0,0.1,0,0.1C101.7,97,101.8,97,101.9,97
					L101.9,97z"/>
				<path class="st9" d="M107.9,90.9c0,0.1,0,0.4-0.2,0.4c-0.1,0-0.1,0-0.2-0.1c-0.1-0.1-0.1-0.1-0.1-0.2c0-0.1,0-0.2,0-0.2
					c0-0.1,0-0.5,0-0.6c0-0.1,0-0.2,0-0.2c-0.1,0-0.2,0-0.3,0s-0.2,0-0.3,0c-0.1,0-0.2,0-0.3,0c0,0-0.1,0-0.1,0h0
					c-0.1,0-0.1,0-0.1,0.1c0,0,0,0.1,0,0.1c0,0.1,0,0.3,0,0.5c0,0.1,0,0.2,0,0.3c0,0.1,0,0.2,0,0.3c0,0.1,0.1,0.3,0,0.4
					c0,0.1,0,0.2,0,0.3c0,0.2,0,0.5,0,0.7c0,0.1,0,0.2,0,0.3c0,0.1,0,0.1,0,0.2c0,0.1,0,0.2,0,0.3c0,0.2,0,0.4,0,0.6
					c0,0.2,0,0.5,0,0.7c0,0.1,0,0.2,0,0.3c0,0.1,0,0.2,0,0.4c0,0.2,0,0.5,0,0.7c0,0.2,0,0.5,0,0.7c0,0,0,0.1,0,0.1
					c0.1,0,0.2,0,0.3,0c0.2,0,0.5,0.1,0.5,0.2c0,0.1,0,0.1-0.1,0.2c-0.1,0.1-0.1,0.1-0.2,0.1c-0.1,0-0.2,0-0.3,0c0,0-0.2,0-0.4,0
					c0,0-0.1,0-0.1,0.1c-0.1,0.1-0.2,0.1-0.3,0.1c-0.1,0-0.2,0-0.2,0c-0.1,0-0.2-0.1-0.3-0.1c0,0-0.1,0-0.1-0.1c-0.2,0-0.3,0-0.5,0
					c-0.1,0-0.2,0-0.3,0c-0.1,0-0.2,0-0.3-0.1c-0.1,0-0.2-0.2-0.2-0.2c0,0,0-0.1,0.1-0.1c0.1-0.1,0.2-0.1,0.3-0.1
					c0.2,0,0.4,0,0.5-0.1v0c0-0.1,0-0.2,0-0.4c0-0.2,0-0.5,0-0.7c0-0.2,0-0.5,0-0.7c0-0.3,0-0.5,0-0.8c0-0.2,0-0.4,0-0.6
					c0-0.1,0-0.2,0-0.3c0-0.1,0-0.2,0-0.3c0-0.2,0-0.5,0-0.7c0-0.2,0-0.5,0-0.7c0-0.2,0-0.4,0-0.6c0-0.3,0-0.6,0-0.9
					c0-0.1,0-0.1,0-0.2c0-0.1-0.1-0.1-0.1-0.1c-0.1,0-0.5,0-0.5,0c-0.2,0-0.4,0-0.6,0c0,0-0.1,0-0.1,0c0,0.3,0,0.7,0,0.9
					c0,0.1,0,0.4-0.2,0.4c-0.1,0-0.1,0-0.2-0.1c-0.1-0.1-0.1-0.1-0.1-0.2c0-0.1,0-0.2,0-0.2c0-0.1,0-0.4,0-0.5c0-0.2,0-0.3,0-0.5
					c0-0.1-0.1-0.1-0.1-0.2c0-0.1,0-0.1,0.1-0.1c0.1-0.1,0.2-0.1,0.3-0.1c0.1,0,0.2,0,0.3,0c0.2,0,0.5,0,0.7,0c0.1,0,0.2,0,0.3,0
					c0,0,0,0,0,0c0.1,0,0.1,0,0.2,0c0,0,0.1,0,0.1,0c0.1,0,0.2-0.1,0.2-0.1c0.1,0,0.1,0,0.2,0c0.1,0,0.3,0,0.4,0
					c0.1,0,0.1,0,0.1,0.1c0.1,0,0.1,0.1,0.1,0.1c0,0,0.1,0,0.1,0c0.1,0,0.1,0,0.2,0c0.1,0,0.2,0,0.4,0c0.3,0,0.6,0,0.9,0
					c0.1,0,0.3,0,0.4,0.1c0.1,0.1,0.1,0.1,0.1,0.2c0,0.1,0,0.1,0,0.1c0,0,0,0,0,0.1C107.9,90.3,107.9,90.7,107.9,90.9z"/>
			</g>
		</g>
	</g>
</g>
<image style="overflow:visible;" width="197" height="262" xlink:href="87BCC378.jpg"  transform="matrix(1 0 0 1 604.3635 -60.0793)">
</image>
<polygon class="st9" points="184.8,28.4 185.1,28.4 186.1,31 187.1,28.4 187.4,28.4 188.4,31 189.4,28.4 189.7,28.4 190.7,31 
	191.7,28.4 192,28.4 193.1,31 194.1,28.4 194.3,28.4 195.3,31 196.3,28.4 196.7,28.4 197.7,31 197.9,30.5 195,18.9 182.4,21.2 
	184.3,29.6 "/>
<path class="st9" d="M200.9,28.4h0.4l1,2.6l1-2.6h0.3l1,2.6l1-2.6h0.4l1,2.6l1-2.6h0.2l0.6,1.7c0.7-0.8,1.4-1.7,1.9-2.9
	c1.5-3.3,1.8-3.8,1.8-3.8l-2.8-0.5l-2.2-2.6l-2.9,2.8l-6.3-2.2l2,8.7L200.9,28.4z"/>
<path class="st9" d="M212.9,28.5l0.9,2.4l1-2.6h0.4l1,2.6l1-2.6h0.2l1,2.6l1-2.6h0.4l1,2.6l1-2.6h0.3l0.6,1.5
	c0.9-2.2,2.3-5.5,3.4-7.9c1.7-4,1.3-8.9-2.6-9c-5.8-0.1-7.1,8.1-7.1,8.1s3.9-4.4,5.2-2.9C223.9,20.8,214.8,21.8,212.9,28.5z"/>
<g>
</g>
<g>
</g>
<g>
</g>
<g>
</g>
<g>
</g>
<g>
</g>
<g>
</g>
<g>
</g>
<g>
</g>
<g>
</g>
<g>
</g>
</svg>
